<?xml version="1.0" encoding="UTF-8"?>
<svg id="Capa_2" xmlns="http://www.w3.org/2000/svg" version="1.1" viewBox="0 0 841.89 595.28">
  <!-- Generator: Adobe Illustrator 29.4.0, SVG Export Plug-In . SVG Version: 2.1.0 Build 152)  -->
  <defs>
    <style>
      .st0 {
        stroke-linecap: round;
      }

      .st0, .st1, .st2, .st3, .st4, .st5, .st6 {
        stroke: #1d1d1b;
        stroke-miterlimit: 10;
      }

      .st0, .st1, .st3, .st5, .st6 {
        stroke-width: 4px;
      }

      .st0, .st3 {
        fill: none;
      }

      .st7, .st1 {
        fill: #ff9e00;
      }

      .st8 {
        fill: #ffba00;
      }

      .st9 {
        fill: #7c7c7c;
      }

      .st10 {
        fill: #bf7304;
      }

      .st11 {
        fill: #e9595c;
      }

      .st12, .st5 {
        fill: #fff;
      }

      .st13, .st2, .st14 {
        fill: #1c1c1c;
      }

      .st15, .st6 {
        fill: #d5d5d5;
      }

      .st16 {
        fill: #f8e8aa;
      }

      .st17 {
        fill: #eec131;
      }

      .st14, .st18 {
        opacity: .35;
      }

      .st19 {
        fill: #121a27;
      }

      .st20 {
        fill: #1d1d1b;
      }

      .st21 {
        fill: #e28807;
      }

      .st22 {
        opacity: .7;
      }
    </style>
  </defs>
  <g>
    <path class="st9" d="M493.26,443.08l-120.15,10.8c-11.61,1.41-20.26-3.26-21.68-14.86l-12.26-100.74c-1.41-11.61,6.85-22.16,18.46-23.57l118.26-14.39c11.61-1.41,22.16,6.85,23.57,18.46l12.26,100.74c1.41,11.61-6.85,22.16-18.46,23.57Z"/>
    <g class="st18">
      <path class="st13" d="M508.97,414.76l-2.53-29.1c-.34,14.36-8.1,26.63-18.6,28.42l-118.26,20.16c-11.61,1.98-22.16-9.6-23.57-25.85l-9.73-112.01c-.04,1.51,0,3.05.14,4.6l12.26,141.11c1.41,16.26,10.78,22.96,22.39,20.98l119.44-15.29c11.61-1.98,19.87-16.76,18.46-33.02Z"/>
    </g>
    <path class="st13" d="M372.4,459.86c-5.2,0-10.22-1.72-14.38-4.98-4.92-3.85-8.05-9.39-8.8-15.59l-12.26-100.74c-.76-6.2.95-12.33,4.8-17.25,3.85-4.92,9.39-8.05,15.6-8.8l118.26-14.39c6.2-.75,12.33.95,17.25,4.8,4.92,3.85,8.05,9.39,8.8,15.6l12.26,100.74c.76,6.2-.95,12.33-4.8,17.25-3.85,4.92-9.39,8.05-15.6,8.8h0l-118.14,1.89c-.96.12-2.03,12.68-2.99,12.68ZM478.48,302.38c-.77,0-1.55.05-2.33.14l-118.26,14.39c-5.02.61-9.51,3.14-12.63,7.13-3.12,3.98-4.5,8.94-3.89,13.97l12.26,100.74c.61,5.02,3.14,9.51,7.13,12.63,3.98,3.12,8.94,4.5,13.97,3.89l118.26-14.39c5.02-.61,9.51-3.14,12.63-7.13,3.12-3.98,4.5-8.94,3.89-13.97l-12.26-100.74c-.61-5.02-3.14-9.51-7.13-12.63-3.37-2.64-7.43-4.03-11.64-4.03ZM493.26,443.08h0,0Z"/>
  </g>
  <path class="st15" d="M392.75,335.63c-2.19,1.11-56.03,8.86-56.03,8.86,0,0-22.71,11.05-23.04,12.8s-8.86,14.09-8.86,14.09l-3.22,10.86,2.03,11.96s6.2,6.63,6.17,7.52,9.09,4.48,9.09,4.48l8.52,1.03,12.35-1.03,6.77-7.01,11.49-12.98.48,11.45-1.49,12.35,1.07,10.38-3.64,3.35-10,12.62-2.91,11.6,1.46,13.69,7.1,12.61,7.99-1.58,22.05-.91,8.64-3.22,10.67-6.9,1.51-3.8,9.02,2.01.39,4.78,2.37,5.41,10.68,10.13h26.09l16.56-5.35,16.11-7.12,13.97-21.01,5.88-30.26-6.46-26.39-3.93-15.73-1.53-4.71-5.13-20.08-18.91-29.93-73.32,16.01Z"/>
  <path class="st7" d="M498.77,269.22c0,47.86-50.2,95.18-114.1,95.18-47.34,0-86.25-26.92-104.63-59.84-6.43-11.52-12.69-22.94-12.69-35.35,0-47.86,51.8-86.66,115.71-86.66,35.95,0,72.09,7.02,93.32,26.28,16.51,14.98,22.39,39.44,22.39,60.38Z"/>
  <path class="st20" d="M316.07,285.66c10.61-11.04,31.97-14.7,42.08-1.2-13.78-8.2-28.14-4.44-42.08,1.2h0Z"/>
  <path class="st20" d="M320.73,281.86s-16.05-48.05,14.33-55.26c0,0,32.84-4.6,24.62,47.79l-1.37,9.44s-12.25-6.6-20.56-5.48-17.02,3.52-17.02,3.52Z"/>
  <g>
    <path class="st7" d="M318.8,146.57s23.61-8.61,36.09,7.42c0,0-19.56-20.79-23.22-32.93,0,0,27.75-4.04,37.11,32.06,0,0-9.39-22.13-5.79-34.05,0,0,21.13-8.87,24.9,42.78l-17.32,7.39-19.46-4.31c-.63.16-26.54-2.65-31.49-19.39"/>
    <path class="st4" d="M370.68,170.41l-19.75-4.38c-3.79-.1-27.22-3.79-32.27-19.84l-.25-.67c.19-.07,15.16-5.38,27.81.28-5.95-7.18-13.45-17.19-15.63-24.42l-.37-1.24,1.28-.19c.3-.04,7.35-1.02,15.65,2.57,4.63,2,10.18,5.71,14.94,12.59-1.12-5.72-1.57-11.73-.17-16.36l.15-.5.49-.2c.21-.09,5.25-2.14,11.01,1.39,8.58,5.26,13.78,19.51,15.44,42.34l.06.8-18.38,7.84ZM351.1,163.78l19.37,4.29,16.25-6.93c-2.08-26.82-8.89-36.43-14.27-39.77-3.87-2.4-7.3-1.78-8.54-1.43-1.65,6.33.27,15.51,2.34,22.55,1.38,3.02,2.6,6.45,3.61,10.35l-2.11.72c-.17-.4-1.96-4.67-3.65-10.38-4.14-8.96-10.19-15.31-17.83-18.6-5.66-2.45-10.74-2.61-13.08-2.51,3.45,9.17,14.84,22.6,19.97,28.37.91.86,1.78,1.82,2.61,2.88l-1.7,1.45c-.17-.18-1.13-1.2-2.57-2.82-9.89-9.2-24.7-6.43-30.19-4.96,5.87,14.25,28.34,16.73,29.64,16.84l.13-.03Z"/>
  </g>
  <path class="st1" d="M351.96,471.88l.79,3.94s-14.58,7.75-10.38,17.34,29.43,8.15,29.43,8.15c0,0,25.36-3.28,31.27-8.93,5.91-5.65,1.18-14.58,1.18-14.58,0,0-5.65-10.91-4.73-16.03,0,0-11.69,9.99-24.44,11.17s-23.12-1.05-23.12-1.05Z"/>
  <path class="st1" d="M425.27,480.15v5.52s-13.53,7.12-6.7,15.71c6.83,8.59,29.3,6.23,29.3,6.23,0,0,26.54-4.73,33.24-10.51s1.58-14.98,1.58-14.98c0,0-5.26-9.2-5.52-12.35,0,0-14.32,7.75-27.59,10.51s-24.31-.13-24.31-.13Z"/>
  <g>
    <path class="st13" d="M397.2,299.82c1.32,11.36-2.72,40.93-13.09,41.17-10.07.23-20.56-29.86-21.15-31.58,0-.02.02-.04.03-.02.45.41,3.52,2.94,9.29,1.28,6.26-1.8,8.51-5.53,8.51-5.53,0,0,1.97-3.41,8.57-4.3s7.83-1.01,7.83-1.01Z"/>
    <path class="st16" d="M370.02,264.55s-5.6,2.16-7.25,4.45-6.75,12.7-6.75,12.7l1.47,9.11,8.1,10.17,22.92-9.28,10.31-2.63-8.42-18.67-9.32-5.17-11.07-.68Z"/>
    <path class="st17" d="M357.11,283.03s5.52-8.11,6.24-2.45c.73,5.66.27,17.03,2.58,17.34s4.86-22.45,13.03-24.4c8.16-1.95,17.9,13.87,18.33,15.32s1.35,8.68-.78,10-8.65.3-11.38,2.09-8.99,8.82-11.87,8.99-9.76,2.76-13.73-2.8c-3.97-5.56-5.42-8.62-5.16-9.38s2.74-14.72,2.74-14.72Z"/>
    <path class="st17" d="M368.05,321.65l-1.23-7.54c-.03-.17.2-.26.29-.11,1.97,3.25,10.33,16.44,15.2,14.86,5.55-1.8,9.28-10.04,9.28-10.04l3.11-13.56c.06-.26.43-.24.47.02l1.56,9.93s-4.59,19.45-6.61,21.76-5.42,7.16-9.93,2.69c-4.51-4.46-12.14-18.01-12.14-18.01Z"/>
    <path class="st13" d="M370.1,312.55c-.71.07-1.47.1-2.26.09h-.11s-.11-.02-.11-.02c-.15-.02-3.77-.57-7.37-2.89-3.4-2.19-7.43-6.41-7.3-14.04.13-7.69,1.62-15.4,4.09-21.15,3.25-7.57,8.07-11.63,13.95-11.76,6.37-.14,11.93,1.43,16.53,4.68,4.94,3.48,8.6,8.78,10.88,15.77,1.96,6.01,2.61,10.75,1.93,14.07-.24,1.19-.66,2.18-1.22,2.95-.48.65-.94.94-1.12,1.04l-.31.17-.35.03c-4.05.34-11.14,1.31-12.95,2.48-.54.35-1.19,1.05-1.94,1.85-2.31,2.48-5.69,6.11-12.35,6.73ZM368,309.29c6.62.03,9.6-3.17,12-5.75.9-.97,1.68-1.8,2.56-2.38.52-.33,2.08-1.35,8.59-2.32,2.27-.34,4.33-.55,5.31-.64.56-.8,2-4.06-1.23-13.94-3.96-12.12-12.32-18.4-24.17-18.14-2.31.05-4.44.95-6.31,2.68-1.78,1.64-3.34,4.02-4.64,7.06-2.3,5.37-3.7,12.62-3.82,19.89-.08,4.85,1.83,8.59,5.67,11.11,2.69,1.76,5.48,2.33,6.03,2.43ZM396.29,298.42h0Z"/>
    <path class="st11" d="M376.39,317.09s1.18,7.21,5.49,6.9,6.92-13.47,6.92-13.47c0,0,.75-3.5-4.01-1.12-4.76,2.38-7.5,4.7-8.4,7.69Z"/>
    <path class="st13" d="M384.65,342.63c-.17.02-.33.02-.5.03-2.83.06-5.78-1.68-8.78-5.18-2.23-2.6-4.54-6.23-6.88-10.79-4-7.8-6.81-15.85-7.11-16.74-.25-.73.03-1.54.67-1.97.65-.42,1.5-.36,2.07.16.27.24,2.75,2.33,7.7.91,5.48-1.57,7.47-4.67,7.55-4.8v.02c.19-.33,2.62-4.13,9.77-5.1,6.56-.89,7.84-1.02,7.9-1.02l1.63-.15.19,1.63c1.08,9.33-1.31,31.5-8.47,39.72-1.73,1.99-3.66,3.09-5.74,3.28ZM365.92,312.61c1.22,3.18,3.17,7.91,5.55,12.56,6.37,12.42,10.63,14.19,12.6,14.15,1.3-.03,2.57-.76,3.8-2.16,2.75-3.16,5.08-9.48,6.54-17.78,1.1-6.23,1.57-12.94,1.27-17.69-1.15.15-3.04.39-6.09.81-5.44.74-7.2,3.26-7.36,3.49v.03s0-.01,0-.01c-.07.12-.74,1.2-2.25,2.49-1.94,1.67-4.44,2.98-7.23,3.78-2.81.81-5.09.73-6.83.33Z"/>
  </g>
  <path class="st6" d="M281.25,228.02s-22.32,2.22-25.24,26.02c-2.92,23.79,3.64,34.61,3.64,34.61,0,0,5.05,9.96,20.2,12.79,0,0-2.21-67.64,1.4-73.41Z"/>
  <path class="st6" d="M491.71,221.73s11.93,40.49,4.12,69.72c0,0,12.49,2.93,21.51-11.96,6.75-11.14,1.86-32.58-1.03-42.68-1.26-4.4-3.91-8.27-7.58-10.97-4.24-3.12-10.37-6.05-17.02-4.11Z"/>
  <path class="st6" d="M278.8,230.83s31.26-79.53,106.05-80.28c74.79-.76,101.37,54.22,108.01,70.56,0,0-29.79-49.18-102.37-48.28-76.53.94-91.88,23.82-111.69,58Z"/>
  <path class="st6" d="M279.45,229.21c-.03.08.07.15.13.08,3.53-4.59,36.81-45.38,103.96-45,72.21.41,95.86,19.64,111.32,54.63,0,0,2.44-62.22-104.37-66.1,0,0-86.76-7.42-111.04,56.39Z"/>
  <path class="st6" d="M279.07,298.42s11.52,52.31,98.58,62.5c87.07,10.18,117.43-78.66,120.65-85.78,0,0,1.2,75.72-93.97,96.97-8.89,1.98-26.07,1.48-34.95-.54-26.63-6.06-81.94-23.38-90.32-73.15Z"/>
  <g class="st18">
    <path class="st2" d="M518.63,253.83l2.44,11.59c1.14,6.89-1.63,11.94-4.89,16.47-4.09,5.68-8.88,9.98-17.44,9.23-1.47-.13-2.85-1.44-3.1-2.92l4.01-21.97c.57.97-1.95,6.18-.88,6.29l-1.39-1.94c12.16,1.07,19.28-6.1,21.24-16.75Z"/>
  </g>
  <g class="st18">
    <path class="st2" d="M277.36,272.47l2.49,25.17c.01,1.59,1.19,5.03-.4,5.15-8.79.63-10.2-1.34-15.79-6.91-5.05-5.03-8.16-12.04-8.23-19.98l-.09-11.94c4.84,10.14,10.12,16.58,22.4,15.7l-.39,2.01c1.11-.08-.5-8.28,0-9.21Z"/>
  </g>
  <path class="st20" d="M454.83,358.46c1.99,1.96,3.66,3.98,5.24,6.22,1.53,2.2,2.85,4.55,3.69,7.04-2.15-3.27-5.06-5.79-8.18-8.03-1.52-1.39-5.19-2.13-3.91-4.76.62-1.15,2.24-1.38,3.16-.46h0Z"/>
  <path class="st3" d="M315.85,355.87s-31.87,31.36-.04,49.08c30.46,16.95,48.19-26.98,46.62-33.24"/>
  <path class="st3" d="M411.06,370.48c-2.09,8.29,20.39,51.73,58.9,31.16,42.55-22.72,4.76-69.3,4.76-69.3"/>
  <path class="st3" d="M358.09,386.32l2.75,14.52h-3.62c-.73,0-1.33.57-1.35,1.3-.09,3.15.05,11.32,3.39,16.74,0,0-15.21,15.07-16.29,21.2-1.08,6.13-3.62,21.64,8.98,31.8"/>
  <path class="st5" d="M359.27,400.84s7.95,5.94,12.87,6.06c0,0,.79,14.42,2.02,17.67,0,0-10.69-1.31-14.89-5.69,0,0-5.56-15.5-2.78-17.82s2.78-.22,2.78-.22Z"/>
  <path class="st5" d="M447.91,413.45s25.58,1.58,51.15-20.67c0,0,2.45-3.85,2.98,9.28s-2.8,13.49-2.8,13.49c0,0-23.12,13.75-49.58,15.72l-2.73-17.61.98-.21Z"/>
  <path class="st3" d="M490.18,369.73s8.27,22,8.12,25.15"/>
  <path class="st3" d="M502.04,408.55s3.8,45.44-25.6,61.61"/>
  <path class="st20" d="M424.49,482c-14.84-7.69-21.62-20.52-5.83-31.93-2.44,2.23-4.67,4.76-6.1,7.66-5.17,9.75,5.39,17.51,13.5,20.59,0,0-1.56,3.68-1.56,3.68h0Z"/>
  <path class="st20" d="M409.83,462.57c-9.75-4.11-19.88-7.99-28.31-14.51,6.75,4.12,14.46,6.28,21.95,8.61,2.52.73,5.06,1.44,7.57,2.08l-1.22,3.81h0Z"/>
  <path class="st20" d="M353.58,472.84c6.9,4.3,13.91,8.95,21.81,11.21-6.23-.63-12.14-3.05-17.95-5.27-1.94-.78-3.85-1.58-5.79-2.44,0,0,1.93-3.5,1.93-3.5h0Z"/>
  <path class="st20" d="M426.05,483.54c7.61,2.88,15.39,6.08,23.57,6.76-6.23.59-12.5-.63-18.63-1.68-2.06-.39-4.09-.8-6.16-1.27l1.21-3.81h0Z"/>
  <path class="st3" d="M405.89,278.65"/>
  <path class="st20" d="M443.92,281.68c-15.69-7.45-32.41-12.36-48.47-3.03,12.49-14.79,36.35-9.68,48.47,3.03h0Z"/>
  <path class="st20" d="M434.94,275.37s13.86-48.73-16.82-54.56c0,0-33.01-3.11-22.42,48.85l1.46,7.31s12.27-5.1,20.62-4.36c8.35.74,17.16,2.75,17.16,2.75Z"/>
  <path class="st8" d="M343.18,237.84s-.4,11.61-10.8,18.46c0,0,10.2,6.75,10.96,16.17,0,0,.91-15.85,10.4-17.28,0,0-10.57-4.39-10.56-17.35Z"/>
  <path class="st8" d="M423.61,232.59s-.4,11.61-10.8,18.46c0,0,10.2,6.75,10.96,16.17,0,0,.91-15.85,10.4-17.28,0,0-10.57-4.39-10.56-17.35Z"/>
  <ellipse class="st12" cx="327.49" cy="248.82" rx="7.05" ry="3.87" transform="translate(9.8 510.05) rotate(-76.66)"/>
  <ellipse class="st12" cx="403.01" cy="248.82" rx="7.05" ry="3.87" transform="translate(67.9 583.53) rotate(-76.66)"/>
  <circle class="st12" cx="325.18" cy="265.58" r="3.92"/>
  <circle class="st12" cx="402.87" cy="265.58" r="3.92"/>
  <path class="st3" d="M341.6,356.16"/>
  <g>
    <g class="st18">
      <path class="st13" d="M495.64,249.91c.46,4.73,1.58,14.69,1.37,19.59-2.52,57.58-54.07,103.28-111.6,102.2-57.53-1.1-108.85-36.42-106.34-94,.07-1.66.21-14.01.36-15.64,4.81,50.89,53.3,89.25,105.94,90.25,55.88,1.06,105.26-47.15,110.27-102.39Z"/>
    </g>
    <g class="st18">
      <path class="st19" d="M481.5,219.48c12.32,12.14,19.19,33.54,18.57,55.22-.58,20.41-10.49,38.98-22.25,54.62-8.83,11.72-43.36,30.51-86.46,30.74-15.22.08-30.25-3.92-42.95-8.4,53-1.41,98.58-28.34,109.52-42.87,14.94-19.84,24.03-43.85,24.77-69.75.2-6.92-.22-13.44-1.19-19.56Z"/>
    </g>
  </g>
  <g class="st18">
    <path class="st13" d="M496.02,411.24s-17.05,10.5-65.18,13.24c-48.14,2.73-66.26-5.77-66.26-5.77-2.31-1.77-3.73-3.57-4.56-5.29-1.07,3.2-3.54,3.8,2.5,8.44,0,0,20.6,12.69,68.74,9.96,48.14-2.73,65.18-13.24,65.18-13.24,5.48-5.29,4.93-10.05,3.51-13.11-.62,1.8-1.83,3.75-3.93,5.77Z"/>
  </g>
  <path class="st6" d="M378.49,400.29c-3.91.34-6.8,3.8-6.54,7.71.55,8.27,2.85,30.91,11.53,32.73,10.64,2.23,48.35,2.23,51.9,1.05s12.35-6.31,13.14-9.46-2.5-25.09-2.5-25.09c0,0-9.2-.13-19.05-8.8l-48.09,1.84s-.15,0-.4.02Z"/>
  <path class="st3" d="M372.14,405.81s29.35,8.52,56.67,1.95c0,0,3.28-1.31,3.68-4.2"/>
  <path class="st3" d="M435.39,441.79s1.34-22.11-5.77-34.44"/>
  <circle class="st1" cx="417.72" cy="423.85" r="7.42"/>
  <path class="st10" d="M412.33,423.33s1.87,2.69,5.39,2.66,5.22-3.32,5.22-3.32c0,0,1.02,3.68-2.2,5.74-1.75,1.12-3.91,1.21-5.71.18-1.41-.8-2.78-2.34-2.7-5.27Z"/>
  <path class="st6" d="M355.59,351.09l6.59,20.21s-9,14.89-27.7,14.39c0,0-12.05-1.84-18.95-7.08l4.61-17.62"/>
  <g>
    <path class="st1" d="M332.58,367.61c-3.32-.13-6.5-1.42-8.95-3.68-8.36-7.73-27.04-27.66-17.1-43.6,0,0,2.63-4.45,3.33-1.13,0,0,5.78-14.36,12.09-4.73,0,0,3.51-5.25,9.5,1.05,6.66,7,22.38,23.82,26.29,42.08,0,0-3.68,10.87-25.16,10.01Z"/>
    <path class="st0" d="M309.87,319.2s3.25,15.9,7.76,23.45"/>
    <path class="st0" d="M321.96,313.98s3.25,15.9,7.76,23.45"/>
  </g>
  <path class="st6" d="M410.22,360.67l1.08,17.21s12.13,12.47,30.24,7.77c0,0,11.33-4.51,16.86-11.18l-8.46-16.12"/>
  <g>
    <path class="st1" d="M440.23,368.02c3.17-.57,6.03-2.28,8.11-4.73,7.95-9.38,26.48-34.48,13.08-50.89,0,0-3.52-4.54-3.83-.77,0,0-8.39-15.02-13.99-3.52,0,0-4.46-5.09-10.19,2.7-6.35,8.65-21.46,29.19-23.2,49.86,0,0,5.72,11.74,30.01,7.34Z"/>
    <path class="st0" d="M457.59,311.62s-1.35,17.99-5.26,26.94"/>
    <path class="st0" d="M443.52,307.56s-1.35,17.99-5.26,26.94"/>
  </g>
  <path class="st21" d="M363.65,205.74c.7,3.41-12.5,1.2-26.15,4.02-13.65,2.81-23.87,10.37-24.57,6.96-.7-3.41,8.93-11.89,22.58-14.7,13.65-2.81,27.43.31,28.14,3.72Z"/>
  <g class="st22">
    <path class="st12" d="M289.04,275.66s-1.41-27.71,6.05-34.55c7.46-6.83,28.39-19.86,28.2-19.09,0,0-21.85,16.3-25.82,27.02-3.06,8.26-8.44,26.61-8.44,26.61Z"/>
  </g>
  <path class="st10" d="M395.18,467.41s2.44,9.74,3.15,11.91c1.05,3.2-1.93,11.04-8.41,12.61s-29.22,5.78-34.34,6.48c0,0,7.14,1.25,15.88.92s22.27-4.53,22.27-4.53c0,0,4.49-.96,7.55-3.42,1.64-1.32,2.66-3.14,2.82-5.32,0,0-.07-4.6-1.58-7.36s-4.81-10.67-4.93-13.23l-2.43,1.93Z"/>
  <path class="st10" d="M473.36,473.93s1.73,7.24,2.63,9.34c1.33,3.09-.95,11.16-7.27,13.3s-28.82,7.92-33.86,9.07c0,0,4.29.96,12.96-.13s19.53-4.6,19.53-4.6c0,0,9.95-2.76,12.79-5.47,1.52-1.46,2.44-4.41,2.41-6.6,0,0-.4-4.01-2.15-6.63-.67-1-1.38-2.74-2.1-4.07-1.18-2.17-1.73-3.66-2.5-5.61l-2.45,1.4Z"/>
  <path class="st14" d="M491.1,422.67s-.57,20.56-16.58,35.01-44.76,21.64-44.76,21.64c0,0,16.6,2.15,32.24-4.82,3.57-1.59,5.63-2.13,7.82-3.15,7.39-3.45,8.54-4.73,8.54-4.73,0,0,10.97-6.64,16.36-21.68.83-2.32,1.9-4.27,2.5-6.44,3.26-11.89,2.89-21.22,2.89-21.22l-8.87,4.53-.13.85Z"/>
  <path class="st14" d="M366.54,402.77s3.07-19.38,2.63-22.87c0,0,30.39,4.72,37.14,0,0,0,9.55,15.43,12.26,17.62s5.87.44,5.87.44l-2.72-3.24-7.45-12.36-4.81-10.85-33.72,1.75-12.79-2.72-4.67,16.75,2.13,13.55,6.64,4.64-.51-2.71Z"/>
  <path class="st21" d="M392.68,205.74c-.7,3.41,12.5,1.2,26.15,4.02s23.87,10.37,24.57,6.96-8.93-11.89-22.58-14.7c-13.65-2.81-27.43.31-28.14,3.72Z"/>
</svg>