<?xml version="1.0" encoding="UTF-8"?>
<svg xmlns="http://www.w3.org/2000/svg" version="1.1" viewBox="0 0 841.89 595.28">
  <!-- Generator: Adobe Illustrator 29.4.0, SVG Export Plug-In . SVG Version: 2.1.0 Build 152)  -->
  <defs>
    <style>
      .st0 {
        fill: #292d5f;
      }

      .st1 {
        fill: #7c7c7c;
      }

      .st2 {
        fill: #e8481b;
      }

      .st3 {
        fill: #fdfffc;
      }

      .st4 {
        fill: #e84819;
      }

      .st5 {
        fill: #e9595c;
      }

      .st6 {
        fill: #b73718;
      }

      .st7 {
        fill: #fff;
      }

      .st8 {
        fill: #9b290e;
      }

      .st9 {
        fill: #1c1c1c;
      }

      .st10 {
        fill: #d5d5d5;
      }

      .st11 {
        fill: #161b17;
      }

      .st12 {
        fill: #f8e8aa;
      }

      .st13 {
        fill: #eec131;
      }

      .st14 {
        fill: #bebfc0;
      }

      .st15 {
        fill: #371b45;
      }

      .st16 {
        fill: #faa026;
      }

      .st17 {
        fill: #2594cd;
      }

      .st18 {
        fill: #fee67d;
      }

      .st19 {
        fill: #a33a3f;
      }

      .st20 {
        opacity: .56;
      }

      .st21 {
        opacity: .2;
      }

      .st22 {
        fill: #121a27;
      }

      .st23 {
        fill: #efefef;
      }

      .st24 {
        fill: #eec12f;
      }

      .st25 {
        fill: none;
        stroke: #000;
        stroke-miterlimit: 10;
        stroke-width: 4px;
      }

      .st26 {
        opacity: .35;
      }

      .st27 {
        display: none;
      }

      .st28 {
        fill: #e74817;
      }

      .st29 {
        fill: #9e270b;
      }

      .st30 {
        opacity: .7;
      }
    </style>
  </defs>
  <g id="Capa_1" class="st27">
    <path class="st7" d="M-202.18,243.24s22.61,24.39,52.41,27.04c29.8,2.65,58.21-10.33,58.21-10.33l.89-2.99s-6.44-2.83-7.68-4.75c-1.24-1.92-2.3.47-2.3.47,0,0-28.2,9.82-43.3,6.17-15.1-3.66-24.23-1.8-37.08-7.76-12.85-5.96-21.15-7.84-21.15-7.84Z"/>
    <g>
      <rect class="st1" x="-221.73" y="211.29" width="161.47" height="143.83" rx="21.17" ry="21.17" transform="translate(-35.25 -14.96) rotate(-6.94)"/>
      <g class="st26">
        <path class="st9" d="M-54.72,323.82l-2.53-20.78c-.34,10.25-8.1,19.01-18.6,20.29l-118.26,14.39c-11.61,1.41-22.16-6.85-23.57-18.46l-9.73-79.97c-.04,1.08,0,2.18.14,3.28l12.26,100.74c1.41,11.61,11.97,19.87,23.57,18.46l118.26-14.39c11.61-1.41,19.87-11.97,18.46-23.57Z"/>
      </g>
      <path class="st9" d="M-194.04,364.17c-5.2,0-10.22-1.72-14.38-4.98-4.92-3.85-8.05-9.39-8.8-15.59l-12.26-100.74c-.76-6.2.95-12.33,4.8-17.25,3.85-4.92,9.39-8.05,15.6-8.8l118.26-14.39c6.2-.75,12.33.95,17.25,4.8,4.92,3.85,8.05,9.39,8.8,15.6l12.26,100.74c.76,6.2-.95,12.33-4.8,17.25-3.85,4.92-9.39,8.05-15.6,8.8h0l-118.26,14.39c-.96.12-1.92.17-2.87.18ZM-87.96,206.69c-.77,0-1.55.05-2.33.14l-118.26,14.39c-5.02.61-9.51,3.14-12.63,7.13-3.12,3.98-4.5,8.94-3.89,13.97l12.26,100.74c.61,5.02,3.14,9.51,7.13,12.63,3.98,3.12,8.94,4.5,13.97,3.89l118.26-14.39c5.02-.61,9.51-3.14,12.63-7.13,3.12-3.98,4.5-8.94,3.89-13.97l-12.26-100.74c-.61-5.02-3.14-9.51-7.13-12.63-3.37-2.64-7.43-4.03-11.64-4.03ZM-73.18,347.39h0,0Z"/>
    </g>
    <g>
      <g>
        <path class="st10" d="M-23.8,291.05c-1.12,1.11-2.23,2.08-3.32,2.92-6.26,4.78-12.61,5.23-25.03,1.09-1.74-.58-3.34-1.09-4.82-1.54-10.97-3.37-15.08-3.47-15.08-3.47,3.58,15.46,1,39.38,1,39.38,10.59,16.89,16.89,51.84,16.89,51.84,0,0,7.34,10,10.45,20.79,2.66,9.21,2.24,18.99-8.45,23.6-23.2,10.02-43.24-23.05-43.24-23.05-18.9-20.41-31.65-45.39-31.65-45.39-3.58.86-8.73,1.14-8.73,1.14-5.3,9.02-7.21,26.92-7.21,26.92,0,0,19.81,14.32,23.54,28.07,3.72,13.75-23.77,54.13-52.12,45.53-9.81-2.97-13.86-8.97-14.96-15.54-2.08-12.4,6.36-26.85,6.36-26.85-45.53-34.94-18.33-78.11-18.33-78.11-7.08-21.7-5.87-43.03-5.87-43.03-13.03,3.29-26.7,10.16-26.7,10.16-10.54,10.79-23.13,7.16-27.26,5.55-1.14-.45-2.33-.79-3.52-1.08-13.73-3.33-15.39-9.54-13.79-14.76.68-2.21,1.94-4.25,3.11-5.81,1.42-1.88,2.71-3.08,2.71-3.08-3.49-1.86-4.72-4.02-3.88-6.62.69-2.19,2.84-4.68,6.31-7.56,7.59-6.3,19.45-4.01,19.45-4.01,15-15.75,52.01-34.37,52.01-34.37,47.79-7.16,82.94-7.34,108.63-3.52,10.38,1.54,19.23,3.74,26.74,6.39,12.18,4.29,20.86,9.78,26.93,15.63,2.85,2.75,5.14,5.57,6.94,8.39,8.76,13.72,6.11,27.22,2.89,30.39Z"/>
        <path class="st15" d="M-163.51,460.47c-2.64,0-5.38-.37-8.18-1.22-8.8-2.67-13.92-8-15.23-15.85-1.92-11.4,5.04-24.64,6.24-26.81-23.42-18.1-27.14-38.42-26.12-52.29,1.03-14.09,7.03-24.56,7.87-25.98-6.34-19.55-5.98-38.99-5.85-42.46-12.25,3.18-25.06,9.48-26.04,9.97-10.81,11.01-23.89,7.06-27.64,5.59-.99-.39-2.09-.73-3.47-1.07-6.97-1.69-11.51-4.29-13.47-7.74-1.26-2.21-1.46-4.74-.6-7.53.74-2.41,2.14-4.55,3.18-5.93.97-1.29,1.87-2.25,2.36-2.75-3.29-1.89-4.47-4.13-3.6-6.83.69-2.19,2.8-4.72,6.44-7.75,7.17-5.96,17.86-4.43,19.56-4.13,14.97-15.59,51.6-34.11,51.97-34.29.04-.02.08-.03.12-.04,43.77-6.55,80.35-7.74,108.75-3.52,9.94,1.48,18.96,3.63,26.81,6.41,11.26,3.96,20.36,9.25,27.08,15.72,2.74,2.64,5.1,5.49,7,8.47,8.67,13.58,6.45,27.33,2.83,30.89-1.13,1.11-2.26,2.11-3.36,2.95-6.47,4.94-13.12,5.24-25.4,1.15-1.61-.54-3.19-1.04-4.81-1.53-8.65-2.66-13.04-3.28-14.46-3.42,3.24,14.75,1.1,36.88.91,38.84,10.2,16.39,16.49,49.78,16.86,51.77.68.95,7.5,10.6,10.46,20.84,3.42,11.83.42,20.15-8.67,24.08-22.9,9.9-42.94-21.92-43.72-23.18-17.64-19.06-30.07-42.37-31.54-45.18-3.13.7-7.3,1-8.28,1.07-4.8,8.35-6.78,24.26-7.02,26.35,2.16,1.59,19.93,14.98,23.5,28.15,2.12,7.83-5.3,23.08-16.55,34-5.53,5.37-15.72,13.24-27.89,13.24ZM-204.37,294.94c.09,0,.18.03.25.09.1.08.15.2.14.33-.01.21-1.13,21.51,5.85,42.88.04.11.02.24-.04.34-.07.11-6.77,10.91-7.85,25.8-1,13.73,2.72,33.85,26.09,51.78.16.12.2.35.1.52-.08.14-8.35,14.47-6.31,26.58,1.26,7.53,6.19,12.65,14.68,15.22,15.32,4.64,28.69-5.42,35.29-11.83,10.87-10.55,18.35-25.76,16.33-33.22-3.64-13.45-23.19-27.7-23.38-27.85-.12-.08-.18-.22-.16-.37.02-.18,1.98-18.09,7.26-27.08.07-.12.19-.19.32-.2.05,0,5.16-.3,8.66-1.13.18-.05.37.04.45.21.13.25,12.94,25.17,31.59,45.3.02.02.03.04.05.06.2.33,20.13,32.66,42.74,22.89,8.79-3.8,11.56-11.58,8.22-23.12-3.06-10.59-10.32-20.56-10.39-20.66-.04-.05-.06-.11-.07-.17-.06-.35-6.41-35.06-16.84-51.69-.05-.08-.07-.17-.06-.26.03-.24,2.52-24.03-.99-39.25-.03-.12,0-.25.08-.34.08-.1.2-.14.32-.15.17,0,4.3.15,15.19,3.49,1.63.49,3.21,1,4.83,1.54,12.14,4.04,18.37,3.78,24.66-1.03,1.07-.83,2.18-1.8,3.28-2.89,0,0,0,0,0,0,3.37-3.31,5.38-16.86-2.94-29.89-1.86-2.92-4.18-5.72-6.88-8.32-6.63-6.39-15.64-11.62-26.79-15.54-7.81-2.76-16.78-4.9-26.66-6.37-28.3-4.2-64.79-3.02-108.45,3.51-1.66.84-37.33,19.02-51.84,34.26-.09.1-.24.14-.37.12-.12-.02-11.76-2.18-19.11,3.92-3.52,2.93-5.55,5.34-6.19,7.38-.78,2.43.39,4.38,3.69,6.14.11.06.19.17.21.3.02.13-.03.26-.12.34-.01.01-1.28,1.2-2.66,3.03-1,1.33-2.34,3.39-3.05,5.68-.79,2.57-.61,4.89.54,6.89,1.85,3.25,6.21,5.72,12.96,7.36,1.41.35,2.54.7,3.57,1.1,3.65,1.43,16.36,5.26,26.83-5.45.03-.03.07-.06.11-.08.14-.07,13.86-6.93,26.79-10.19.03,0,.07-.01.1-.01Z"/>
      </g>
      <path class="st7" d="M-233.25,253.99s.74,15.89,5.17,26.49,10.78,19.07,10.78,19.07l-13.76,5.96s-2.79,8.52-21.06,8.37l-8.33-3.54-10.61-3.77-4.66-5.66.1-5.7,5.82-8.89-2.23-3.12-.89-4.97,5.29-6.4,12.72-3.26s.82,1.25,8.77-1.67c7.95-2.91,12.9-12.91,12.9-12.91Z"/>
      <g class="st26">
        <path class="st9" d="M-205.87,239.06s24.07,62.16,109.17,30.52c3.58-1.33,7.65-.85,10.66,1.5,1.23.96,3.01,1.95,5.57,2.85,9.13,3.22,11.06,12.67,26.1,13.96,0,0-15.85-14.17-21.89-27.71,0,0-8.18-.64-14.41-3.22,0,0-64.58,42.17-115.2-17.9Z"/>
      </g>
      <path class="st17" d="M-111.9,380.86s18.14,1.59,31.78-6.22c13.64-7.81,19.11-19.8,19.11-19.8,0,0,5.86,18.73,6.45,26.5,0,0,7.94,6.53,10.85,20.72,2.91,14.19-.52,18.01-.52,18.01,0,0-6.49,10.33-21.85,7.55s-24.1-18.14-24.1-18.14l-10.46-10.73-11.26-17.88Z"/>
      <path class="st17" d="M-204.35,388.33s11.41,9.42,27.7,9.55c16.29.13,32.5-10.49,32.5-10.49,0,0,23.28,17.39,24.16,27.64.88,10.25-12.85,30.11-12.85,30.11,0,0-18.76,18.63-29.9,18.03s-22.13-6.88-23.57-15.1,5.3-28.87,5.3-28.87c0,0-23.96-25.47-23.33-30.87Z"/>
      <g class="st26">
        <path class="st9" d="M-52.15,425.65c-23.2,10.02-43.24-23.05-43.24-23.05-18.9-20.41-31.65-45.39-31.65-45.39-3.58.86-8.73,1.14-8.73,1.14-5.3,9.02-7.21,26.92-7.21,26.92,0,0,19.81,14.32,23.54,28.07,3.72,13.75-23.77,54.13-52.12,45.53-9.81-2.97-13.86-8.97-14.96-15.54.29.36,12.22,15.18,33.85,6.66,7.41-2.92,12.75-7.77,16.56-12.9,8.7-11.72,6.74-28.2-4.32-37.73-3.21-2.76-7.16-5.78-12.03-8.97,0,0,.37-12.57,5.1-25.88,0,0-13.16-3.86-16.19-14.17-.41-1.38.83-2.68,2.22-2.31,7.22,1.92,27.86,5.75,55.4-3.34,1.56-.51,2.95,1.14,2.18,2.59-1.94,3.64-5.64,9.14-11.96,13.65,0,0,7.66,19.43,25.49,38.18,0,0,37.73,41.74,46.54,2.95,2.66,9.21,2.24,18.99-8.45,23.6Z"/>
      </g>
      <g class="st26">
        <path class="st9" d="M-202.42,320.4s4.07,2.06,8.27,3.39c2.46.78,4.14,3.07,4.13,5.66-.03,5.35,1.44,13.65,10.54,15.29,0,0,49.93,5.62,85.54-1.49,5.4-1.08,9.29-5.8,9.29-11.3v-.76c0-3.88,2.48-7.31,6.17-8.53,2.36-.78,5.17-1.81,8.04-3.11l-.16-7.07s-48.97,21.58-132.82,1.08l1.01,6.85Z"/>
      </g>
      <g class="st26">
        <path class="st9" d="M-203.43,271.43c-.63,12.32-.94,23.92-.94,23.92-13.03,3.29-26.7,10.16-26.7,10.16-10.54,10.79-23.13,7.16-27.26,5.55-1.14-.45-2.33-.79-3.52-1.08-13.73-3.33-15.39-9.54-13.79-14.76,3.73,6.51,9.94,7.69,13.78,7.73,2.22.02,4.42.41,6.53,1.11,8.08,2.7,14.78-1.28,18.18-4.04,2.15-1.74,4.53-3.16,7.07-4.23l8.85-3.74c3.62-1.53,6.57-4.38,8.09-8.01,3.57-8.54,9.71-12.59,9.71-12.59Z"/>
      </g>
      <g class="st26">
        <path class="st9" d="M-248.62,289.74c-3.51-2.32-7.16-.91-7.16-.91-11.6,3.72-16.69.57-16.69.57h-.05c1.42-1.88,2.71-3.07,2.71-3.07-3.49-1.86-4.72-4.02-3.88-6.62,4.61,2.15,11.93-.1,17.49.82,8.23,1.36,7.58,9.22,7.58,9.22Z"/>
      </g>
      <g>
        <path class="st9" d="M-206.59,295.41c-.04-2.08.02-4.09.15-6.12.11-2.03.3-4.05.55-6.07.26-2.02.56-4.03.98-6.02.42-1.99.99-3.97,1.74-5.88.11-.28.42-.42.7-.31.21.08.34.29.34.5h0c0,2.03-.05,4.02-.1,6-.03,1.98-.11,3.96-.1,5.93,0,1.98,0,3.95.03,5.93l.15,5.89v.05c.03,1.23-.94,2.25-2.17,2.28-1.23.03-2.25-.94-2.28-2.17h0Z"/>
        <path class="st9" d="M-269.34,284.14c.27.04.72.09,1.09.13.4.04.8.07,1.2.1.81.05,1.62.06,2.44.05,1.64-.03,3.28-.16,4.9-.43l1.29-.24c.52-.09,1.06-.15,1.59-.16,1.07-.03,2.15.08,3.2.39.52.16,1.03.36,1.5.63.46.26.89.54,1.29.88.8.67,1.48,1.51,1.86,2.46.18.45-.04.96-.48,1.14-.26.11-.54.08-.77-.06l-.06-.04c-.72-.43-1.39-.77-2.09-1.03-.35-.12-.7-.25-1.06-.34-.34-.08-.67-.16-1.01-.21-.68-.1-1.38-.1-2.07.01-.35.05-.69.14-1.03.23l-1.3.36c-1.83.49-3.72.76-5.62.86-.95.05-1.9.05-2.86,0-.48-.03-.96-.07-1.44-.13-.24-.03-.48-.06-.73-.11-.26-.04-.47-.08-.8-.15-1.2-.26-1.96-1.45-1.7-2.65.25-1.16,1.37-1.91,2.53-1.72l.12.02Z"/>
        <path class="st9" d="M-71.85,292.26c-.57.12-1.3.18-1.96.23-.68.05-1.37.09-2.07.12l-2.13.12-2.22.16h-.02c-.29.02-.54-.19-.56-.48-.01-.14.04-.28.13-.38.53-.61,1.14-1.17,1.79-1.64.65-.47,1.34-.89,2.06-1.24.71-.36,1.45-.66,2.21-.89.77-.23,1.5-.4,2.38-.44,1.23-.05,2.27.9,2.32,2.13.05,1.11-.72,2.07-1.78,2.28l-.13.03Z"/>
        <path class="st9" d="M-217.15,301.7c-.67,0-1.33-.3-1.77-.87-18.63-24.32-14.51-45.92-14.33-46.83.25-1.21,1.43-1.98,2.63-1.74,1.2.24,1.98,1.42,1.74,2.62h0c-.04.2-3.84,20.61,13.5,43.24.75.98.56,2.37-.41,3.12-.4.31-.88.46-1.35.46Z"/>
        <path class="st9" d="M-127.42,355.01l.82-.2c.32-.08.65-.17.98-.27l2-.61c1.35-.42,2.7-.85,4.06-1.29,2.73-.87,5.45-1.83,8.36-2.4h0c.36-.07.72.16.79.53.05.26-.05.51-.24.66-1.17.92-2.39,1.74-3.65,2.49-1.26.75-2.56,1.43-3.86,2.1-1.31.66-2.64,1.29-4.01,1.87-.69.28-1.38.57-2.1.82-.36.13-.72.25-1.1.37-.19.06-.38.12-.58.17l-.31.08-.17.04-.23.05c-1.2.25-2.38-.53-2.63-1.73-.24-1.17.49-2.32,1.64-2.6l.23-.06Z"/>
        <path class="st9" d="M-135.49,360.56c-.59.06-1.07.11-1.59.12-.51.02-1.02.03-1.52.02-1.01,0-2.01-.06-3.01-.15-2-.2-3.98-.57-5.92-1.11-1.94-.53-3.83-1.29-5.6-2.24-1.77-.95-3.36-2.25-4.67-3.75-.15-.18-.14-.44.04-.6.12-.11.29-.13.43-.08h.03c1.81.71,3.47,1.44,5.24,1.94,1.74.52,3.49.99,5.29,1.21,1.79.26,3.6.4,5.4.43.9.01,1.81,0,2.7-.03.45-.02.9-.04,1.34-.08.43-.04.91-.07,1.26-.11h.07c1.22-.15,2.33.72,2.48,1.94.15,1.22-.73,2.33-1.95,2.48h-.02Z"/>
        <path class="st9" d="M-175.4,397.73c-10.96,0-21.12-3.62-29.87-10.74-.95-.78-1.1-2.18-.32-3.13.78-.95,2.18-1.1,3.13-.32,11.15,9.07,24.27,11.84,38.99,8.25,11.16-2.73,19.11-8.28,19.19-8.34,1-.71,2.39-.47,3.1.53s.47,2.39-.53,3.1c-.35.25-8.61,6.04-20.56,8.99-4.48,1.11-8.87,1.65-13.14,1.65Z"/>
        <path class="st9" d="M-104.79,383.15c-5.24,0-8.65-.82-8.87-.87-1.19-.29-1.92-1.5-1.63-2.7.29-1.19,1.5-1.92,2.69-1.63.09.02,7.84,1.85,17.81-.34,13.3-2.92,24.08-11.24,32.06-24.73.63-1.06,1.99-1.41,3.05-.78,1.06.63,1.41,1.99.78,3.05-10.8,18.28-25.08,24.7-35.15,26.86-4.02.86-7.69,1.14-10.74,1.14Z"/>
        <path class="st9" d="M-178.65,414.85l.42.32c.16.12.34.24.51.36.35.24.72.47,1.09.7.75.45,1.53.87,2.33,1.25,1.6.76,3.28,1.39,4.99,1.91,3.45.99,7.07,1.49,10.73,1.56,3.58.07,7.12-.56,10.31-2.02,3.16-1.5,6.09-3.67,8.51-6.53l.04-.04c.17-.2.46-.22.66-.05.14.12.19.3.15.47-.5,2.04-1.57,3.82-2.9,5.4-1.34,1.58-2.97,2.93-4.79,3.97-3.67,2-7.84,3.06-11.94,3.13-4.02.13-8.11-.3-12.06-1.4-1.97-.56-3.9-1.29-5.75-2.21-.47-.22-.93-.46-1.37-.73-.46-.25-.9-.53-1.34-.81-.44-.28-.88-.58-1.3-.91-.21-.16-.43-.32-.64-.5-.22-.18-.4-.33-.69-.6-.9-.83-.96-2.24-.12-3.14.78-.85,2.07-.95,2.97-.26l.19.14Z"/>
        <path class="st9" d="M-51.93,381.25c0,.38-.02.6-.04.88-.02.27-.05.53-.08.79-.06.52-.16,1.02-.26,1.53-.22,1-.52,1.98-.89,2.94-.73,1.91-1.79,3.71-3.1,5.28-1.31,1.58-2.88,2.93-4.58,4.01-1.7,1.08-3.54,1.88-5.4,2.5-3.75,1.14-7.59,1.58-11.34,1.43-3.76-.15-7.44-.79-10.96-1.92-.21-.07-.32-.29-.25-.49.05-.16.2-.27.36-.27h0c3.67-.07,7.26-.07,10.78-.36.88-.05,1.75-.18,2.62-.27.86-.13,1.73-.25,2.57-.41,1.7-.33,3.34-.82,4.91-1.4,3.12-1.23,5.89-3.09,7.84-5.6.98-1.24,1.76-2.64,2.34-4.12.28-.74.52-1.5.69-2.28.08-.39.15-.78.21-1.16.03-.19.06-.38.07-.57.02-.17.03-.4.04-.48l.02-.21c.1-1.22,1.17-2.14,2.39-2.04,1.17.09,2.05,1.08,2.05,2.23Z"/>
      </g>
      <path class="st9" d="M-163.49,462.31c-2.81,0-5.73-.4-8.73-1.3-7.72-2.34-12.87-6.67-15.3-12.87-4.54-11.58,1.96-26.1,4.5-31.05-22.97-18.36-26.64-38.84-25.61-52.92.96-13.18,6.02-23.08,7.71-26.06-5.34-16.91-5.82-33.21-5.75-39.83-10.64,3.08-21.12,8.11-23.07,9.06-11.55,11.53-25.4,7.35-29.4,5.79-.93-.36-1.95-.68-3.23-.99-9.03-2.19-14.3-5.93-15.65-11.13-1.49-5.71,2.32-11.35,4.79-14.28-1.74-1.42-2.72-3.05-2.9-4.88-.35-3.39,1.92-6.92,7.34-11.42,6.89-5.72,16.65-5.1,20.07-4.67,15.54-15.65,50.31-33.23,51.81-33.98.21-.11.44-.18.67-.21,127.75-19.14,163.64,11.71,173.66,31.81,6.38,12.79,4.26,25.42.35,29.26-8.48,8.33-15.92,9.43-30.62,4.53-8.28-2.76-13.51-3.97-16.4-4.5,2.43,14.01.88,32.23.49,36.22,9.89,16.34,15.87,47.01,16.71,51.47,2.23,3.14,15.01,22.04,11.26,35.87-1.41,5.21-4.94,9.07-10.47,11.45-3.41,1.47-6.74,2.11-9.95,2.11-19.37,0-34.33-23.21-35.97-25.86-16.16-17.49-27.96-38.49-31.05-44.23-2.29.42-4.75.65-6.19.76-3.83,7.36-5.69,19.81-6.21,23.77,4.29,3.27,19.9,15.88,23.32,28.5,2.28,8.41-5.37,24.46-17.04,35.79-5.75,5.59-16.37,13.77-29.15,13.77ZM-204.37,293.11c.51,0,1.01.18,1.42.51.55.45.85,1.14.81,1.84-.01.21-1.1,21.2,5.76,42.21.21.63.12,1.32-.23,1.88-.06.1-6.58,10.64-7.59,25.11-1.35,19.25,7.2,36.09,25.39,50.05.89.68,1.13,1.92.57,2.89-.1.17-9.8,17.03-5.13,28.91,1.91,4.86,6.1,8.3,12.44,10.22,14.42,4.37,27.17-5.26,33.49-11.4,11.36-11.03,17.47-25.41,15.84-31.43-3.47-12.82-22.5-26.7-22.69-26.84-.65-.47-.99-1.25-.91-2.04.08-.75,2.03-18.48,7.51-27.81.38-.64,1.05-1.05,1.8-1.1.05,0,5-.29,8.34-1.09,1-.24,2.04.24,2.5,1.15.13.25,12.83,24.96,31.3,44.89.1.11.19.23.27.36.19.31,19.32,31.3,40.46,22.17,4.28-1.85,6.88-4.64,7.93-8.53,3.47-12.75-10.71-32.31-10.85-32.5-.2-.27-.34-.59-.4-.92-.06-.35-6.35-34.72-16.59-51.05-.27-.42-.38-.92-.33-1.42.03-.24,2.49-23.73-.96-38.64-.16-.67,0-1.38.45-1.91.44-.53,1.1-.83,1.78-.82.23,0,5.8.21,20.55,5.13,14.5,4.83,19.56,2.93,26.09-3.49,2-1.96,4.65-12.34-1.21-24.09-4.66-9.34-16-22.01-43.61-29.37-29.9-7.97-71.97-8-125.05-.07-3.62,1.85-37.25,19.22-51.09,33.75-.52.55-1.29.8-2.04.65-.11-.02-10.93-2-17.6,3.54-5.23,4.35-5.85,6.59-5.76,7.54.12,1.21,1.67,2.28,2.95,2.96.64.34,1.07.97,1.16,1.68.09.71-.17,1.43-.7,1.92-1.91,1.78-6.6,7.4-5.41,11.94,1.14,4.34,7.36,6.7,12.39,7.92,1.47.36,2.68.73,3.8,1.17,4.33,1.7,15.43,4.61,24.86-5.03.17-.18.37-.32.59-.43.57-.28,14.04-7.02,27.15-10.34.18-.05.36-.07.54-.07Z"/>
    </g>
    <g>
      <path class="st7" d="M-137.6,325.08c48.22,0,65.83-9.52,65.83-9.52,9.94-8.57,1.94-16.56,1.94-16.56-23.84,12.6-67.77,11.55-67.77,11.55,0,0-43.93,1.05-67.77-11.55,0,0-8,8,1.94,16.56,0,0,17.61,9.52,65.83,9.52Z"/>
      <g class="st26">
        <path class="st9" d="M-71.77,308.2s-17.61,9.52-65.83,9.52-65.83-9.52-65.83-9.52c-2.21-1.9-3.53-3.77-4.25-5.54-1.25,3.14-1.52,7.91,4.25,12.89,0,0,17.61,9.52,65.83,9.52s65.83-9.52,65.83-9.52c5.77-4.97,5.5-9.75,4.25-12.89-.72,1.76-2.04,3.64-4.25,5.54Z"/>
      </g>
      <path class="st9" d="M-137.6,327.3c-48.23,0-66.15-9.39-66.89-9.79-.14-.08-.27-.17-.39-.27-3.68-3.17-5.61-6.68-5.75-10.44-.2-5.43,3.53-9.23,3.69-9.39.69-.69,1.75-.85,2.62-.39,23.05,12.18,66.24,11.3,66.68,11.29.04,0,.07,0,.11,0,.44,0,43.63.89,66.68-11.29.86-.46,1.92-.3,2.62.39.16.16,3.89,3.95,3.69,9.39-.14,3.76-2.07,7.27-5.75,10.44-.12.1-.25.2-.39.27-.74.4-18.66,9.79-66.89,9.79ZM-202.18,313.69c2.04.98,20.32,9.16,64.58,9.16s62.51-8.16,64.58-9.16c2.55-2.26,3.9-4.62,4-7.01.09-2.03-.74-3.77-1.44-4.87-24.14,11.74-64.73,11.01-67.14,10.96-2.41.05-43,.78-67.14-10.96-.7,1.1-1.53,2.84-1.44,4.87.1,2.4,1.45,4.75,4,7.01Z"/>
    </g>
    <g>
      <path class="st7" d="M-137.94,343.31c21.21,0,33.03-1.13,39.25-2.09,3.62-.56,6.38-3.56,6.61-7.22,1.25-19.65,0-31.88-1.3-38.73-.76-4.01-4.45-6.77-8.52-6.35-15.82,1.65-35.88,1.98-35.88,1.98,0,0-20.06-.33-35.88-1.98-4.06-.42-7.76,2.33-8.52,6.35-1.29,6.85-2.55,19.08-1.3,38.73.23,3.66,2.99,6.66,6.61,7.22,6.23.96,18.04,2.09,39.25,2.09"/>
      <g>
        <g class="st26">
          <path class="st9" d="M-137.6,343.31c-.06,0-.11,0-.17,0s-.11,0-.17,0h.35Z"/>
        </g>
        <g class="st26">
          <path class="st9" d="M-93.38,295.27c-.54-2.84-2.55-5.05-5.13-5.95.48.75.83,1.61,1.01,2.53,1.17,6.21,2.32,17.31,1.18,35.14-.21,3.32-2.71,6.04-6,6.55-5.63.87-16.31,1.89-35.46,1.9.05,0,.1,0,.16,0h-.31c.05,0,.1,0,.16,0-19.15,0-29.82-1.02-35.46-1.9-3.29-.51-5.79-3.23-6-6.55-1.14-17.83,0-28.93,1.18-35.14.18-.93.53-1.78,1.01-2.53-2.57.9-4.59,3.11-5.13,5.95-1.29,6.85-2.55,19.08-1.3,38.73.23,3.66,2.99,6.66,6.61,7.22,6.21.96,17.98,2.08,39.08,2.09,21.1,0,32.87-1.13,39.08-2.09,3.62-.56,6.38-3.56,6.61-7.22,1.25-19.65,0-31.88-1.3-38.73Z"/>
        </g>
      </g>
      <path class="st9" d="M-137.6,301.22c-24.8,0-40.08-2.28-44.2-6.61-1.08-1.14-1.21-2.16-1.18-2.67.06-1.23,1.11-2.18,2.33-2.12,1.01.05,1.83.76,2.06,1.7.61.7,5.91,5.24,40.99,5.24s40.38-4.54,40.99-5.24c.23-.94,1.05-1.65,2.06-1.7,1.22-.07,2.27.89,2.33,2.12.02.51-.1,1.53-1.18,2.67-4.12,4.32-19.4,6.61-44.2,6.61ZM-96.67,292.16s0,0,0,0c0,0,0,0,0,0ZM-178.53,292.15s0,0,0,0c0,0,0,0,0,0ZM-96.67,292.15h0s0,0,0,0ZM-178.53,292.15h0s0,0,0,0ZM-96.67,292.15h0s0,0,0,0ZM-178.53,292.15h0s0,0,0,0Z"/>
      <path class="st9" d="M-155.39,345.23c-1.23,0-2.23-1-2.23-2.23v-15.68l-8.11-8.28c-.41-.42-.64-.98-.64-1.56v-19.75c0-1.23,1-2.23,2.23-2.23s2.23,1,2.23,2.23v18.84l8.11,8.28c.41.42.64.98.64,1.56v16.59c0,1.23-1,2.23-2.23,2.23Z"/>
      <path class="st9" d="M-137.6,345.54h-.37c-21.19-.01-33.02-1.16-39.23-2.12-4.63-.72-8.2-4.62-8.5-9.28-1.27-19.92.03-32.36,1.33-39.28.98-5.2,5.68-8.7,10.94-8.15,15.22,1.59,34.67,1.95,35.64,1.97.97-.02,20.43-.38,35.64-1.97,5.26-.55,9.96,2.95,10.94,8.15,1.31,6.93,2.6,19.37,1.34,39.28-.3,4.66-3.87,8.57-8.5,9.28-6.2.96-18.03,2.1-39.23,2.12h-.02ZM-174.48,291.11c-2.68,0-4.99,1.88-5.5,4.58-1.26,6.68-2.51,18.72-1.27,38.17.16,2.59,2.15,4.76,4.73,5.16,6.07.94,17.71,2.06,38.74,2.06,21.03,0,32.67-1.13,38.74-2.06,2.58-.4,4.57-2.57,4.73-5.16,1.24-19.45,0-31.5-1.27-38.17-.55-2.9-3.17-4.86-6.1-4.55-15.73,1.64-35.87,1.99-36.07,1.99h-.07c-.2,0-20.34-.35-36.07-1.99-.2-.02-.4-.03-.6-.03Z"/>
    </g>
    <g>
      <path class="st9" d="M-121.17,329.81c-5.93,0-10.75-4.82-10.75-10.75s4.82-10.75,10.75-10.75,10.75,4.82,10.75,10.75-4.82,10.75-10.75,10.75ZM-121.17,312.77c-3.47,0-6.29,2.82-6.29,6.29s2.82,6.29,6.29,6.29,6.29-2.82,6.29-6.29-2.82-6.29-6.29-6.29Z"/>
      <circle class="st17" cx="-121.17" cy="322.4" r="8.52"/>
      <g class="st26">
        <path class="st15" d="M-121.17,324.24c-3.52,0-6.54-2.13-7.84-5.18-.44,1.03-.68,2.16-.68,3.34,0,4.71,3.81,8.52,8.52,8.52s8.52-3.81,8.52-8.52c0-1.19-.24-2.32-.68-3.34-1.3,3.04-4.32,5.18-7.84,5.18Z"/>
      </g>
      <path class="st9" d="M-121.17,333.15c-5.93,0-10.75-4.82-10.75-10.75s4.82-10.75,10.75-10.75,10.75,4.82,10.75,10.75-4.82,10.75-10.75,10.75ZM-121.17,316.11c-3.47,0-6.29,2.82-6.29,6.29s2.82,6.29,6.29,6.29,6.29-2.82,6.29-6.29-2.82-6.29-6.29-6.29Z"/>
    </g>
    <g>
      <path class="st7" d="M-46.34,203.17h0c-1.05.04-1.93-.77-1.97-1.82l-2.17-54.71c-.04-1.05.77-1.93,1.82-1.97h0c11-.44,20.28,8.13,20.72,19.13l.74,18.65c.44,11-8.13,20.28-19.13,20.72Z"/>
      <path class="st15" d="M-46.41,203.57c-.58,0-1.13-.22-1.56-.61-.45-.42-.71-.99-.74-1.6l-2.17-54.7c-.02-.61.19-1.2.61-1.65.42-.45.99-.71,1.6-.74,5.43-.21,10.62,1.7,14.61,5.38,3.99,3.69,6.31,8.71,6.52,14.14l.74,18.65c.44,11.21-8.31,20.69-19.52,21.13h0s-.06,0-.09,0ZM-46.34,203.17h0,0ZM-47.85,145.05c-.26,0-.53,0-.79.02-.4.02-.77.19-1.04.48-.27.29-.41.68-.4,1.08l2.17,54.7c.02.4.19.77.48,1.04.29.27.67.41,1.08.4h0c10.77-.43,19.18-9.53,18.75-20.3l-.74-18.65c-.21-5.22-2.43-10.04-6.27-13.58-3.64-3.36-8.31-5.19-13.24-5.19Z"/>
    </g>
    <path class="st9" d="M-46.42,205.4c-1.04,0-2.03-.39-2.8-1.1-.81-.75-1.28-1.77-1.32-2.87l-2.17-54.7c-.04-1.1.34-2.15,1.09-2.97.75-.81,1.77-1.28,2.87-1.32,5.91-.23,11.57,1.85,15.92,5.87,4.35,4.02,6.87,9.49,7.11,15.41l.74,18.65c.48,12.21-9.06,22.54-21.27,23.03h0c-.06,0-.11,0-.17,0ZM-46.34,203.17h0,0ZM-48.24,146.88l2.15,54.05c9.6-.56,17.05-8.74,16.67-18.39l-.74-18.65c-.19-4.73-2.2-9.1-5.68-12.31-3.4-3.14-7.8-4.79-12.39-4.7Z"/>
    <g>
      <path class="st7" d="M-229.23,151.83h0c1.05-.04,1.93.77,1.97,1.82l2.17,54.71c.04,1.05-.77,1.93-1.82,1.97h0c-11,.44-20.28-8.13-20.72-19.13l-.74-18.65c-.44-11,8.13-20.28,19.13-20.72Z"/>
      <path class="st15" d="M-227.72,210.75c-5.13,0-9.99-1.9-13.78-5.4-3.99-3.69-6.31-8.71-6.52-14.14l-.74-18.65c-.44-11.21,8.31-20.69,19.52-21.13h0c.62-.02,1.2.19,1.65.61.45.42.71.99.74,1.6l2.17,54.7c.02.61-.19,1.2-.61,1.65-.42.45-.99.71-1.6.74-.28.01-.55.02-.83.02ZM-229.21,152.23c-10.77.43-19.18,9.53-18.75,20.3l.74,18.65c.21,5.22,2.43,10.04,6.27,13.58,3.83,3.54,8.81,5.38,14.03,5.17.4-.02.77-.19,1.04-.48.27-.29.41-.68.4-1.08l-2.17-54.71c-.02-.4-.19-.77-.48-1.04-.29-.27-.68-.41-1.08-.4h0Z"/>
    </g>
    <path class="st9" d="M-227.72,212.58c-5.59,0-10.89-2.07-15.02-5.88-4.35-4.02-6.87-9.49-7.11-15.41l-.74-18.65c-.48-12.21,9.06-22.54,21.27-23.03h0c1.11-.04,2.15.34,2.96,1.09.81.75,1.28,1.77,1.32,2.87l2.17,54.7c.04,1.1-.34,2.16-1.09,2.97-.75.81-1.77,1.28-2.87,1.32-.3.01-.6.02-.9.02ZM-229.47,154.08c-9.6.56-17.05,8.74-16.67,18.39l.74,18.65c.19,4.73,2.2,9.1,5.68,12.31,3.4,3.14,7.8,4.8,12.39,4.7l-2.15-54.05Z"/>
    <g class="st30">
      <ellipse class="st7" cx="-74.92" cy="175.76" rx="16.51" ry="11.96" transform="translate(-232.78 68.13) rotate(-78.8)"/>
    </g>
    <g class="st30">
      <ellipse class="st7" cx="-99.42" cy="193.06" rx="7.58" ry="6.5" transform="translate(-249.2 35.83) rotate(-70.86)"/>
    </g>
    <g class="st30">
      <path class="st7" d="M-209.95,208.88s-14.19-47.9,11.8-66.47c25.99-18.57,62.94-17.9,62.04-15.54,0,0-41.07,9.24-57.6,41.32-12.75,24.74-16.24,40.69-16.24,40.69Z"/>
    </g>
    <path class="st17" d="M-179.79,258.2s-52.78-17.01-50.7-66.98,34.34-69.46,34.34-69.46c0,0,19.38-18.58,49.11-20.57,0,0-38.3-4.53-40.43-22.48,0,0,16.87-7.97,32.57,2.16,0,0-17.86-21.52-18.6-30.67,0,0,24.34-4.04,36.75,21.66,0,0-5.7-23.7-1.11-24.89,4.59-1.19,25.95-5.09,29.58,54.14,0,0,29.54,5.48,47.7,34.58,18.87,30.22,13.95,69.2-10.24,95.48-13.12,14.25-31.78,27.93-56.46,30.93"/>
    <path class="st9" d="M-127.02,264.06l-.49-3.94c20.42-2.48,39-12.68,55.22-30.3,23.9-25.97,28.02-64.25,10.01-93.1-17.45-27.96-46.08-33.62-46.36-33.67l-1.53-.29-.1-1.54c-2.06-33.53-9.82-45.82-15.96-50.23-3.33-2.39-7.01-3.11-10.92-2.16-1.2,1.83-.12,12.21,2.36,22.56l4.35,18.11-8.1-16.79c-9.57-19.81-26.67-20.97-32.56-20.73,2.25,7.77,13.31,22.26,17.76,27.63l8.27,9.97-10.92-7.05c-12.01-7.76-24.99-4.12-29.21-2.59,3.85,15,38.05,19.23,38.4,19.28l-.11,3.95c-28.67,1.91-47.66,19.83-47.85,20.01l-.35.27c-.31.19-31.38,19.61-33.39,67.85-1.99,47.85,48.81,64.85,49.32,65.01l-1.24,3.78c-.54-.17-54.2-18.06-52.08-68.95,2.04-49,32.14-69.09,35.11-70.96,1.77-1.65,16.01-14.4,38.25-19.27-11.96-2.97-28.84-9.36-30.33-21.97l-.17-1.41,1.3-.61c.61-.29,12.93-5.96,26.59-1.5-5.5-7.3-13.24-18.61-13.76-25.06l-.15-1.82,1.81-.3c.23-.04,19.39-2.97,32.95,13.4-1.61-10.17-.77-15.73,2.52-16.59,5.13-1.33,10.14-.39,14.48,2.73,9.78,7.02,15.67,24.41,17.51,51.72,6.44,1.57,31.24,9.1,47.5,35.14,18.95,30.35,14.64,70.59-10.46,97.87-16.88,18.34-36.29,28.96-57.69,31.56Z"/>
    <ellipse class="st7" cx="-105" cy="184.93" rx="26.02" ry="37.36" transform="translate(-8.34 -4.49) rotate(-2.55)"/>
    <ellipse class="st7" cx="-189.21" cy="191.04" rx="26.02" ry="37.36" transform="translate(-8.7 -8.24) rotate(-2.55)"/>
    <path class="st9" d="M-169.27,192.23c-1.09-10.44-3.78-17.55-9.4-23.11-8.63-8.53-19.94-6.96-26.16,3.47-7.21,12.11-5.2,31.02,4.4,41.35,8.21,8.83,19.27,8.11,26.05-1.84,4.54-6.65,5.66-14.27,5.1-19.87Z"/>
    <path class="st3" d="M-209.32,175.08c.66,6,4.4,10.31,8.67,10,4.19-.31,7.1-5.33,6.6-11.37-.51-6.16-4.36-10.76-8.67-10.38-4.33.39-7.27,5.62-6.6,11.75Z"/>
    <path class="st9" d="M-124.68,188.24c-.48-10.49,1.13-17.91,5.86-24.24,7.27-9.71,18.69-9.83,26.38-.42,8.93,10.91,9.75,29.91,1.79,41.54-6.81,9.95-17.85,10.86-26.04,2.02-5.47-5.91-7.72-13.28-8-18.9Z"/>
    <path class="st3" d="M-108.18,172.26c.24,6.04-2.82,10.85-7.09,11.17-4.19.31-7.82-4.22-8.21-10.28-.41-6.17,2.71-11.29,7.04-11.54,4.34-.26,8.03,4.49,8.27,10.65Z"/>
    <path class="st0" d="M-131.79,264.38c-21.99.98-47.26-4.01-48.4-4.23l.8-3.89c.29.06,29.64,5.84,51.95,3.86l.36,3.95c-1.54.14-3.12.24-4.7.31Z"/>
    <path class="st10" d="M-222.85,150.31s13.23-34.83,70.17-36.15c56.94-1.32,74.82,11.51,74.82,11.51,0,0,26.56,18.94,27.78,24.11s-4.33-17.08-15.6-31.51c-11.27-14.43-37.71-31.4-49.13-31.25-11.42.15-23.97-8.74-49.26,1.19s-32.97,16.82-32.97,16.82c0,0-20.26,21.98-24.23,30.72-3.97,8.74-4.2,16.49-4.2,16.49l2.63-1.93Z"/>
    <path class="st7" d="M-205.87,240.26s23.88,26.61,53.43,30.3c29.55,3.7,61.21-11.72,61.21-11.72,0,0-3.54-2.53-5.48-3.76s-20.27,5.08-39.18,4.91c-18.91-.17-38.06-4.87-47.09-9.8s-22.89-9.93-22.89-9.93Z"/>
    <path class="st9" d="M-137.69,273.03c-1.02,0-2.04-.02-3.07-.05-25.5-.8-49.17-11.48-66.64-30.08-17.47-18.6-26.65-42.89-25.85-68.39.8-25.5,11.48-49.17,30.08-66.64,18.6-17.47,42.88-26.64,68.39-25.85,25.5.8,49.17,11.48,66.64,30.08,17.47,18.6,26.65,42.89,25.85,68.39-.8,25.5-11.48,49.17-30.08,66.64-17.85,16.77-40.94,25.9-65.32,25.9ZM-137.84,86.43c-23.24,0-45.26,8.71-62.27,24.69-17.73,16.65-27.91,39.21-28.68,63.53-.76,24.31,7.99,47.47,24.64,65.2,16.65,17.73,39.21,27.91,63.53,28.68,24.29.77,47.47-7.99,65.2-24.64,17.73-16.65,27.91-39.21,28.68-63.53h0c.76-24.31-7.99-47.47-24.64-65.2-16.65-17.73-39.21-27.91-63.53-28.68-.98-.03-1.95-.05-2.92-.05Z"/>
    <path class="st9" d="M-138.7,262c-.32,0-.62,0-.94,0-36.99-.27-69.45-20.3-77.23-31.44-10.54-15.09-15.96-32.66-15.66-50.79.38-23.63,10.15-41.69,29.03-53.68,16.49-10.48,39.65-15.78,67.04-15.34,27.37.44,50.37,6.5,66.51,17.5,18.48,12.6,27.66,30.97,27.28,54.6-.29,18.14-6.28,35.52-17.3,50.26-7.58,10.14-38.38,28.9-78.73,28.9ZM-139.62,115.18c-25.14,0-46.35,5.05-61.49,14.67-17.54,11.14-26.61,27.96-26.97,50-.28,17.19,4.86,33.85,14.86,48.17,7.1,10.17,38.65,29.28,73.61,29.53.3,0,.59,0,.89,0,38.32,0,68.29-17.89,75.18-27.11,10.46-13.99,16.14-30.47,16.41-47.67h0c.97-59.66-62.2-67.13-89.4-67.57-1.04-.02-2.07-.03-3.1-.03Z"/>
    <path class="st9" d="M-52.19,142.54c-.51,0-1.02-.17-1.43-.53-.15-.13-.29-.28-.4-.44-15.38-22.33-45.59-35.48-82.86-36.09-.87-.01-1.73-.02-2.58-.02-36.3,0-65.86,12.51-81.34,34.53-.04.05-.08.1-.12.15-.02.02-.04.05-.06.07-.82.91-2.23.99-3.15.17-.87-.78-.98-2.1-.28-3.01,16.73-23.73,48.66-36.97,87.6-36.34,38.71.63,70.21,14.47,86.43,37.97.6.82.57,1.98-.12,2.77-.44.51-1.06.77-1.68.77ZM-222.75,138.63l.1.09-.1-.09Z"/>
    <g class="st26">
      <path class="st9" d="M-29.79,174.04l.35,8.75c.44,11-8.13,20.28-19.14,20.72-1.05.04-1.93-.78-1.98-1.83l-.58-14.54c.32.65,1,1.08,1.77,1.06l1.3-.06c8.7-.34,15.87-6.21,18.27-14.1Z"/>
    </g>
    <g class="st26">
      <path class="st9" d="M-227.92,193.52l.6,15.18c.04,1.05-.78,1.93-1.83,1.98-5.78.23-11.08-2.02-14.88-5.81-3.43-3.42-5.63-8.1-5.83-13.32l-.31-7.86c3.4,6.77,10.55,11.3,18.62,10.98l2-.08c.73-.03,1.33-.46,1.64-1.06Z"/>
    </g>
    <g class="st26">
      <path class="st9" d="M-47.25,167.82c.46,4.23.63,8.55.49,12.94-1.62,51.5-44.68,91.94-96.17,90.33-51.5-1.62-91.94-44.67-90.33-96.17.05-1.48.13-2.96.24-4.42,4.86,45.59,42.72,81.76,89.84,83.24,50.02,1.56,92.06-36.54,95.93-85.91Z"/>
    </g>
    <g class="st26">
      <path class="st22" d="M-64.43,137.79c11.16,11,17.61,25.95,17.3,45.35-.3,18.26-6.5,35.11-16.85,48.97-7.77,10.39-39.3,28.28-77.87,28-13.62-.09-26.72-3-38.14-7.15,47.42-.67,85.83-22.64,95.46-35.52,13.15-17.59,21.02-38.98,21.39-62.14.1-6.19-.35-12.03-1.29-17.52Z"/>
    </g>
    <g>
      <path class="st10" d="M-27.12,293.97c-.57.22-1.17.42-1.79.6-5.53,1.6-11.46.84-16.54-1.84-.22-.11-.43-.23-.65-.35l-7.91-4.49c-6.15-4.76-15.82-13.85-22.35-27.77,0,0-23.63-1.43-23.05-11.74.57-10.31,16.47-10.02,16.47-10.02,0,0-2.08-3.31-4.35-8.11-4.51-9.5-9.8-24.78-1.24-31.49,12.89-10.1,27.5,21.05,27.5,21.05,0,0,26.6-12.15,34.89,17.45.37,1.36.72,2.81,1.02,4.35l.18.96h0c.19.41,4.86,9.9,7.3,20.76,2.73,12.12,2.67,25.91-9.49,30.64Z"/>
      <path class="st7" d="M-69.96,273.88l27.71-5.31,23.58-11.66-6.45-15.3-5.16-14.5-7.77-6.89-11-2.34-9.96.97-2.94-1.08-8.5-13.31-8.96-6.95s-6.65-3.08-11.22,3.42c-4.57,6.5-.6,20.14-.6,20.14l8.29,17.28-7.73.72-8.74,6.01,1.07,7.13,7.68,4.75,14.32,3.15,3.61,7.57,2.79,6.2Z"/>
      <g class="st26">
        <path class="st9" d="M-27.12,293.97c-6.26,4.78-12.61,5.23-25.03,1.09-1.74-.58-3.34-1.09-4.82-1.54l-.82-1.06s5.67.91,12.34.27c11.88-1.14,26.94-7.19,18.76-32.08-.53-1.62-1.17-3.33-1.91-5.11-.83-2-2.8-3.29-4.97-3.28-.02,0-.04,0-.06,0-7.01.02-22.44-1.58-26.93-15.63-1.38-4.32-1.73-9.83-.47-16.83,0,0,11.96,24.42,34.89,17.45.06-.01.13-.03.19-.05l.82,4.4.18.96h0s7.3,20.76,7.3,20.76c2.73,12.12,2.67,25.91-9.49,30.64Z"/>
      </g>
      <path class="st9" d="M-39.35,247.75c-5.01,0-9.34-1.26-12.96-3.79-10.84-7.56-10.95-23.48-10.94-24.16,0-1.23,1-2.23,2.23-2.23h0c1.23,0,2.23,1,2.23,2.23,0,.16.13,14.3,9.06,20.52,5.62,3.91,13.71,3.97,24.03.16,1.15-.43,2.43.16,2.86,1.32.43,1.15-.17,2.44-1.32,2.86-5.59,2.06-10.66,3.09-15.18,3.09Z"/>
      <path class="st9" d="M-63.78,274.3c-3.65,0-5.88-.37-6.18-.42-1.21-.21-2.02-1.37-1.81-2.58.21-1.21,1.37-2.02,2.58-1.81.3.05,23.67,3.78,47.68-16.02.95-.78,2.35-.65,3.14.3s.65,2.35-.3,3.14c-18.33,15.11-36.06,17.39-45.11,17.39Z"/>
      <path class="st15" d="M-82.97,236.12c.89.04,1.64.14,2.44.28.79.15,1.56.33,2.33.56,1.53.45,3.05,1.05,4.35,2.07.36.29.43.81.14,1.18-.16.21-.41.32-.65.32h-.04c-1.51,0-2.91-.08-4.34-.08-.71,0-1.42.01-2.12.04-.69.02-1.44.05-2.04.09h-.02c-1.23.08-2.29-.85-2.37-2.08-.08-1.23.86-2.29,2.08-2.37.08,0,.16,0,.23,0Z"/>
      <path class="st9" d="M-54.32,288.3c-1.41-.65-2.73-1.44-4-2.31-1.27-.86-2.47-1.82-3.62-2.83-2.28-2.05-4.45-4.23-6.45-6.57-4.03-4.65-7.43-9.9-9.97-15.53h0s1.88,1.28,1.88,1.28c-2.19-.16-4.25-.43-6.35-.78-2.09-.36-4.18-.81-6.26-1.42-2.07-.61-4.14-1.36-6.16-2.45-1-.56-2-1.19-2.93-2-.93-.81-1.81-1.8-2.45-3.01-.15-.31-.32-.61-.43-.94-.11-.33-.22-.67-.32-1-.06-.35-.12-.69-.18-1.04-.05-.35-.03-.69-.05-1.04-.02-.36.02-.67.06-.98.03-.32.06-.63.14-.95.11-.63.3-1.26.53-1.87.47-1.23,1.2-2.36,2.06-3.29.87-.94,1.86-1.7,2.89-2.32,2.07-1.23,4.26-1.93,6.43-2.41,1.09-.23,2.18-.4,3.27-.52,1.11-.11,2.15-.19,3.35-.19l-1.93,3.41c-1.86-3.07-3.45-6.12-4.93-9.31-1.47-3.18-2.77-6.46-3.78-9.87-.5-1.71-.95-3.44-1.25-5.23-.31-1.79-.53-3.61-.52-5.49,0-1.87.21-3.8.77-5.71.54-1.9,1.55-3.77,2.93-5.29,1.39-1.51,3.05-2.75,5.09-3.5,2.04-.75,4.37-.75,6.36-.19,2.01.55,3.75,1.53,5.28,2.63,1.54,1.1,2.9,2.36,4.14,3.67,2.5,2.63,4.6,5.49,6.52,8.44,1.92,2.97,3.62,5.97,5.19,9.19l-2.94-1.08c.62-.27,1.1-.45,1.65-.65.54-.19,1.07-.36,1.61-.53,1.08-.33,2.17-.59,3.27-.82,2.21-.44,4.47-.69,6.76-.67,2.29.02,4.6.31,6.85.95,2.25.64,4.41,1.63,6.36,2.95,1.94,1.32,3.67,2.93,5.14,4.72.36.45.69.92,1.03,1.38.17.23.34.46.5.7l.45.73c.29.49.6.97.88,1.46l.77,1.51c2,4.06,3.15,8.36,3.93,12.66l-.18-.57c1.33,2.89,2.46,5.71,3.52,8.64,1.05,2.91,1.99,5.86,2.8,8.86,1.59,6,2.75,12.2,2.57,18.64-.12,3.21-.6,6.49-1.81,9.64-1.19,3.14-3.27,6.12-6.04,8.21-2.76,2.13-6.04,3.3-9.26,3.92-3.24.59-6.47.66-9.63.47-1.23-.07-2.16-1.13-2.09-2.36.07-1.23,1.13-2.16,2.36-2.09h.02c2.89.18,5.78.1,8.52-.4,2.72-.53,5.32-1.48,7.38-3.09,2.08-1.58,3.62-3.76,4.59-6.28.98-2.52,1.41-5.33,1.51-8.18.17-5.73-.89-11.61-2.41-17.33-.77-2.86-1.68-5.7-2.69-8.5-1.01-2.79-2.14-5.6-3.35-8.23v-.02c-.09-.18-.15-.37-.18-.55-.72-4.01-1.8-7.95-3.55-11.48l-.66-1.32c-.24-.43-.5-.83-.75-1.25l-.38-.62c-.13-.2-.28-.39-.42-.59-.29-.38-.56-.79-.86-1.16-1.21-1.48-2.61-2.77-4.16-3.83-3.1-2.12-6.89-3.13-10.76-3.15-1.94-.02-3.9.2-5.84.58-.97.2-1.93.43-2.87.72-.47.14-.94.29-1.4.46-.45.16-.95.35-1.3.5-1.11.49-2.41.01-2.94-1.07h0c-1.42-2.93-3.1-5.9-4.9-8.67-1.81-2.78-3.78-5.45-6-7.79-1.11-1.17-2.28-2.25-3.52-3.13-1.24-.89-2.54-1.59-3.84-1.94-1.3-.35-2.54-.33-3.72.09-1.18.42-2.34,1.27-3.26,2.27-1.86,1.99-2.57,4.96-2.57,8.03-.02,1.54.18,3.13.45,4.71.27,1.58.67,3.17,1.14,4.74.93,3.15,2.16,6.25,3.56,9.27,1.39,3.01,2.97,6.03,4.66,8.81.64,1.06.31,2.44-.75,3.08-.36.22-.78.33-1.17.33-.85,0-1.86.06-2.8.16-.95.1-1.89.25-2.81.45-1.84.4-3.6,1-5.07,1.87-1.47.88-2.57,2.02-3.1,3.41-.12.35-.24.71-.3,1.09-.05.18-.06.38-.08.58-.02.2-.05.4-.03.55-.02.68.13,1.3.46,1.9.32.6.82,1.18,1.43,1.73.62.54,1.37,1.02,2.16,1.46,1.6.87,3.41,1.54,5.27,2.09,1.87.55,3.8.97,5.76,1.3,1.94.33,3.97.59,5.87.73.82.06,1.51.55,1.86,1.23l.02.05h0c1.31,2.6,2.7,5.15,4.2,7.63,1.51,2.49,3.15,4.9,4.91,7.23,1.77,2.32,3.63,4.59,5.63,6.74,1.97,2.19,3.99,4.32,5.91,6.7.19.23.15.57-.08.75-.16.13-.38.15-.56.07Z"/>
    </g>
    <g class="st30">
      <path class="st7" d="M-218.76,167.82s6.26-27.03,15.31-31.55c9.05-4.52,32.76-11.29,32.36-10.6,0,0-25.49,9.67-32.25,18.89-5.21,7.1-15.42,23.27-15.42,23.27Z"/>
    </g>
    <g>
      <path class="st9" d="M-125.86,196.21c.32,13.7-7.76,48.56-20.16,47.7-12.04-.84-21.25-37.91-21.76-40.03,0-.02.02-.04.04-.02.49.54,3.88,3.9,10.95,2.55,7.68-1.46,10.77-5.66,10.77-5.66,0,0,2.73-3.85,10.71-4.19s9.46-.35,9.46-.35Z"/>
      <path class="st12" d="M-154.41,151.11s-6.92,1.96-9.14,4.51c-2.23,2.55-9.46,14.41-9.46,14.41l.75,11.03,8.55,13.04,28.39-8.55,12.6-2-7.99-23.22-10.55-7.2-13.14-2.03Z"/>
      <path class="st13" d="M-171.86,171.76s7.48-9.07,7.72-2.23-1.56,20.36,1.16,20.99c2.72.63,8.28-26.26,18.24-27.69,9.96-1.42,19.83,18.54,20.2,20.31s.66,10.51-2.04,11.85-10.36-.59-13.82,1.24-11.71,9.54-15.16,9.43-11.96,2.22-16.08-4.85-5.52-10.89-5.12-11.76,4.89-17.27,4.89-17.27Z"/>
      <path class="st13" d="M-163.06,219.06l-.63-9.14c-.01-.21.27-.29.36-.1,1.99,4.09,10.52,20.76,16.51,19.41,6.82-1.54,12.18-10.96,12.18-10.96l5.2-15.84c.1-.3.54-.24.56.07l.77,12.03s-7.63,22.7-10.3,25.25-7.26,7.95-12.15,2.12-12.5-22.84-12.5-22.84Z"/>
      <path class="st9" d="M-159.62,208.42c-.86,0-1.76-.05-2.71-.14h-.13s-.13-.05-.13-.05c-.18-.04-4.43-1.09-8.48-4.26-3.82-2.99-8.16-8.47-7.16-17.56,1.01-9.17,3.64-18.2,7.22-24.8,4.71-8.67,10.92-12.99,17.95-12.5,7.62.54,14.09,3.03,19.22,7.4,5.51,4.7,9.3,11.44,11.25,20.02,1.68,7.39,1.94,13.11.75,17.01-.42,1.39-1.02,2.53-1.79,3.38-.65.73-1.23,1.02-1.45,1.12l-.39.17h-.42c-4.87-.05-13.44.33-15.74,1.53-.68.36-1.53,1.12-2.52,2-3.03,2.71-7.46,6.67-15.49,6.67ZM-161.76,204.3c7.9.76,11.81-2.73,14.96-5.54,1.18-1.06,2.2-1.97,3.32-2.56.65-.34,2.63-1.38,10.51-1.82,2.75-.15,5.23-.18,6.41-.18.75-.89,2.83-4.62.07-16.78-3.39-14.91-12.68-23.32-26.85-24.32-2.77-.2-5.4.65-7.82,2.5-2.3,1.76-4.43,4.42-6.32,7.91-3.34,6.15-5.81,14.65-6.76,23.32-.63,5.78,1.23,10.45,5.55,13.88,3.02,2.4,6.28,3.39,6.93,3.57ZM-126.8,194.45h0Z"/>
      <path class="st5" d="M-152.61,214.53s.61,8.74,5.79,8.84c5.18.1,9.75-15.32,9.75-15.32,0,0,1.28-4.09-4.66-1.77-5.95,2.32-9.47,4.78-10.88,8.25Z"/>
      <path class="st9" d="M-145.56,245.93c-.2,0-.4,0-.6-.02-3.38-.24-6.72-2.64-9.91-7.15-2.37-3.35-4.73-7.94-7.02-13.63-3.92-9.76-6.38-19.67-6.65-20.77-.22-.9.2-1.84,1.02-2.27.82-.43,1.82-.26,2.45.42.29.32,3.02,3.09,9.1,1.93,6.71-1.28,9.43-4.75,9.54-4.9l-.02.02c.27-.37,3.59-4.64,12.24-5.01,7.92-.34,9.48-.35,9.54-.35h1.96s.05,1.96.05,1.96c.26,11.26-5.04,37.45-14.49,46.48-2.28,2.18-4.71,3.28-7.22,3.28ZM-164.61,208.03c1.11,3.93,2.91,9.79,5.24,15.6,6.23,15.52,11.12,18.12,13.48,18.28,1.55.11,3.15-.62,4.77-2.16,3.63-3.47,7.1-10.75,9.77-20.5,2-7.32,3.3-15.27,3.47-20.97-1.39.05-3.68.13-7.36.29-6.57.28-8.96,3.1-9.17,3.36l-.02.03h0c-.1.12-1.02,1.33-2.96,2.71-2.5,1.78-5.63,3.06-9.05,3.71-3.45.66-6.16.31-8.19-.36Z"/>
    </g>
  </g>
  <g id="Capa_2">
    <g class="st21">
      <polyline class="st9" points="341.3 367.14 383.7 402.33 486.66 378.43 499.89 352.75 488.52 338.58"/>
    </g>
    <g class="st20">
      <polygon class="st9" points="534.01 417.52 495.01 417.52 495.01 381.26 532.61 383.35 534.01 417.52"/>
    </g>
    <path class="st28" d="M502.11,301.72c-3.52,15.15-8.94,34.82-17.94,46.96-15.94,21.5-41.11,30.78-72.49,30.78-35.46,0-67.91-18.23-82.18-44.59-5.49-10.14-6.72-21.48-6.72-33.45,0-43.1,39.8-78.04,88.91-78.04s101.44,30.86,90.42,78.34Z"/>
    <g>
      <path class="st16" d="M477.65,223.03s7.36-43.62-26.8-71.47c0,0,3.42,18.92,0,24.44,0,0-29.43-56.5-74.89-62.8,0,0,13.66,28.64,2.1,35.47-7.96,4.7-16.55-4.67-21.12-10.96-3.24-4.46-7.75-7.91-13.03-9.51-2.28-.69-4.74-1.15-7.11-1.08,0,0,6.83,16.29,2.63,33.64-4.2,17.34-2.63,29.96-2.63,29.96,0,0-20.5-8.67-15.5-23.52,0,0-11.04,24.57-3.42,59.78,0,0-8.41-4.73-13.14-7.09,0,0,5.78,3.68,8.41,19.71,2.63,16.03,5.26,17.87,5.26,17.87,0,0,18.39-41.26,68.85-51.77,50.45-10.51,79.88,7.62,90.39,17.34Z"/>
      <path d="M319.24,260.48l-1.98-1.39c-1-.7-3.59-3.97-6.08-19.18-2.4-14.65-7.49-18.33-7.54-18.37l2-3.46c2.72,1.36,6.59,3.46,9.44,5.04-5.97-33.14,3.95-55.77,4.39-56.75l3.72,1.46c-3.25,9.65,6.25,16.57,11.37,19.49-.19-5.03-.03-14.86,2.93-27.04,3.99-16.47-2.46-32.23-2.53-32.39l-1.12-2.67,2.89-.1c2.34-.07,4.95.31,7.75,1.16,5.47,1.65,10.46,5.29,14.07,10.25,4.05,5.58,11.84,14.35,18.48,10.42,8.18-4.83.69-25.38-2.89-32.89l-1.6-3.35,3.68.51c39.05,5.42,66.01,46.05,73.98,59.57.52-5.33-.39-13.62-1.33-18.87l-.96-5.32,4.19,3.42c34.66,28.26,27.59,72.91,27.51,73.36l-.61,3.65-2.72-2.51c-7.31-6.76-35.31-27.96-88.63-16.85-48.8,10.17-67.25,50.22-67.43,50.62l-.99,2.21ZM319.74,255.97h0ZM311.21,225.56c1.46,3.16,2.91,7.59,3.92,13.7,1.21,7.38,2.39,11.58,3.26,13.93,5.82-10.3,26.23-40.66,68.46-49.46,49.69-10.35,78.39,6.64,89.22,15.31.76-10.34.7-40.39-22.43-62.36.79,6.32,1.49,16.21-1.09,20.37l-1.85,2.99-1.62-3.12c-.28-.54-27.9-52.64-69.78-61.13,3.49,8.37,10.38,28.33-.22,34.6-6.94,4.1-15.38.01-23.76-11.51-3.09-4.25-7.35-7.37-11.99-8.77-1.27-.38-2.48-.66-3.63-.82,1.81,5.59,4.96,18.37,1.67,31.94-4.06,16.74-2.6,29.12-2.59,29.24l.42,3.44-3.19-1.35c-5.17-2.19-12.9-7.25-16.07-14.33-2.42,10.22-4.64,27.42-.12,48.33l.94,4.35-3.88-2.18s-2.62-1.47-5.69-3.15Z"/>
    </g>
    <path class="st18" d="M334.04,235.37s-6.18-26.7-1.97-31.43c0,0,7.88,1.58,16.29-3.15,8.41-4.73,6.31-41.17,6.31-41.17,0,0,21.9,18.04,31.88,19.27s11.21-30.13,11.21-30.13c0,0,24.38,20.35,35.97,39.09,4.41,7.12,14.61,7.61,19.51.82.08-.11.15-.21.23-.32,0,0,10.78,11.25,11.61,25.77,0,0-30.88-17.18-62.24-10.88-31.36,6.3-44.75,8.38-68.8,32.13Z"/>
    <g>
      <path class="st10" d="M494.85,248.06c-.28-1.13-.71-2.21-1.29-3.21-5.08-8.8-32.15-49.37-95.72-42.49-77.99,8.44-83.99,74.28-83.99,74.28l9.99,5.43s16.29-63.42,81.46-66.92,80.06,24.35,94.6,53.26l-5.05-20.34Z"/>
      <path d="M506.14,285.26l-8.03-15.96c-13.76-27.35-27.99-55.63-92.7-52.16-26.36,1.42-47.75,12.81-63.59,33.86-11.88,15.79-16,31.41-16.04,31.56l-.64,2.48-13.39-7.28.12-1.31c.06-.69,1.68-17.15,13.06-34.87,10.5-16.35,31.64-36.77,72.71-41.21,64.98-7.04,92.76,34.98,97.66,43.48.67,1.15,1.17,2.41,1.5,3.73l9.35,37.69ZM316.01,275.53l6.61,3.6c1.64-5.13,6.28-17.57,15.91-30.41,11.4-15.21,32.23-33.72,66.66-35.57,29.8-1.61,51.92,3.26,67.58,14.86,9.41,6.97,15.95,15.9,21.25,25.02l-1.12-4.5c-.24-.96-.6-1.86-1.08-2.69-4.69-8.12-31.23-48.27-93.77-41.5-31.64,3.42-55.08,16.63-69.68,39.25-9.14,14.16-11.75,27.78-12.37,31.94Z"/>
    </g>
    <g>
      <path class="st10" d="M323.84,282.07s2.8,1.93,4.2,6.13c0,0,8.28-56.63,74.45-64.29,66.17-7.67,93.61,37.08,93.61,37.08l-10.02-16.53s-18.18-34.8-78.34-29.43-74.28,43.91-83.91,67.04Z"/>
      <path d="M328.8,296.81l-2.66-7.98c-1.16-3.47-3.42-5.1-3.44-5.12l-1.34-.92,1.53-3.67c9.41-22.73,25.17-60.77,84.68-66.09,31.65-2.82,51.74,5.52,63.01,13.03,11.95,7.95,16.76,16.52,17.24,17.41l9.99,16.48-3.42,2.08c-.07-.11-6.91-11.05-21.57-20.92-13.5-9.09-36.63-19.1-70.1-15.23-26.84,3.11-47.24,14.6-60.62,34.16-9.96,14.56-12.06,28.29-12.08,28.43l-1.22,8.32ZM326.23,281.51c.31.31.65.68,1,1.12,1.52-5.61,4.83-14.98,11.56-24.83,9.67-14.13,28.53-31.83,63.46-35.88,34.79-4.03,58.88,6.47,72.97,16,3.17,2.14,5.99,4.33,8.46,6.44-1.59-2.48-6.34-9.03-15.54-15.1-10.72-7.08-29.88-14.94-60.22-12.23-57.1,5.1-71.69,40.33-81.34,63.64l-.35.85Z"/>
    </g>
    <g>
      <path class="st23" d="M311.75,279.09s-10.51,1.75-7.18,24c3.33,22.25,16.29,25.05,16.29,25.05,0,0,14.54,3.5,9.28-26.1s-18.39-22.95-18.39-22.95Z"/>
      <path d="M322.21,330.26c-1.05,0-1.75-.16-1.82-.18-.54-.12-14.31-3.35-17.8-26.7-3.3-22.08,6.59-25.71,8.53-26.2.99-.42,4.54-1.62,8.63.43,5.89,2.94,10.05,11.04,12.36,24.08,2.31,13.01,1.2,21.75-3.29,25.98-2.3,2.17-4.91,2.59-6.61,2.59ZM312.11,281.05h0c-.08.02-8.52,2.01-5.57,21.74,3.06,20.43,14.28,23.28,14.75,23.4.12.02,2.71.56,4.83-1.48,1.92-1.84,4.73-7.2,2.05-22.32-2.58-14.5-6.93-19.51-10.13-21.15-2.92-1.5-5.31-.4-5.42-.35l-.25.12-.26.05Z"/>
    </g>
    <path d="M413.88,381.56c-34.73,0-57.24-12.99-70.33-24.42-15.47-13.52-21.33-27.52-21.57-28.11l3.7-1.52s0,0,0,0h0c.09.23,5.87,13.88,20.65,26.75,13.66,11.89,38.05,25.52,76.79,23,36.23-2.37,55.31-21.17,64.94-36.52,15.8-25.2,16.74-57.48,9.61-75.05l3.71-1.5c7.69,18.96,6.76,52.07-9.93,78.68-10.12,16.15-30.15,35.91-68.07,38.39-3.26.21-6.43.31-9.5.31Z"/>
    <g>
      <path class="st7" d="M496.1,246.68s18.16-2.28,21.13,21.02-12.09,29.08-12.09,29.08l-9.05-50.1Z"/>
      <path d="M503.61,299.51l-9.85-54.56,2.09-.26c.2-.03,20.17-2.24,23.37,22.75,3.14,24.57-12.68,30.94-13.35,31.2l-2.26.87ZM498.49,248.64l8.13,45.05c3.73-2.55,10.7-9.57,8.63-25.73-2.11-16.53-12.26-19.03-16.76-19.31Z"/>
    </g>
    <g>
      <path class="st28" d="M291.78,311.15s-12.26,16.73-17.34,1.27c-3.11-9.46,5.13-13.72,11.99-15.61,5.8-1.59,11.99,1.35,14.29,6.91,2.76,6.68,3.06,17.19-9.29,30.9-22.42,24.88-37.14,8.76-37.14,8.76,0,0-21.9-20.15-9.99-36.79,11.91-16.64,20.58-23.43,27.22-23.47,6.07-.04,12.55-1.05,16.41,11.91"/>
      <path d="M267.09,350.51c-8.46,0-13.54-5.01-14.21-5.71-1.53-1.42-22.81-21.76-10.2-39.37,11.83-16.53,20.99-24.25,28.83-24.31.38,0,.77,0,1.15-.02,5.85-.11,13.12-.23,17.16,13.28,5.48.07,10.58,3.34,12.75,8.58,2.88,6.97,3.55,18.36-9.65,33-8.68,9.63-17.34,14.53-25.75,14.55h-.07ZM274.28,285.08c-.51,0-1.03,0-1.56.02-.4,0-.8.01-1.19.02-6.27.05-14.88,7.66-25.6,22.64-10.74,15,9.51,33.96,9.71,34.15l.12.12c.17.18,4.25,4.48,11.33,4.48h.14c7.21-.06,14.85-4.51,22.71-13.23,9.34-10.37,12.43-20.32,8.93-28.79-1.91-4.62-7.03-7.09-11.91-5.75-3.7,1.02-8.51,2.96-10.38,6.44-1.01,1.88-1.09,4.04-.24,6.61.71,2.17,1.98,4.83,3.98,5.14,3.46.55,8.39-4.99,9.85-6.98l3.23,2.37c-.72.98-7.25,9.59-13.7,8.56-3.21-.51-5.61-3.15-7.16-7.85-1.19-3.62-1.01-6.9.52-9.75,2.03-3.78,6.32-6.6,12.74-8.38-2.86-9.03-6.72-9.83-11.51-9.83Z"/>
    </g>
    <path d="M262.21,331.19c-4.76,0-9.98-3.13-11.27-7-.92-2.76.29-5.39,3.25-7.03l1.94,3.5c-1.81,1-1.52,1.89-1.39,2.27.74,2.23,4.9,4.67,8.31,4.21,2.88-.39,4.45-2.76,4.66-7.03.77-15.84-18.52-17.06-19.34-17.1l.21-3.99c8.33.45,23.89,5.47,23.12,21.29-.43,8.81-5.81,10.49-8.11,10.8-.45.06-.92.09-1.38.09Z"/>
    <path d="M274.12,301.66c-3.57-10.11-17.12-7.59-17.69-7.48l-.77-3.92c6.03-1.2,18.46-.63,22.24,10.07l-3.77,1.33Z"/>
    <path d="M269.97,320.37c5.27,1.33,10.65,5.74,9.89,11.62-.55-4.43-4.58-7.12-8.75-7.54-.55-.08-1.19-.13-1.63-.11l.49-3.97h0Z"/>
    <g>
      <path class="st14" d="M257.62,347.23s11.41,20.32,17.18,22.07c4.55,1.38,16.72-6.27,21.67-9.58,1.52-1.01,2.91-2.2,4.15-3.54,3.79-4.11,11.54-13.51,10.61-20.69,0,0-9.75-13.14-11.44-13.14s-3,11.01-16.27,19.69-25.89,5.18-25.89,5.18Z"/>
      <path d="M276,371.46c-.66,0-1.25-.08-1.78-.24-6.22-1.89-16.37-19.5-18.34-23.01l-2.35-4.19,4.63,1.29c.21.05,12.01,3.09,24.26-4.93,8.81-5.76,12.06-12.59,13.8-16.25,1.04-2.19,1.79-3.77,3.57-3.77,1.01,0,2.7,0,13.05,13.95l.31.42.07.52c1.01,7.81-6.53,17.33-11.12,22.31-1.33,1.45-2.85,2.74-4.51,3.85-10.03,6.69-17.27,10.07-21.59,10.07ZM261.45,349.84c4.63,7.68,10.96,16.65,13.93,17.55,2.06.62,9.03-2.02,19.98-9.33,1.39-.93,2.66-2.02,3.78-3.23,6.65-7.22,10.4-14.11,10.14-18.59-3.25-4.36-7.12-9.16-9.1-11.15-.12.25-.25.51-.36.75-1.91,4.02-5.48,11.5-15.22,17.88-9.2,6.02-18.07,6.51-23.15,6.12ZM299.18,324.23h0Z"/>
    </g>
    <g>
      <path class="st28" d="M533.07,281.24s16.56,12.5,16.98-3.77c.25-9.96-8.86-11.67-15.98-11.49-6.01.15-11.1,4.75-11.7,10.73-.72,7.19,2.02,17.35,17.79,26.92,28.63,17.37,38.09-2.3,38.09-2.3,0,0,15.17-25.6-1.03-38.11-16.2-12.51-26.45-16.51-32.82-14.65-5.83,1.7-12.32,2.61-12.28,16.13"/>
      <path d="M561.33,312.8c-6.58,0-14.01-2.5-22.2-7.46-16.86-10.22-19.5-21.32-18.75-28.83.57-5.64,4.51-10.24,9.74-11.89-.01-14.1,6.98-16.07,12.61-17.66.37-.1.74-.21,1.11-.32,7.52-2.2,18.52,2.56,34.61,14.98,17.15,13.24,2.62,38.84,1.56,40.65-.44.86-3.89,7.16-12.03,9.58-2.11.62-4.32.94-6.65.94ZM534.98,267.97c-.29,0-.58,0-.86.01-5.06.12-9.26,3.96-9.75,8.93-.92,9.12,4.91,17.77,16.84,25.01,10.08,6.11,18.71,8.17,25.64,6.11,6.89-2.05,9.58-7.51,9.61-7.57l.08-.15c.14-.24,14.07-24.23-.53-35.5-14.58-11.26-25.02-16.07-31.04-14.31-.38.11-.76.22-1.15.33-5.32,1.5-9.54,2.69-9.69,13.16,6.66-.15,11.58,1.32,14.62,4.36,2.29,2.29,3.4,5.38,3.3,9.19-.12,4.94-1.67,8.17-4.59,9.57-5.9,2.85-14.61-3.52-15.58-4.25l2.41-3.19c1.97,1.48,8.29,5.36,11.44,3.85,1.82-.88,2.27-3.79,2.33-6.07.07-2.71-.63-4.75-2.13-6.26-2.59-2.59-7.21-3.19-10.93-3.19Z"/>
    </g>
    <path d="M564.4,292.35c-2.7,0-7.02-1.2-9.47-8.12-5.29-14.93,8.16-24.22,16.01-27.05l1.36,3.76-.68-1.88.68,1.88c-.77.28-18.88,7.05-13.6,21.95,1.43,4.03,3.61,5.84,6.48,5.4,3.39-.53,6.68-4.07,6.75-6.42.01-.4.04-1.33-1.99-1.77l.85-3.91c3.3.72,5.22,2.88,5.13,5.8-.13,4.48-5.05,9.46-10.12,10.26-.38.06-.86.11-1.4.11Z"/>
    <path d="M547.25,267.08l-4-.19c.54-11.34,12.27-15.45,18.4-16.05l.38,3.98c-.63.06-14.28,1.57-14.79,12.25ZM562.03,254.83l-.19-1.99.2,1.99s0,0,0,0h0Z"/>
    <path d="M558.22,287.47c-3.2,1.01-6.46,3.23-7.48,6.61-.41,1.16-.36,2.42-.26,3.7-2.42-5.42,1.46-11.19,6.13-13.98,0,0,1.61,3.66,1.61,3.66h0Z"/>
    <g>
      <path class="st14" d="M576.17,305.97s-5.08,22.75-10.1,26.08c-3.96,2.63-17.82-1.19-23.51-2.93-1.75-.53-3.42-1.27-4.99-2.2-4.81-2.85-14.94-9.62-16.11-16.76,0,0,5.55-15.39,7.18-15.88s6.04,9.68,21.25,14.18c15.21,4.5,26.28-2.49,26.28-2.49Z"/>
      <path d="M561.56,334.95c-4.5,0-11.05-1.31-19.58-3.91-1.9-.58-3.72-1.38-5.42-2.39-5.83-3.45-15.79-10.4-17.07-18.16l-.08-.51.18-.49c5.89-16.34,7.51-16.82,8.48-17.11,1.69-.51,2.87.79,4.5,2.58,2.73,3.01,7.8,8.61,17.89,11.59,14.1,4.17,24.55-2.2,24.66-2.27l4.05-2.53-1.04,4.66c-.88,3.93-5.53,23.71-10.94,27.31-1.23.82-3.11,1.22-5.62,1.22ZM523.53,310.32c1.04,4.36,6.61,9.88,15.06,14.89,1.43.84,2.96,1.52,4.55,2,12.59,3.84,20.04,4.37,21.82,3.18,2.58-1.72,6.06-12.13,8.29-20.82-4.75,1.84-13.38,3.92-23.93.81-11.17-3.3-16.74-9.44-19.73-12.74-.18-.2-.37-.41-.56-.61-1.32,2.47-3.65,8.18-5.51,13.29ZM529.75,295.91h0Z"/>
    </g>
    <g>
      <path class="st14" d="M311.34,340.61c1,.73,18.75,13.58,35.59,18.35.02,0,.03.01.03.03.28.95,10.06,32.01,71.82,30.11,62.54-1.92,71.77-41.93,70.13-45.95,0-.02,0-.04.02-.05.89-.55,20.52-12.72,33.17-30.15.02-.03.06-.03.07,0,.82,1.12,15.98,21.23,38.42,20.01.04,0,.07.03.05.06-.98,1.86-21.79,40.54-61.94,50.64-.02,0-.04.03-.04.05l.35,9.54s.02.05.05.05c.48-.03,4.59-.19,4.89,2.28.32,2.6,3.64,18.58.11,20.78-.04.02-.03.08.02.08,1.63.24,18.39,2.75,20.49,5.9.01.02.01.05,0,.06-.88.9-21.18,22.11-16.11,51.71,0,.04-.04.07-.07.05-1.47-1.21-21.19-17.1-32.15-8.34s-63.28,7.05-72.04,4.6-30.68,11.43-36.07,16.49c-.04.04.19-3.53.2-3.58.17-2.83,2.19-31.98-21.71-38.35,0,0,.34-.35.34-.35l-4.17-3.81s-.02-.05,0-.07c.72-.54,10.84-8.13,14.1-8.2.03,0,.05-.02.04-.05l-3.49-30.39s-.02-.04-.04-.04c-1.62-.21-53.97-7.23-73.5-32.53-.02-.03-.02-.06.02-.08,1.27-.46,22.91-8.63,31.35-28.82.01-.03.04-.04.07-.02Z"/>
      <path d="M368.52,489.31l-1.23-.58c-1.25-.58-1.2-1.48-1.08-3.44l.13-2.18c.43-7.11.24-30.74-20.23-36.19l-1.15-.31-.28-1.16c-.02-.08-.03-.16-.04-.24l-3.29-3.02-.62-.65.13-1.83.74-.57c2.84-2.14,9.09-6.66,13.16-8.13l-3.13-27.19c-9.11-1.37-54.98-9.33-73.31-33.08l-.62-.81.57-2,.97-.37c.89-.33,22.05-8.25,30.19-27.71l.38-.9,1.9-.54.81.57c.75.54,18.44,13.37,34.96,18.05l1.06.3.34,1.09c.37,1.24,9.83,30.54,69.84,28.67,35.56-1.09,52.83-14.5,61.05-25.55,6.52-8.76,7.59-16.51,7.27-17.7l-.65-1.59,1.51-.88c.8-.49,20.16-12.5,32.58-29.61l.6-.83,2.09-.02.63.86c.6.81,15.25,20.33,36.68,19.18l1.16-.06,1.31,1.97-.53,1.07c-.88,1.68-21.67,40.36-61.7,51.26l.23,6.17c2.41.29,4.68,1.43,4.99,3.97.04.36.15,1,.29,1.83,1.33,8.03,1.96,14.12.97,17.73,7.21,1.18,17.02,3.3,19.04,6.34l.91,1.36-1.17,1.22c-.82.84-20.44,21.38-15.55,49.95l.23,1.37-2.42,1.45-1.12-.88c-.81-.67-19.84-16.15-29.63-8.32-12.19,9.75-64.88,7.47-73.83,4.96-7.34-2.05-28.24,10.47-34.16,16.02l-.99.93ZM348.59,443.48c21.25,6.68,22.17,30.53,21.79,39.07,8.51-6.26,26.13-16.35,34.36-14.04,9.63,2.7,59.93,4.03,70.25-4.23,9.45-7.56,23.93.67,30.88,5.51-2.13-23.89,11.22-41.77,15.79-47.13-2.9-1.35-10.09-3.09-17.88-4.22l-1.39-.2-.6-2.77,1.21-.79c.52-.49,1.55-3.17-.72-16.84-.15-.91-.27-1.61-.31-2-.21-.3-1.5-.6-2.79-.53l-.83.05-1.28-1.14-.05-.89-.41-11.21,1.67-.4c33.46-8.42,53.29-37.36,58.94-46.73-17.74-.67-30.62-13.7-35.02-18.83-11.28,14.59-26.88,25.21-31.14,27.96.11,3.51-1.69,10.19-6.25,17.19-6.88,10.58-24.6,28.52-65.97,29.79-1.84.06-3.65.08-5.4.08-52.96,0-65.82-25.03-68.02-30.58-13.88-4.18-28.15-13.46-33.29-17-7.61,15.75-22.96,23.95-29.01,26.68,20.06,22.96,68.44,29.52,70.54,29.79l1.53.2.24,1.57,3.6,31.3-1.16,1.36-.9.04c-1.33.03-6.06,2.8-11.07,6.4l2.58,2.38s.07.08.11.14Z"/>
    </g>
    <path d="M420,455.03c-8.24,0-14.43-1.43-18.83-4.3-3.96-2.58-6.42-6.33-7.29-11.17-.51-2.8-1.12-5.74-1.76-8.86-3.2-15.46-6.21-30.06,1.37-32.47l.26-.06,73.21-12.61c.64-.12,4.21-.64,7.76,2.23,5.25,4.24,7.8,13.48,7.56,27.45-.12,6.81.27,11.82.56,15.48.96,12.26-.25,12.83-16.4,16.45-3,.67-6.72,1.5-11.09,2.56-14.55,3.53-26.21,5.29-35.35,5.29ZM394.58,402.08c-3.99,1.55-.73,17.33,1.44,27.81.65,3.14,1.26,6.11,1.78,8.96.68,3.76,2.5,6.55,5.54,8.53,8.19,5.32,24.89,4.82,51.06-1.53,4.4-1.07,8.15-1.91,11.16-2.58,7.23-1.62,11.22-2.51,12.67-3.91,1.13-1.09,1.02-3.21.62-8.32-.29-3.74-.69-8.86-.57-15.86.27-15.65-3.1-21.79-5.97-24.19-2.31-1.92-4.47-1.52-4.57-1.5l-73.15,12.6Z"/>
    <path d="M457.49,433.69c-2.57,0-4.63-.53-6.19-1.58-2.29-1.55-2.59-3.66-2.61-3.9v-.2c-.06-3.82-.85-6.36-2.36-7.52-2.67-2.06-8.4-.62-14.47.9-1.65.42-3.36.84-5.1,1.23-8.19,1.82-14.54,1.31-18.37-1.48-2.16-1.57-3.43-3.8-3.68-6.45-.48-5.17-5.01-14.36-5.06-14.45l-1.16-2.34,2.56-.51c10.86-2.17,65.4-12.85,72.89-10.08,8.29,3.06,7.81,22.98,7.63,26.94,0,.13-.76,13.93-15.83,18.13-3.16.88-5.91,1.32-8.26,1.32ZM452.66,427.8c.04.12.25.63,1,1.09,1.14.69,4.08,1.56,11-.37,12.2-3.4,12.88-14.01,12.9-14.46.39-8.64-.91-21.49-5.02-23-4.79-1.76-43.34,4.86-68.22,9.76,1.48,3.29,3.96,9.31,4.35,13.5.14,1.49.83,2.7,2.05,3.59,1.64,1.2,5.79,2.89,15.15.81,1.69-.38,3.37-.8,4.99-1.21,7.34-1.84,13.67-3.43,17.88-.19,2.54,1.96,3.82,5.39,3.9,10.47Z"/>
    <g>
      <circle class="st4" cx="463.22" cy="414.5" r="7.45"/>
      <path d="M463.22,423.95c-5.21,0-9.45-4.24-9.45-9.45s4.24-9.45,9.45-9.45,9.44,4.24,9.44,9.45-4.24,9.45-9.44,9.45ZM463.22,409.06c-3,0-5.45,2.44-5.45,5.45s2.44,5.45,5.45,5.45,5.44-2.44,5.44-5.45-2.44-5.45-5.44-5.45Z"/>
    </g>
    <g>
      <path class="st8" d="M315.23,437.53c11.48,5.94,28.59,38.28,28.59,38.28,0,0,13.08,31.72,4.67,32.59s-23.78-1.45-44.28-30.35c-14.68-20.7-9.51-34.08-4.14-38.84,2.26-2,5.18-3.14,8.2-3.16,2.11-.02,4.66.3,6.96,1.48Z"/>
      <path d="M345.83,510.54c-13.96,0-28.49-10.52-43.25-31.33-15.43-21.76-9.67-36.32-3.84-41.5,2.63-2.34,6.01-3.64,9.51-3.66,3,0,5.66.55,7.89,1.71,11.9,6.15,28.73,37.78,29.44,39.12l.08.17c1.8,4.35,10.55,26.4,6.58,33.06-.8,1.33-2.02,2.12-3.55,2.28-.95.1-1.91.15-2.87.15ZM308.43,438.05s-.09,0-.14,0c-2.53.02-4.98.96-6.89,2.66-4.84,4.29-9.34,16.74,4.45,36.19,14.87,20.97,29.16,30.91,42.44,29.52.23-.02.36-.08.53-.35,2.16-3.62-2.67-19.33-6.8-29.39-.96-1.8-17.17-31.91-27.7-37.35h0c-1.62-.84-3.6-1.26-5.89-1.26Z"/>
    </g>
    <g>
      <path class="st4" d="M302.54,437.51s10.17-14.94,23.14-9.16c12.96,5.78,21.9,17.43,21.9,17.43,0,0,12.93,1.43,18.94,19.72,2.63,8,2.28,13.74,1.81,17.84-.44,3.86-2.33,7.41-5.17,10.06l-11.37,12.11s-3.8-25.56-11.76-36.47-13.4-24.18-21.98-29.63-15.51-1.9-15.51-1.9Z"/>
      <path d="M350.43,509.89l-.61-4.09c-.04-.25-3.82-25.2-11.4-35.59-2.71-3.71-5.11-7.66-7.43-11.48-4.47-7.33-8.68-14.26-14.01-17.65-7.43-4.73-13.29-1.92-13.54-1.8l-6.83,3.38,4.27-6.29c3.84-5.65,14.15-14.97,25.6-9.86,11.7,5.21,20.09,14.86,22.18,17.42,3.2.68,14.24,4.2,19.75,20.94,2.63,8,2.44,13.94,1.9,18.69-.48,4.22-2.51,8.21-5.74,11.25l-14.15,15.08ZM308.26,434.36c2.99,0,6.77.75,10.87,3.36,6.11,3.88,10.56,11.2,15.28,18.94,2.28,3.75,4.64,7.62,7.25,11.2,6.31,8.64,10.01,25.59,11.45,33.35l8.71-9.27c2.56-2.39,4.17-5.52,4.54-8.82.51-4.54.66-9.74-1.73-16.99-5.5-16.73-16.8-18.3-17.28-18.36l-.83-.1-.52-.67c-.09-.11-8.8-11.33-21.13-16.82-7.02-3.13-13.18.72-16.91,4.2.1,0,.2,0,.3,0Z"/>
    </g>
    <path d="M340.26,435.52c4.48,8.04,8.79,16.52,9.85,25.75-1.67-6.62-5.33-12.49-9.13-18.07-1.28-1.84-2.63-3.69-4-5.39l3.28-2.29h0Z"/>
    <path d="M331.59,454.41l-2.55-3.08c3.72-3.08,6.22-12.35,6.87-15.66l3.93.77c-.27,1.36-2.77,13.45-8.25,17.97Z"/>
    <path d="M294.79,449.66l-.99-3.88c.18-.05,17.89-4.62,23.16-8.05l2.19,3.35c-5.82,3.8-23.59,8.39-24.35,8.58Z"/>
    <path d="M296.1,464.15c-.1,0-.2,0-.28-.01l.44-3.98s.02,0,.03,0c2.33,0,17.39-5.79,30.66-11.41l1.56,3.68c-8.41,3.57-28.1,11.72-32.41,11.72Z"/>
    <path d="M301.97,476.48l-.28-3.99c14.62-1.03,33.2-11.04,33.38-11.14l1.91,3.52c-.79.43-19.53,10.52-35.01,11.61Z"/>
    <path d="M312.13,489.23l-.48-3.97c4.27-.52,24.43-7.72,31.83-10.46l1.38,3.75c-1.1.41-27.13,10-32.74,10.68Z"/>
    <path d="M321.29,499.49l-.18-4c1.69-.08,14.9-4.09,26.69-7.9l1.23,3.8c-4.1,1.33-24.7,7.96-27.74,8.1Z"/>
    <path d="M334.04,507.64v-4c2.35,0,11.4-3.14,16.55-5.12l1.44,3.73c-2.34.9-14.21,5.39-17.99,5.39Z"/>
    <g>
      <path class="st8" d="M551.28,414.22c-10.19,8.13-21,44.28-21,44.28,0,0-6.97,34.79,1.47,34.18,8.44-.61,23.13-5.73,37.91-38.98,10.59-23.81,3.01-36.57-3.15-40.48-2.59-1.65-5.68-2.28-8.66-1.76-2.08.36-4.53,1.14-6.57,2.76Z"/>
      <path d="M531.53,494.69c-1.35,0-2.54-.55-3.48-1.61-5.22-5.92-.69-30.17.27-34.97l.04-.18c.45-1.5,11.11-36.85,21.67-45.27h0c1.99-1.59,4.51-2.65,7.48-3.17,3.46-.6,7.04.13,10.07,2.05,6.67,4.23,15,18.05,3.91,42.98-11.38,25.57-24.7,39.08-39.6,40.16-.12,0-.24.01-.37.01ZM532.22,458.99c-2.22,11.13-4.04,28.19-1.17,31.45.21.23.34.27.55.25,13.31-.96,25.5-13.68,36.23-37.79,9.98-22.45,3.19-34.44-2.4-37.98-2.19-1.39-4.76-1.92-7.24-1.48-2.3.4-4.21,1.19-5.67,2.36h0c-9.36,7.46-19.71,41.24-20.31,43.2Z"/>
    </g>
    <g>
      <path class="st2" d="M563.77,411.92s-12.79-13.47-24.47-5.23c-11.68,8.23-18.3,21.75-18.3,21.75,0,0-6.13,2.27-11.93,23.55-2.3,8.42-2.72,14.49-1.51,18.6,1.15,3.87,3.67,7.16,6.95,9.37l13.44,10.36s-1.02-26.83,4.79-39.42c5.8-12.59,8.69-27.14,16.11-34.25,7.43-7.12,14.91-4.72,14.91-4.72Z"/>
      <path d="M530.12,494.51l-16.77-12.93c-3.72-2.52-6.45-6.21-7.7-10.42-1.36-4.58-.87-11.03,1.5-19.7,4.95-18.16,10.21-23.16,12.36-24.49,1.45-2.77,7.94-14.37,18.64-21.92,10.36-7.3,22.24.4,27.07,5.49l5.38,5.67-7.43-2.38c-.32-.09-6.55-1.86-12.92,4.25-4.61,4.42-7.47,12.27-10.5,20.58-1.58,4.32-3.2,8.79-5.18,13.06-5.54,12.01-4.62,38.25-4.61,38.51l.16,4.27ZM521.69,430.32s-5.42,2.84-10.69,22.2c-2.13,7.82-2.64,13.71-1.52,17.51.99,3.34,3.17,6.28,6.15,8.28l.11.08,10.14,7.82c-.03-8.17.46-26.17,5.04-36.13,1.9-4.13,3.5-8.52,5.05-12.76,3.19-8.76,6.21-17.04,11.5-22.1,3.74-3.58,7.51-5,10.54-5.47-4.3-2.93-11.16-5.92-17.56-1.41-11.1,7.83-17.59,20.87-17.66,21l-.35.72-.75.28h0Z"/>
    </g>
    <path d="M529.94,418.33c-4.05,8.29-7.91,17.11-8.56,26.43-.6-7.13.97-14.27,2.78-21.14.64-2.31,1.31-4.58,2.12-6.89l3.66,1.6h0Z"/>
    <path d="M538.28,434.34c-6.21-3.64-10.91-15.52-11.42-16.86l3.73-1.43c1.26,3.29,5.47,12.36,9.71,14.85l-2.03,3.45Z"/>
    <path d="M573.62,422.89c-.78-.06-19.13-1.58-25.57-4.42l1.62-3.66c5.82,2.57,24.09,4.08,24.27,4.09l-.32,3.99Z"/>
    <path d="M573.86,438.04c-6.06,0-24.62-4.28-32.91-6.27l.93-3.89c14.12,3.39,30.08,6.62,32.32,6.17l1.12,3.84c-.33.1-.83.15-1.47.15Z"/>
    <path d="M566.52,451.87c-14.49,0-30.82-5.6-31.59-5.87l1.31-3.78c.2.07,20.35,6.97,34.89,5.42l.43,3.98c-1.63.18-3.32.25-5.04.25Z"/>
    <path d="M563.37,466.5c-6.55,0-30.81-4.54-33.64-5.08l.74-3.93c7.79,1.47,28.97,5.23,33.25,5l.22,3.99c-.17,0-.36.01-.57.01Z"/>
    <path d="M556.09,478.66c-4.83,0-24.05-2.77-28.07-3.35l.58-3.96c12.29,1.79,26.01,3.52,27.72,3.31l.53,3.96c-.18.02-.44.04-.75.04Z"/>
    <path d="M544.13,489.36c-4.9,0-14.87-1.97-17.05-2.41l.8-3.92c5.43,1.1,14.9,2.7,17.21,2.28l.71,3.94c-.45.08-1.02.12-1.68.12Z"/>
    <path d="M345.56,294.27c4.96,4.88,10.57,8.66,17.17,10.92-7.2.58-14.5-4.28-17.17-10.92h0Z"/>
    <path d="M486.66,277.3c-1.33,7.04-7.54,13.23-14.71,14.06,6.03-3.51,10.8-8.3,14.71-14.06h0Z"/>
    <path class="st25" d="M381.34,367.23"/>
    <path d="M357.49,434.46l-1.18-3.82c5.17-1.59,10.06-1.5,10.27-1.49l-.09,4s-4.47-.08-9,1.32Z"/>
    <path d="M496.92,390.03c-.62-4.73-1.34-9.49-2.18-14.21-.94-4.68-1.58-9.52-3.61-13.87,2.63,4.06,3.96,8.84,5.55,13.39,1.5,4.61,2.87,9.23,4.16,13.92l-3.92.78h0Z"/>
    <path d="M481.64,404.35l-1.02-3.87c.12-.03,11.58-3.1,17.03-8.59l2.84,2.82c-6.22,6.27-18.33,9.5-18.85,9.64Z"/>
    <path d="M481.86,428.1l-1.47-3.72c5.23-2.06,19.66-8.13,23.55-11.41l2.57,3.06c-5.19,4.36-23.86,11.75-24.66,12.07Z"/>
    <path d="M359.85,400.75c.41-3.95.81-7.98.25-11.94,1.87,3.67,2.83,7.75,3.75,11.77,0,0-4,.18-4,.18h0Z"/>
    <g>
      <path class="st1" d="M511.81,379.56s-4.34,15.59,8.93,11.12,11.82-5.16,11.82-5.16c0,0-2.49-12.05-4.99-13.5s-15.77,7.54-15.77,7.54Z"/>
      <path d="M516.52,393.48c-2.03,0-3.69-.6-4.96-1.81-3.99-3.79-1.92-11.75-1.67-12.65l.2-.71.61-.41c9.5-6.43,15.52-8.99,17.89-7.61,2.79,1.62,4.86,9.67,5.88,14.53.11.28.16.59.14.91-.08,1.36-.15,2.44-13.23,6.84-1.8.61-3.42.91-4.86.91ZM513.57,380.79c-.46,2.11-.96,6.37.74,7.98,1.26,1.2,3.85.67,5.79.01,6.47-2.18,9.17-3.38,10.27-3.95-1.12-5.04-2.74-9.85-3.7-10.97-1.73.14-7.47,3.17-13.11,6.92Z"/>
    </g>
    <path d="M527.16,421.9l-13.21-8.12-1.77-24.74,2.21.06c.07,0,7.99.13,17.3-4.67l2.5-1.29.4,2.78c1.12,7.82,2.94,21.21,2.56,23.03-.39,1.87-5.04,7.39-8.87,11.69l-1.11,1.25ZM517.8,411.45l8.6,5.28c3.13-3.58,6.34-7.55,6.84-8.65.07-1.36-1.01-10.2-2.23-18.89-6.27,2.79-11.66,3.6-14.53,3.83l1.32,18.43Z"/>
    <path d="M417.56,263.7c.23-2.81.28-5.74.14-8.58-.23-2.83-.38-5.85-1.99-8.29,1.11.98,1.85,2.36,2.45,3.71,1.78,4.17,2.7,8.57,3.4,13.05,0,0-4,.11-4,.11h0Z"/>
    <g>
      <path class="st6" d="M425.18,262.98c-.2-.04-.31-.26-.21-.44,2.12-3.85,21.08-37.38,36.86-34.76,0,0,6.15-.77,10.7,7.24.12.21-.06.48-.3.45-2.79-.39-14.92-.59-30.81,21.48,0,0,0,0,0,.01-.14.17-6.59,7.87-16.24,6.01Z"/>
      <path d="M428.18,265.27c-1.08,0-2.21-.1-3.38-.33-.72-.14-1.34-.62-1.65-1.28-.31-.66-.29-1.44.07-2.09,3.54-6.43,21.99-38.25,38.71-35.8,1.53-.07,7.76.19,12.35,8.27.44.76.4,1.69-.1,2.43-.5.73-1.35,1.11-2.22.99-2.13-.3-13.51-.72-28.91,20.67l-.07.09c-.29.35-5.98,7.05-14.8,7.05ZM427.99,261.27c.07,0,.14,0,.21,0,6.72,0,11.17-4.98,11.65-5.54,12.84-17.8,23.51-21.66,29.2-22.26-3.35-3.99-6.81-3.71-6.99-3.7l-.26.02-.29-.04c-11.09-1.85-25.71,17.98-33.52,31.51ZM470.8,236.02s0,0,0,0c0,0,0,0,0,0Z"/>
    </g>
    <path d="M422.95,263.19c-.52-2.24-.86-4.41-1.08-6.67-.14-2.18-.35-4.6.61-6.62-.29,2.15.58,4.19,1.34,6.15.81,1.92,1.79,3.88,2.84,5.65,0,0-3.71,1.49-3.71,1.49h0Z"/>
    <path class="st7" d="M360.31,252.9s-23.12,18.09-9.45,38.45,42.01,3.95,42.01,3.95c0,0,16.53-15.83,20.04-20.86,3.51-5.03,0-6.66,0-6.66,0,0-8.02,4.26-23.78-5.44-2.43-1.49-5-2.75-7.66-3.77-6.36-2.44-17.26-6.28-21.16-5.68Z"/>
    <path class="st7" d="M467.89,241.93s22.01,10.32,14.75,29.29c-5.64,14.73-22.53,13.2-29.79,11.78-2.05-.4-3.97-1.28-5.62-2.55-2.23-1.71-5.82-4.38-9.26-6.59s-6.57-4.81-8.67-5.76c-4.63-2.1-1.11-4.41-1.11-4.41,0,0,7.26,1.95,18.19-8.8,1.8-1.77,3.8-3.33,5.9-4.73,4.73-3.16,12.44-8,15.61-8.22Z"/>
    <path class="st1" d="M355.17,403.37l5.36-.96.84,10.29s-2.56,2.04-2.15,7.28,2.7,9.45,2.7,9.45l-3.4.57-3.34-26.63Z"/>
    <g class="st21">
      <path class="st9" d="M307.72,285.15s6.06-2.21,10.46,15.85-.58,23.34-.58,23.34c0,0-6.58-3.3-9.88-15.74-3.3-12.44-1.21-20.92,0-23.45Z"/>
    </g>
    <g class="st21">
      <path class="st9" d="M502.84,273.12s10.79-3,12.59-4.21c0,0,2.92,16.1-9,25.36l-3.59-21.15Z"/>
    </g>
    <g class="st21">
      <path class="st9" d="M274.58,348.38l12.59,14.82s-10.35,6.79-13.25,4.02c-2.6-2.48-4.54-4.31-12.63-17.36l13.29-1.49Z"/>
    </g>
    <g class="st21">
      <polygon class="st9" points="555.44 311.76 546.98 329.56 564.44 332.41 568.28 328.28 573.73 315.35 576.17 305.97 555.44 311.76"/>
    </g>
    <path class="st29" d="M457.76,414.69s2.13,2.13,5.26,1.75,5.28-2.05,5.57-2.71c0,0,.27,1.23-.27,2.78-.44,1.26-1.54,2.63-3.22,3.18-1.79.59-3.66.32-5.05-.69s-2.28-2.74-2.3-4.31Z"/>
    <path d="M319.44,166.43c2.75-4.87,5.95-9.61,10.21-13.22-3.16,4.39-5.06,9.54-6.49,14.67,0,0-3.73-1.45-3.73-1.45h0Z"/>
    <path d="M303.72,221.58c-4.29-3.16-8.96-6.04-14.16-7.55,4.14.12,8.28,1.23,12.22,2.57,1.34.47,2.62.94,3.98,1.53l-2.04,3.44h0Z"/>
    <path class="st11" d="M444.24,295.76c.29-.99,1.12-1.71,2.14-1.86,5.37-.81,19.91-1.93,26.28,8.36,7.88,12.74,11.39,23.38,5.07,38.48,0,0-10.7,10.9-29.41,1.54,0,0-11.88-4.25-31.02,1.78-19.13,6.03-25.27,11.73-31.99,11.77s-11.36,3.68-14.82-4.38c-3.46-8.06,4.76-29.99,8.53-33.94,3.77-3.95,11.07-19.13,24.63-17.84s14.22,2.99,23.02,9.03,13.94-4.2,13.94-4.2c0,0,2.79-5.89,3.63-8.74Z"/>
    <path class="st28" d="M387.34,259.08s-13.1,11.17-6.92,21.81c6.18,10.64,17.84,8.94,17.84,8.94,0,0,2.75-2.65,7.3-7.3,1.23-1.25,3.09-3.29,4.8-5.03,2.19-2.23,1.47-1.73,2.32-2.61.62-.64,2.14-2.64,2.65-3.92,1.05-2.6,4.2-4.05-.34-3.57-1.77.18-11.17-1.11-11.17-1.11,0,0-3.34.16-11.81-4.54l-4.66-2.67Z"/>
    <path class="st28" d="M449.35,252.01s6.53,3.91,8.99,7.9c1.28,2.07,2.13,5.7,1.1,9.03-3.01,9.73-12.9,11.09-12.9,11.09,0,0-1.33-1.03-4.19-2.99-.5-.34-1.09-.92-1.72-1.3-1.93-1.17-3.9-2.36-6.86-4.61s-4.85-2.91-6.05-3.87c-1.03-.82-.86-1.38-.9-1.52-.08-.26-.04-.29.13-.83.14-.42,1.14-1.19,1.14-1.19,0,0,10-.75,16.18-6.92l5.07-4.79Z"/>
    <ellipse cx="448.7" cy="266.4" rx="8.54" ry="8.96" transform="translate(-48.22 107.13) rotate(-12.93)"/>
    <path class="st28" d="M445.36,269.38c0,3.42-2.97,5.71-4.96,3.37-1.42-1.67-3.46-3.78-3.3-3.37,1.21,2.98,1.85-6.2,4.13-6.2s4.13,2.77,4.13,6.2Z"/>
    <ellipse cx="392.78" cy="275.93" rx="10.31" ry="10.82"/>
    <ellipse class="st28" cx="383.7" cy="274.5" rx="3.68" ry="4.37"/>
    <g>
      <path class="st24" d="M382.41,367.14c-15.5-.28-18.86-13.37-19-22.96-.1-6.55,1.45-13.02,4.24-18.95,2.94-6.25,8.27-15.1,11.54-18.63,6.36-6.86,12.69-10.44,17.56-14.56,2.8-2.37,5.28-5.06,7.49-7.98,14.56-19.25,24-16.56,26.24-15.52.5.23,1.02.43,1.52.66,19.35,8.98,12.73,27.44,8.18,36.15-2.42,4.64-8.2,6.49-12.73,3.87-.51-.3-.78-.51-.78-.51-13.97-8.35-16.7-9.45-30.98-6.37-14.28,3.08-29.8,35.8-25.78,47.71,4.03,11.91,19.62,5.43,40.06-3.33,12.15-5.21,22.63-5.65,29.13-5.15,3.5.27,6.92,1.14,10.09,2.65,16.67,7.91,24-4.23,27.02-6.1.42-.26-3.48,9.72-3.72,10.16-3.55,6.65-5.05,8.97-10.51,9.38-4.37.33-8.74-.48-12.8-2.12-5.74-2.31-18.45-6.31-28.31-1.45,0,0-25.31,13.31-38.47,13.07Z"/>
      <path d="M382.76,369.14c-.13,0-.26,0-.39,0-13.09-.24-20.73-9.33-20.96-24.93-.1-6.61,1.43-13.46,4.43-19.83,2.92-6.2,8.39-15.37,11.88-19.14,4.38-4.73,8.73-7.93,12.57-10.75,1.85-1.36,3.6-2.65,5.17-3.97,2.57-2.18,4.99-4.75,7.19-7.66,15.31-20.24,25.82-17.46,28.68-16.12.23.1.46.2.69.3.28.12.55.23.82.36,6.71,3.12,11.11,7.62,13.07,13.38,3.05,8.98-.47,18.83-3.96,25.51-1.44,2.76-3.98,4.84-6.96,5.7-2.91.84-5.95.48-8.55-1.03-.43-.25-.73-.46-.9-.58-13.55-8.1-15.83-9.01-29.44-6.08-5.28,1.14-11.62,7.44-16.96,16.85-6.14,10.81-9.22,22.7-7.34,28.27.74,2.2,1.94,3.64,3.66,4.41,6.31,2.81,19.62-2.89,33.72-8.93,12.46-5.34,23.24-5.83,30.08-5.3,3.82.29,7.45,1.25,10.79,2.83,12.53,5.94,18.95-.28,22.79-3.99.9-.88,1.62-1.57,2.33-2l1.3-.81,1.14,1.05c1.12,1.05.9,1.63-1.2,7.16-.48,1.27-1.89,4.92-2.14,5.4-3.57,6.7-5.58,9.94-12.12,10.43-4.52.34-9.13-.42-13.7-2.26-4.93-1.98-17.39-6.09-26.67-1.52-1,.52-25.41,13.28-39.01,13.28ZM382.45,365.14c.11,0,.22,0,.33,0,12.6,0,36.93-12.72,37.18-12.85,10.39-5.12,23.24-1.34,29.98,1.37,4,1.61,8,2.27,11.91,1.98,4.27-.32,5.34-1.66,8.89-8.33.11-.25.54-1.33,1.07-2.68-4.71,3.55-12.19,6.73-23.47,1.38-2.9-1.38-6.06-2.2-9.39-2.46-6.4-.49-16.48-.03-28.19,4.99-15.57,6.67-29.02,12.44-36.92,8.91-2.76-1.23-4.71-3.51-5.82-6.78-2.64-7.81,1.94-21.46,7.65-31.52,5.98-10.54,13.12-17.39,19.6-18.78,14.73-3.18,17.81-2.13,32.43,6.61l.22.16s.22.16.54.35c1.64.95,3.57,1.18,5.43.65,1.93-.56,3.58-1.91,4.52-3.71,2.56-4.9,6.45-14.33,3.72-22.37-1.59-4.69-5.28-8.4-10.97-11.04-.22-.1-.45-.2-.68-.29-.28-.12-.56-.24-.84-.36-1.54-.72-9.95-3.4-23.8,14.91-2.38,3.14-5,5.94-7.8,8.3-1.67,1.41-3.47,2.74-5.38,4.14-3.69,2.72-7.88,5.8-12.01,10.25-2.89,3.12-8.12,11.59-11.2,18.13-2.74,5.82-4.14,12.07-4.05,18.07.14,9.44,3.21,20.74,17.04,20.99Z"/>
    </g>
    <g>
      <path class="st6" d="M419.38,262.52c.23-.15.24-.49.02-.66-4.69-3.63-46.22-35.04-64.39-23.31,0,0-8.04,2.34-9.38,14.73-.04.33.33.56.61.39,3.25-1.99,18.19-8.74,49.75,10.1,0,0,0,0,.02,0,.27.14,12.4,6.22,23.37-1.26Z"/>
      <path d="M407.13,268.24c-6.62,0-11.69-2.51-12.02-2.68l-.19-.11c-30.88-18.43-45.09-11.63-47.63-10.08-.78.48-1.75.47-2.53-.02-.78-.5-1.21-1.37-1.11-2.29,1.33-12.31,8.83-15.72,10.49-16.33,19.01-11.85,58.69,17.52,66.48,23.54.61.47.95,1.21.93,1.97-.02.77-.42,1.48-1.05,1.92h0c-4.55,3.1-9.26,4.07-13.38,4.07ZM396.97,262.02c.93.46,10.26,4.8,19.36,0-16.97-12.76-46.91-30.39-60.22-21.8l-.25.16-.28.08c-.23.07-5.56,1.84-7.46,10.09,6.66-2.53,22.01-4.55,48.85,11.46ZM418.25,260.86s0,0,0,0t0,0h0ZM345.21,251.96h0s0,0,0,0Z"/>
    </g>
  </g>
  <g id="Capa_3">
    <path class="st19" d="M374.77,353.36s-1.31-34.16,35.61-31.53c0,0,22.34.66,32.72,18.39,0,0-17.34-2.63-35.21,5.78s-26.01,9.46-26.41,9.46-6.72-.67-6.7-2.1Z"/>
    <path class="st5" d="M438.63,339.89s-12.09-11.88-24.7-7.28-17.36,8.36-20.9,19.55l19.32-7.86s14.05-5.67,26.28-4.41Z"/>
    <g>
      <path class="st7" d="M479.79,403.06s10.52-2.65,18.46-8.06c1.04-.71,2.47-.59,3.34.32,1.69,1.78,3.71,5.94,2.8,15.54-.23,2.43-1.65,4.58-3.76,5.8-4.96,2.86-14.19,7.89-17.97,7.97l-1.76.55-1.1-22.13h0Z"/>
      <path d="M479.03,427.87l-1.31-26.35,1.59-.4c.1-.03,10.28-2.64,17.83-7.77,1.85-1.26,4.39-1,5.92.6,2.06,2.17,4.31,6.9,3.34,17.11-.29,3.05-2.07,5.79-4.75,7.34-9.06,5.23-15.32,7.99-18.62,8.22l-3.98,1.25ZM481.87,404.55l.9,18.07c2.49-.16,8.76-3.02,16.86-7.7,1.57-.9,2.6-2.5,2.77-4.26.87-9.17-1.04-12.69-2.26-13.97-.18-.19-.52-.21-.76-.05-6.37,4.33-14.2,6.93-17.51,7.9Z"/>
    </g>
    <g>
      <path class="st7" d="M390.84,417.53s-17.26.25-27-3.88c0,0-4.46.17-2.06,10.57s14.53,11.23,14.53,11.23l18.66,3.06-4.13-20.97Z"/>
      <path d="M397.49,440.94l-21.41-3.5c-4.74-.36-14.11-3.46-16.25-12.77-1.2-5.22-.96-8.99.72-11.18,1.29-1.68,2.91-1.82,3.22-1.84l.44-.02.41.17c9.24,3.92,26.03,3.72,26.19,3.72l1.67-.02,5.01,25.43ZM363.82,415.8c-.54.56-1.33,2.6-.1,7.97,2.03,8.8,12.29,9.65,12.72,9.68l.18.02,15.82,2.59-3.25-16.54c-4.51-.05-17.04-.49-25.37-3.73Z"/>
    </g>
    <polygon points="361.44 413.13 360.28 402.82 353.83 404.07 353.07 400.14 363.77 398.07 365.41 412.69 361.44 413.13"/>
    <path d="M359.87,398.96c.12-3.76.44-7.56.13-11.32,1.61,3.47,2.63,7.18,3.84,10.81,0,0-3.97.51-3.97.51h0Z"/>
    <g>
      <g class="st26">
        <path class="st9" d="M505.28,285.75c.02,3.8-.23,7.7-.76,11.69-6.28,46.85-34.63,80.67-81.26,81.81-41.91,1.02-93.84-18.35-96.72-52.29-.11-1.35,4.51-6.34,4.76-7.67.15,40.88,36.46,56.41,79.02,53.34,22.14-1.6,50.23-5.32,67.15-20.47,17.61-15.77,23.68-43.39,27.82-66.4Z"/>
      </g>
      <g class="st26">
        <path class="st22" d="M491.14,256.17c9.08,8.93,14.91,25.85,12.82,43.47-1.97,16.58-9.17,32.44-19.85,45.98-5.08,6.44-15.64,18.9-34.14,26.25-10.66,4.24-26.28,5.19-39.05,6.42-12.33,1.19-27.17-4.9-37.13-7.59,43.04-5.04,93.75-5.95,103.68-18.53,8.7-11.01,16.21-32.41,17.55-50.6.75-10.18.59-17.65,0-25.62-.42-5.65-3.54-14.88-3.88-19.77Z"/>
      </g>
    </g>
    <g class="st21">
      <path class="st9" d="M363.43,421.95s-.25,8.85,10.32,11.25,18.94,2.97,18.94,2.97l-1.49-7.4s-20.59-1.99-27.77-6.81Z"/>
    </g>
    <g class="st21">
      <path class="st9" d="M482.37,416.25s19.24-8.75,20.27-10.53.77,8.17.77,8.17c0,0-14.52,8.79-14.87,9s-7.04,1.16-7.04,1.16v-7.2l.87-.6Z"/>
    </g>
  </g>
</svg>