<?xml version="1.0" encoding="UTF-8"?>
<svg id="Capa_2" xmlns="http://www.w3.org/2000/svg" version="1.1" viewBox="0 0 946.32 595.28">
  <!-- Generator: Adobe Illustrator 29.4.0, SVG Export Plug-In . SVG Version: 2.1.0 Build 152)  -->
  <defs>
    <style>
      .st0 {
        fill: #1d1d1b;
      }

      .st0, .st1, .st2, .st3, .st4, .st5, .st6, .st7, .st8, .st9, .st10, .st11, .st12, .st13 {
        stroke: #1d1d1b;
        stroke-miterlimit: 10;
      }

      .st1, .st2, .st8, .st9, .st11, .st12, .st13 {
        stroke-width: 4px;
      }

      .st1, .st4, .st8 {
        fill: none;
      }

      .st1, .st4, .st9 {
        stroke-linecap: round;
      }

      .st2, .st5 {
        fill: #27b40b;
      }

      .st3, .st7 {
        fill: #1c1c1c;
      }

      .st3, .st14 {
        opacity: .35;
      }

      .st4 {
        stroke-width: 6px;
      }

      .st15, .st12 {
        fill: #fff;
      }

      .st6, .st13 {
        fill: #d5d5d5;
      }

      .st9 {
        fill: #eec12f;
      }

      .st16 {
        fill: #f8e8aa;
      }

      .st17 {
        fill: #2f9316;
      }

      .st11 {
        fill: #7c7c7c;
      }

      .st18 {
        opacity: .7;
      }
    </style>
  </defs>
  <g>
    <path class="st5" d="M360.85,104.17s42.23-15.4,64.56,13.28c0,0-34.99-37.19-41.54-58.91,0,0,49.63-7.23,66.39,57.35,0,0-16.8-39.58-10.36-60.9,0,0,37.8-15.87,44.54,76.53l-30.98,13.22-34.8-7.71c-1.13.29-47.48-4.73-56.32-34.69"/>
    <path class="st10" d="M453.66,146.81l-35.34-7.83c-6.78-.18-48.69-6.79-57.72-35.5l-.44-1.2c.34-.13,27.12-9.63,49.74.5-10.64-12.84-24.05-30.75-27.95-43.68l-.67-2.22,2.3-.33c.53-.08,13.14-1.82,27.99,4.6,8.28,3.58,18.21,10.21,26.72,22.52-2-10.23-2.81-20.99-.31-29.27l.27-.9.87-.36c.38-.16,9.4-3.82,19.69,2.49,15.35,9.41,24.64,34.89,27.62,75.73l.1,1.42-32.88,14.03ZM418.63,134.96l34.64,7.67,29.07-12.4c-3.71-47.97-15.9-65.17-25.52-71.13-6.93-4.3-13.06-3.19-15.28-2.56-2.95,11.32.48,27.75,4.19,40.33,2.46,5.41,4.66,11.54,6.46,18.51l-3.78,1.28c-.3-.71-3.51-8.35-6.53-18.56-7.41-16.02-18.24-27.38-31.9-33.28-10.13-4.37-19.22-4.66-23.4-4.5,6.17,16.41,26.55,40.42,35.73,50.74,1.63,1.54,3.19,3.25,4.67,5.15l-3.04,2.6c-.3-.32-2.01-2.15-4.59-5.04-17.68-16.46-44.19-11.5-54-8.88,10.49,25.5,50.69,29.93,53.03,30.12l.24-.06Z"/>
  </g>
  <polyline class="st6" points="316.01 369.76 315.98 370.54 309.11 532.82 351.24 524.87 382.82 524.87 569.52 530.08 583.57 548.61 617.87 545.55 629.24 539.26 641.07 528.79 647.55 516.38 649.97 498.43 648.7 481.96 644.83 471.68 639.36 459.19 631.24 445.88 623.46 435.85 614.39 426.05 599.12 413.99 584.8 400.6 570.78 393.28 542.98 406.68 521.17 417.84 481.2 429.04 447.24 433.26 404.32 419.94 368.41 413.99 357.72 400.15"/>
  <path class="st13" d="M517.32,491.51l37.47-15.77s28.04,11.65,32.07,44.06c0,0-.02,21.28-7.28,34.55l-31.61-3.35"/>
  <path class="st13" d="M369.09,416.77l-7.61,38.12-23.33,5.68s-9.42,2.99-20.16-1.48-31.17-21.68-31.17-21.68c-9.33-6.18-17.47-19.05-17.47-19.05l17.87-23.75"/>
  <path class="st5" d="M611.34,298.02c0,69.52-73.3,125.87-163.73,125.87s-147.17-76.59-147.17-146.1c0-11.83-1.35-22.33,1.83-32.22,15.48-48.18,70.32-73.42,145.35-73.42,52.85,0,105.84,12.95,135.78,42.83,21.28,21.24,27.95,54.15,27.95,83.04Z"/>
  <path class="st13" d="M303.66,239.16s-29.2,1.43-32.88,34.7c-3.68,33.27,4.59,48.4,4.59,48.4,0,0,6.37,13.92,25.46,17.88,0,0-1.72-92.91,2.83-100.98Z"/>
  <path class="st13" d="M600.46,228.7s16.69,56.61,5.77,97.49c0,0,17.46,4.09,30.07-16.72,9.43-15.57,2.61-45.56-1.43-59.67-1.76-6.15-5.46-11.57-10.61-15.35-5.93-4.36-14.5-8.46-23.8-5.75Z"/>
  <path class="st13" d="M302.75,241.42s43.71-111.2,148.29-112.26c104.58-1.06,141.75,75.82,151.03,98.67,0,0-41.66-68.77-143.15-67.52-107.01,1.32-128.47,33.31-156.18,81.11Z"/>
  <path class="st13" d="M303.66,239.16c-.04.11.1.21.18.11,4.94-6.42,51.47-63.46,145.37-62.93,100.97.57,134.05,27.46,155.67,76.4,0,0,3.41-87-145.95-92.43,0,0-121.31-10.38-155.26,78.85Z"/>
  <path class="st13" d="M300.74,334.07s18.49,75.02,140.24,89.26c121.75,14.24,164.2-109.99,168.7-119.94,0,0,1.68,105.88-131.39,135.59-12.43,2.77-36.45,2.07-48.87-.75-37.23-8.47-116.97-34.56-128.68-104.16Z"/>
  <path class="st13" d="M274.99,426.56c-.95-1.53,1.03.14-.09,1.55-8.67,10.85-33.98,45.24-28.95,71.46,6.04,31.53,22.34,37.58,22.34,37.58,0,0,18.45,10.51,56.26-1.84,0,0,24.94-6.57,22.83-38.36,0,0,11.89-27.59,14.09-42.04,0,0-16.98,6.73-34.59,6.25-15.31-.41-45.57-24.38-51.9-34.59Z"/>
  <path class="st0" d="M351,493.48c-4.69,8.78-11.99,15.86-20.69,20.54,5.78-4.19,10.62-9.61,14.1-15.81,1.1-1.95,2.18-4.15,2.88-6.21,0,0,3.71,1.49,3.71,1.49h0Z"/>
  <path class="st4" d="M351.24,285.75s25.75,30.31,53.08,0"/>
  <path class="st4" d="M489.96,287.31s24.28,31.5,53.02,2.53"/>
  <path class="st9" d="M411.98,356.3c4.09,18.83,13.06,32.14,23.35,35.36,7.21,2.25,15.78,1.25,20.85-.09,8.93-2.36,13.52-7.08,17.34-11.78,4.15-5.1,6.71-12.35,9.28-24.97,2.22-10.88.86-21.47-1.38-29.95-3.8-14.4-12.96-26.66-25.64-33.03-11.77-5.92-27.35-7.31-41.13,12.66-21.39,31.01-1.08,56.39,7.47,64.96,2.34,2.34,5.7,3.08,8.73,1.96,2.6-.97,5.51-2.73,7.1-5.95,2.53-5.11,12.53-4.83,17.2-4.4,1.72.16,3.44-.16,5-.95,4.33-2.17,11.52-7.76,14.59-11.11,5.87-6.41,5.42-5.64,8.35-11.25"/>
  <path class="st0" d="M363.15,243.75s14.43-11.64,35.03-10.69c2.25.1,4.5-.66,6.1-2.26,2.37-2.37,2.89-7.92-11.82-7.68-23.56.39-32.32,20.63-32.32,20.63,0,0-.66,4.07,3.02,0Z"/>
  <path class="st0" d="M535.12,245.59s-14.43-11.64-35.03-10.69c-2.25.1-4.5-.66-6.1-2.26-2.37-2.37-2.89-7.92,11.82-7.68,23.56.39,32.32,20.63,32.32,20.63,0,0,.66,4.07-3.02,0Z"/>
  <path class="st12" d="M393.07,469.52c-.38,0-.76,0-1.14-.02-3.63-.13-26.49-.27-26.49,16.66,0,22.25,5.94,51.68,5.94,51.68,0,0,2.82,9.81,29.27,10.86s69.55-1.58,69.55-1.58c0,0-5.26-36.26,25.93-51.68,0,0-.7-22.25-12.96-24.18-11.6-1.82-82.49-1.76-90.09-1.75Z"/>
  <path class="st8" d="M367.88,480.03s89.17,4.91,104.93,1.75c15.77-3.15,15.55-8.04,15.55-8.04"/>
  <path class="st8" d="M474.74,482.84s7.78,17.71,6.25,24.44"/>
  <circle class="st2" cx="425.14" cy="515.75" r="14.32"/>
  <path class="st0" d="M559.85,478.16c13.22-6.75,28.53-8.7,43.13-6.71-7.21-.32-14.48.3-21.48,2.03-6.82,1.68-13.62,4.29-19.51,8.07,0,0-2.14-3.38-2.14-3.38h0Z"/>
  <path class="st0" d="M560.16,478c11.38-3.36,23.72-2.37,34.76,1.68-5.58-1.34-11.32-1.94-17.02-1.59-5.51.34-11.18,1.43-16.22,3.61,0,0-1.52-3.7-1.52-3.7h0Z"/>
  <g>
    <g class="st14">
      <path class="st7" d="M607.23,260.67c.76,6.66.71,20.4.48,27.3-.16,4.78,2.64,10.78,1.97,15.42-3.15,21.75-21.49,41.47-34.55,58.74-16.14,21.34-38.06,40.91-62.01,51.27-22.58,9.76-46.83,11.02-73.94,7.94-86.19-9.81-147.53-42.28-144.88-123.32.08-2.33,5.98,2.29,6.17,0,8.04,71.74,66.17,112.08,144.08,114.41,82.69,2.46,156.27-74.05,162.67-151.75Z"/>
    </g>
    <g class="st18">
      <path class="st15" d="M316.01,265.63s10.35-42.54,25.32-49.65c14.96-7.11,54.16-17.77,53.5-16.68,0,0-42.14,15.22-53.32,29.72-8.62,11.18-25.5,36.62-25.5,36.62Z"/>
    </g>
  </g>
  <path class="st11" d="M583.56,376.36s37.81,6.8,38.86,25.02,0,31.88,0,31.88c0,0-22.41-27.68-52.9-40.64l14.04-16.26Z"/>
  <path class="st8" d="M569.52,392.61s67.61,34.69,78.83,91.8-39.41,62.01-39.41,62.01l-26.84,2.31"/>
  <path class="st8" d="M591.62,406.68s-37.33,12.68-37.17,44.44c.13,25.97,8.01,28.73,8.01,28.73"/>
  <line class="st8" x1="448.99" y1="440.74" x2="447.24" y2="469.48"/>
  <line class="st8" x1="339.72" y1="524.87" x2="369.09" y2="524.87"/>
  <polyline class="st8" points="382.82 482.15 386.28 517.1 398.89 530.08 400.64 548.7"/>
  <path class="st5" d="M580.2,215.77"/>
  <path class="st16" d="M411.94,321.84s6.63-11.94,10.93-7.79c4.3,4.15.43,34.5,3.67,34.68,4.73.26,15.63-25.35,18.65-31.88,2.46-5.32,28.76-1.06,35.15,10.68,0,0-.13-4.07-2.8-10.16-4.47-10.19-14.74-24.92-33.72-27.42-2.99-.39-4.84-.17-8.93.35-6.87.87-15.39,9.36-20.15,16.64-9.36,14.32-7.36,20.32-7.36,20.32"/>
  <path class="st2" d="M535.8,551.33s9.85.76,16.69-2.38c6.83-3.14,7.36-17.85,7.36-17.85,0,0-.19-20.03-16.13-32.35-5.15-3.98-11.35-6.34-17.79-7.25-8.99-1.27-23.7-1.36-35.32,8.2-18.02,14.83-20.03,31.99-20.03,31.99,0,0-2.18,22.14,14.12,19.25,0,0,9.99,10.64,20.76,3.42,0,0,12.97,12.14,31.76-3.5"/>
  <path class="st1" d="M484.28,551s7.28-32.43,25.06-36.37"/>
  <path class="st1" d="M505.45,554.35s3.72-23.69,21.94-28.42"/>
  <g class="st14">
    <path class="st7" d="M638.1,273.58l3.42,16.2c1.6,9.63-2.27,16.7-6.83,23.04-5.72,7.95-12.42,13.95-24.39,12.9-2.05-.18-3.99-2.01-4.34-4.08l5.6-30.72c.79,1.36-2.73,8.64-1.23,8.79l-1.94-2.71c17,1.5,26.96-8.53,29.7-23.42Z"/>
  </g>
  <g class="st14">
    <path class="st7" d="M319.1,309.65l1.33,33.6c.09,2.32-1.73,4.28-4.05,4.37-12.79.5-24.53-4.48-32.94-12.86-7.59-7.57-12.46-17.93-12.92-29.49l-.69-17.4c7.52,14.99,23.35,25.02,41.21,24.31l4.42-.18c1.61-.07,2.95-1.01,3.63-2.35Z"/>
  </g>
  <path class="st2" d="M332.67,427.48c4.72,1.2,23.6,6.63,35.74-13.49s-16.86-46.11-21.74-50.24c-.52-.44-.93-.98-1.21-1.61-1.39-3.14-5.17-14.29-6.97-45.55-.19-3.31-1.84-6.43-4.61-8.24-.82-.54-1.69-.94-2.57-1.07-1.82-.27-3.24-1.68-3.67-3.47-1.04-4.39-4.91-11.38-11.63-9.92-.64.14-4.34.56-6.89,1.75-1.06.49-2.27.6-3.37.22-3.21-1.1-10.5-2.13-18.08,6.89-10.16,12.09-11.04,36.09-11.04,36.09,0,0-1.58,41.34,15.24,63.07,15.32,19.79,40.46,25.49,40.82,25.58Z"/>
  <path class="st1" d="M309.11,295.64s-25.84,22.7-14.27,62.99"/>
  <path class="st1" d="M329.08,306.22s-21.28,15.8-14.1,56.44"/>
  <path class="st3" d="M334.77,460.91s-10.48,67.6-36.77,80.06c0,0,24.36.28,39.67-15.53,5.1-5.27,7.29-12.78,9.77-22.07,9.93-37.18,14.04-48.48,14.04-48.48l-26.7,6.02Z"/>
  <path class="st3" d="M386.63,426.6l-3.81,42.04s-17.73,2.34-17.39,14.99c.34,12.65,2.45,41.24,2.45,41.24h-25.58s6.8-20.37,6.83-24.16,8.93-29.62,8.93-29.62l11.02-52.02,17.54,7.53Z"/>
  <path class="st3" d="M475.88,482.15s8-3.04,11.49-6.41c3.49-3.37,9.66,15.15,9.66,15.15l-1.61,5.46-11.68,9.86-7.08-15.44-1.45-8.62h.66Z"/>
  <path class="st3" d="M625.9,438.81s16.9,52.92,3.53,72.93c-12.26,18.34-9.39,24.69-45.86,36.87l30.44-2.88,17.87-8.19,14.01-11.6,5.61-16.72-2.33-19.92-4.34-17.62-6.29-16.57-9.19-11.84-3.44-4.45Z"/>
  <path class="st17" d="M501.11,181.61s50.89,20.46,65.45,41.8c22.05,32.31,35.52,60.51,32.9,73.5l3.48-11.46c.11-.39.21-.77.29-1.17l3.14-14.89-1.46-13.41s-8.6-17.76-17.88-31.02c-7.24-10.35-14.02-15.75-23.12-22.32-20.76-14.98-62.8-21.02-62.8-21.02Z"/>
</svg>