<?xml version="1.0" encoding="utf-8"?>
<!-- Generator: Adobe Illustrator 27.9.0, SVG Export Plug-In . SVG Version: 6.00 Build 0)  -->
<svg version="1.1" id="Capa_1" xmlns="http://www.w3.org/2000/svg" xmlns:xlink="http://www.w3.org/1999/xlink" x="0px" y="0px"
	 viewBox="0 0 240.44 212.04" style="enable-background:new 0 0 240.44 212.04;" xml:space="preserve">
<style type="text/css">
	.st0{clip-path:url(#SVGID_00000108306703475111472110000009288019980076102068_);fill:#0D1017;}
	.st1{clip-path:url(#SVGID_00000108306703475111472110000009288019980076102068_);}
</style>
<g>
	<defs>
		<circle id="SVGID_1_" cx="114.89" cy="108.15" r="50.38"/>
	</defs>
	<use xlink:href="#SVGID_1_"  style="overflow:visible;fill:#FFFFFF;"/>
	<clipPath id="SVGID_00000016068495461067521100000012816810316179821959_">
		<use xlink:href="#SVGID_1_"  style="overflow:visible;"/>
	</clipPath>
	<path style="clip-path:url(#SVGID_00000016068495461067521100000012816810316179821959_);fill:#0D1017;" d="M107.52,112.96
		c1.09,2.78,2.05,5.46,3.2,8.05c0.56,1.26,1.32,2.5,2.24,3.52c1.5,1.68,3.26,1.54,4.67-0.21c2.55-3.18,3.62-6.94,4.12-10.91
		c0.11-0.91,0.2-1.82,0.34-3.13c2.06,3.55,4.18,6.33,8.5,4.45c0.84,2.54,1.66,5.02,2.53,7.64c-0.61,0.29-1.27,0.62-1.95,0.91
		c-1.49,0.63-2.27,1.7-2.33,3.36c-0.01,0.36-0.43,0.93-0.77,1.02c-9.82,2.66-19.15,1.48-28.23-3.15
		c-8.29-4.22-12.42-16.34-8.93-24.72c1.06-2.54,2.42-4.97,3.82-7.35c1.42-2.4,3.78-3.71,6.28-4.77c6.71-2.83,13.73-3.2,20.87-2.68
		c5.46,0.39,10.53,1.86,15.35,4.58c4.58,2.59,6.79,6.41,7.28,11.46c0.45,4.69-0.34,9.16-2.37,13.42c-0.14,0.29-0.33,0.55-0.59,0.98
		c-2.11-2.52-3.34-6.01-7.32-5.97c-0.23-2.05-0.39-3.97-0.68-5.86c-0.33-2.14-1.42-3.86-3.23-5.08c-1.88-1.28-4.11-1.08-5.46,0.32
		c0.63,0.78,1.46,1.46,1.79,2.32c0.32,0.86,0.3,1.95,0.13,2.88c-0.2,1.12-0.93,1.97-2.2,2.02c-1.25,0.05-1.81-0.79-2.18-1.84
		c-0.45-1.28-0.8-2.62-1.4-3.82c-1.76-3.48-4.71-5.09-8.56-5.12c-1.67-0.01-3.04,0.68-3.91,2.1c-0.98,1.59-1.84,3.26-2.8,4.97
		c-1.68-1.55-3.41-3.22-6.23-2.15c0.19,1.07,0.56,2.13,0.5,3.16c-0.05,0.95-0.32,2.11-0.94,2.75c-1.06,1.09-2.23,0.42-3.43-0.8
		c-0.13,1.16-0.35,2.05-0.32,2.93c0.09,3.01,1.01,5.75,3.29,7.82c2.47,2.23,5.12,1.96,7.2-0.63
		C106.43,114.69,106.92,113.85,107.52,112.96z"/>
	<path style="clip-path:url(#SVGID_00000016068495461067521100000012816810316179821959_);fill:#0D1017;" d="M143.79,138.49
		c-1.06-1.24-2.11-2.49-3.34-3.93c4.93-0.19,9.22-1.86,13.38-4.52c0.92,3.12,1.53,6.05-0.14,8.92c-0.97,1.66-2.64,2.14-4.4,1.86
		c-3.09-0.49-6.16-1.16-9.23-1.8c-1.39-0.29-2.77-0.67-4,0.44c-0.16,0.15-0.28,0.33-0.52,0.62c0.48,0.04,0.83-0.02,1.09,0.12
		c0.4,0.21,0.95,0.52,1.01,0.86c0.06,0.34-0.31,1-0.64,1.14c-1.33,0.55-2.73,0.94-4.28,1.45c-0.16-0.81-0.29-1.47-0.42-2.14
		c-0.5-2.54-1.39-3.2-3.96-3.14c-5.44,0.13-10.87,0.25-16.31,0.3c-1.78,0.02-3.56-0.22-5.34-0.3c-2.26-0.09-3.37,0.84-3.76,3.09
		c-0.12,0.68-0.25,1.36-0.37,2.04c-0.26-0.02-0.41-0.01-0.54-0.05c-4.48-1.26-4.49-1.26-4.49-5.9c0-1.25,0-2.49-0.2-3.77
		c-1,1.41-1.24,3.05-1.18,4.67c0.06,1.49-0.61,2.25-1.93,2.43c-0.53,0.07-1.35-0.16-1.66-0.55c-2.43-3.06-3.43-6.64-3.37-10.5
		c0.01-0.61,0.58-1.38,1.1-1.79c1.14-0.89,2.5-1.5,3.63-2.4c1.09-0.86,1.79-0.51,2.79,0.19c2.91,2.04,5.72,4.34,8.92,5.81
		c7.95,3.65,16.08,3.47,24.13,0.03c0.52-0.22,1.02-0.48,1.52-0.73c2.43-1.17,4.38-0.49,5.97,1.66c1.37,1.87,3.04,3.54,4.64,5.23
		c0.42,0.44,1.09,0.64,1.64,0.95C143.62,138.69,143.71,138.59,143.79,138.49z"/>
	<path style="clip-path:url(#SVGID_00000016068495461067521100000012816810316179821959_);fill:#0D1017;" d="M122.35,161.04
		c1.3-0.82,2.5-1.58,3.71-2.33c-0.05-0.14-0.09-0.28-0.14-0.42c-0.45,0.04-0.92,0.02-1.35,0.13c-1.73,0.43-3.43,1.16-5.17,1.28
		c-2.11,0.14-4.26-0.2-6.39-0.38c-0.49-0.04-0.97-0.24-1.82-0.47c1.33,2.24,3.49,2.17,5.39,2.96c-0.46,2.18-0.91,4.37-1.4,6.54
		c-0.04,0.2-0.26,0.4-0.44,0.52c-4.58,3.13-11.31,3.84-15.77,0.66c-0.79-0.56-1.48-1.62-1.69-2.56c-0.79-3.49-0.4-6.94,1.13-10.17
		c0.75-1.58,1.02-3.04,0.38-4.71c-0.37-0.97-0.42-2.05-0.65-3.26c0.74,0.16,1.2,0.23,1.64,0.35c2.49,0.65,2.48,0.65,2.66,3.26
		c0.17,2.55,1,3.67,3.59,3.8c5.76,0.28,11.52,0.36,17.29,0.42c2.01,0.02,4.02-0.23,6.02-0.45c2.4-0.27,3.29-1.26,3.45-3.64
		c0.04-0.51-0.11-1.09,0.08-1.53c0.21-0.51,0.61-1.12,1.07-1.32c1.15-0.48,2.4-0.74,3.85-1.16c-0.44,3.71,1.69,6.54,2.64,9.73
		c0.16,0.55,0.11,1.36-0.2,1.82c-2.78,4.22-6.63,6.66-11.78,6.87c-1.84,0.07-3.13-0.58-3.95-2.3
		C123.94,163.46,123.14,162.34,122.35,161.04z"/>
	<path style="clip-path:url(#SVGID_00000016068495461067521100000012816810316179821959_);" d="M104.22,180.13
		c7.48,2.32,12.39,1.32,12.9-2.43c-5.08,3.63-9.59,3.35-14.19-1.04c-1.46-1.4-2.67-3.06-3.99-4.6c0.11-0.12,0.22-0.25,0.33-0.37
		c0.34,0.09,0.69,0.15,1.01,0.28c3.98,1.63,7.97,1.51,11.89-0.14c1.32-0.56,2.23-0.31,3.32,0.52c3.01,2.29,4.81,5.1,4.35,9.02
		c-0.76,6.49-9.52,11.01-15.19,7.85c-1.05-0.58-1.68-1.47-1.53-2.63C103.39,184.43,103.84,182.31,104.22,180.13z"/>
	<path style="clip-path:url(#SVGID_00000016068495461067521100000012816810316179821959_);fill:#0D1017;" d="M137.84,123.69
		c-4.4-1.91-5.02-5.54-5.44-9.26c-0.06-0.57,0.09-1.23,0.32-1.77c0.81-1.95,1.91-2.29,3.57-0.98c2.61,2.07,4.45,4.65,4.91,8.07
		c0.63,4.61,4.14,7.15,8.72,6.38c0.42-0.07,0.83-0.14,1.25-0.23c0.74-0.16,1.44-0.22,1.73,0.69c0.25,0.79,0.59,1.58-0.33,2.28
		c-3.64,2.77-7.7,4.26-12.28,4.09c-0.56-0.02-1.35-0.58-1.58-1.09c-0.87-1.93-2.33-2.82-4.35-3.07c-0.88-0.11-1.82-0.28-2.55-0.72
		c-0.63-0.37-1.45-1.24-1.37-1.77c0.1-0.69,0.91-1.61,1.59-1.8c1.51-0.44,3.14-0.49,4.72-0.69
		C136.96,123.77,137.19,123.75,137.84,123.69z"/>
	<path style="clip-path:url(#SVGID_00000016068495461067521100000012816810316179821959_);fill:#0D1017;" d="M113.1,155.52
		c-0.1-0.94-0.22-1.55-0.21-2.15c0.02-1.88-0.25-3.52-1.9-4.86c-0.68-0.55-0.81-1.92-0.97-2.95c-0.13-0.86,0.08-1.77,0.16-2.89
		c6.83,0.22,13.67,0.68,20.57-1.15c0.12,1.22,0.32,2.36,0.34,3.51c0.05,2.53,0,5.07,0,7.61c0,0.95-0.32,1.77-1.34,1.84
		C124.24,154.84,118.73,155.17,113.1,155.52z M119.45,148.9c0.01,2.47,1.28,3.99,3.34,4c2.06,0.01,3.48-1.6,3.48-3.95
		c0-2.35-1.43-3.96-3.49-3.94C120.73,145.05,119.44,146.55,119.45,148.9z"/>
	<path style="clip-path:url(#SVGID_00000016068495461067521100000012816810316179821959_);fill:#0D1017;" d="M112.69,96.68
		c4.24,0.05,7.61,3.12,8.39,7.6c0.22,1.24,0.28,2.51,0.38,3.77c0.06,0.84-0.34,1.39-1.22,1.33c-2.67-0.19-4.92,0.67-6.94,2.44
		c-1.24,1.09-2.78,0.94-4.22,0.2c-1.66-0.86-2.81-2.18-2.7-4.1c0.19-3.3,0.85-6.5,2.8-9.3C110.05,97.35,111.21,96.59,112.69,96.68z"
		/>
	<path style="clip-path:url(#SVGID_00000016068495461067521100000012816810316179821959_);fill:#0D1017;" d="M128.62,168.56
		c5.38-0.41,9.48-2.95,13.02-7.16c0.41,2.39,1.07,4.78,1.17,7.18c0.08,2.06-2.61,3.92-5.46,4.22c-1.25,0.13-2.51,0.21-3.81,0.31
		c2.21,2.11,6.53,0.86,10.94-3.25c0.7,2.09,1.58,4.01,1.94,6.02c0.36,2.04-2.56,4.15-4.89,3.6c-1.34-0.31-2.7-0.86-3.86-1.6
		c-3.46-2.17-6.21-5.12-8.58-8.43C128.93,169.24,128.83,168.98,128.62,168.56z"/>
	<path style="clip-path:url(#SVGID_00000016068495461067521100000012816810316179821959_);fill:#0D1017;" d="M90.98,142.05
		c-1.66,0.98-3.53,2.24-5.53,3.21c-0.91,0.44-2.14,0.56-3.14,0.37c-1.83-0.36-3.61-0.99-5.36-1.64c-1.06-0.39-1.87-1.15-1.71-2.45
		c0.16-1.31,0.92-2.18,2.22-2.39c1.06-0.17,2.14-0.18,3.22-0.23c0.64-0.03,1.28-0.01,2.07-0.01c-0.21-1.3-0.98-1.61-1.92-1.6
		c-1.03,0-2.07,0.18-3.09,0.1c-0.54-0.04-1.25-0.34-1.51-0.75c-0.17-0.28,0.21-1.04,0.52-1.46c1.02-1.38,2.52-2.1,4.15-2.02
		c2.24,0.12,3.86-0.8,5.31-2.32c0.28-0.3,0.65-0.51,0.86-0.68C88.35,134.08,89.63,137.95,90.98,142.05z"/>
	<path style="clip-path:url(#SVGID_00000016068495461067521100000012816810316179821959_);fill:#0D1017;" d="M139.13,85.89
		c-13.98-7.39-28.02-7.85-42.26-0.49c2.12-4.05,9.14-8.55,16.88-9.45C123.9,74.76,132.44,78,139.13,85.89z"/>
	<path style="clip-path:url(#SVGID_00000016068495461067521100000012816810316179821959_);fill:#0D1017;" d="M111.15,155.15
		c-1.91-0.22-3.87-0.36-5.77-0.74c-0.46-0.09-1.08-0.98-1.09-1.51c-0.05-3.42,0.04-6.84,0.09-10.26c0.01-0.94,0.39-1.18,1.35-0.93
		c3.06,0.8,3.11,0.77,3.03,3.97c-0.04,1.59,0.06,2.93,1.5,4.09C111.89,151.1,111.74,153.07,111.15,155.15z"/>
	<path style="clip-path:url(#SVGID_00000016068495461067521100000012816810316179821959_);fill:#0D1017;" d="M141.91,91.07
		c-7.03-6.13-15.53-7.7-24.39-7.77c-8.87-0.07-17.36,1.42-24.28,7.72c1.86-2.64,4.41-4.39,7.23-5.79c4.09-2.03,8.46-3.03,12.98-3.34
		c6.91-0.48,13.66,0.22,20.1,3C137.05,86.4,140.5,88.87,141.91,91.07z"/>
	<path style="clip-path:url(#SVGID_00000016068495461067521100000012816810316179821959_);fill:#0D1017;" d="M146.95,111.22
		c0.69-5.56,0.52-10.95-0.72-16.29c2.26-0.22,4.37,1.43,4.74,4.11c0.37,2.67,0.42,5.41,0.31,8.11
		C151.18,109.24,149.32,110.86,146.95,111.22z"/>
	<path style="clip-path:url(#SVGID_00000016068495461067521100000012816810316179821959_);fill:#0D1017;" d="M125.68,75.23
		c-2.02-0.31-3.82-0.54-5.59-0.9c-0.33-0.07-0.74-0.6-0.82-0.98c-0.52-2.56-0.99-5.14-1.43-7.71c-0.24-1.45,0.19-2,1.54-1.55
		c1.16,0.39,2.37,1.15,3.14,2.09C124.59,68.69,124.95,71.88,125.68,75.23z"/>
	<path style="clip-path:url(#SVGID_00000016068495461067521100000012816810316179821959_);fill:#0D1017;" d="M88.61,97.11
		c-1.28,5.37-0.62,10.74-0.32,16.1c-1.76,0.07-3.73-1.39-3.93-3.33c-0.3-2.93-0.42-5.9-0.27-8.83
		C84.18,98.94,86.07,97.5,88.61,97.11z"/>
	<path style="clip-path:url(#SVGID_00000016068495461067521100000012816810316179821959_);fill:#0D1017;" d="M118.36,74.25
		c-1.42,0.08-2.8,0.19-4.19,0.21c-0.31,0-0.74-0.23-0.92-0.49c-1.88-2.69-3.72-5.4-5.55-8.12c-0.09-0.14-0.08-0.35-0.12-0.52
		C111.89,64.43,117.14,68.72,118.36,74.25z"/>
	<path style="clip-path:url(#SVGID_00000016068495461067521100000012816810316179821959_);fill:#0D1017;" d="M142.22,118.19
		c4.12-2.09,9.01,0.46,9.52,4.9c0.04,0.37-0.52,1.07-0.93,1.21c-3.79,1.21-6.36-0.06-7.79-3.77
		C142.72,119.74,142.48,118.95,142.22,118.19z"/>
	<path style="clip-path:url(#SVGID_00000016068495461067521100000012816810316179821959_);fill:#0D1017;" d="M100.92,126.81
		c9.55,4.45,19.38,4.94,29.45,1.94C126.28,134.67,106.74,133.29,100.92,126.81z"/>
	<path style="clip-path:url(#SVGID_00000016068495461067521100000012816810316179821959_);fill:#0D1017;" d="M110.47,116.01
		c0.73,1.02,1.44,2.05,2.19,3.06c1.17,1.57,2.42,1.81,3.75,0.38c1.11-1.2,1.92-2.7,2.71-4.16c0.48-0.88,0.66-1.93,0.97-2.9
		c0.12,0.02,0.24,0.04,0.36,0.06c-0.14,0.91-0.15,1.86-0.45,2.72c-0.87,2.51-1.73,5.05-2.84,7.46c-0.95,2.07-2.6,2.19-3.84,0.24
		c-1.31-2.06-2.26-4.35-3.36-6.55C110.13,116.22,110.3,116.11,110.47,116.01z"/>
	<path style="clip-path:url(#SVGID_00000016068495461067521100000012816810316179821959_);fill:#0D1017;" d="M129.75,140.06
		c-8.07,1.86-16.14,1.84-24.22,0C113.61,140.06,121.68,140.06,129.75,140.06z"/>
	<path style="clip-path:url(#SVGID_00000016068495461067521100000012816810316179821959_);fill:#0D1017;" d="M103.09,73.75
		c2.98-1.05,5.83-0.89,8.88,0.92c-2.27,0.7-4.25,1.42-6.3,1.88C104.72,76.78,103.43,75.22,103.09,73.75z"/>
	<path style="clip-path:url(#SVGID_00000016068495461067521100000012816810316179821959_);fill:#0D1017;" d="M138.49,143.22
		c0.72,1.51,0.53,2.74-0.62,3.28c-1.5,0.7-3.1,1.17-4.64,1.74c-0.92-2.09-0.57-2.97,1.26-3.62
		C135.8,144.16,137.12,143.7,138.49,143.22z"/>
	<path style="clip-path:url(#SVGID_00000016068495461067521100000012816810316179821959_);fill:#0D1017;" d="M96.41,143.07
		c2.19,0.76,3.92,1.33,5.61,1.99c0.26,0.1,0.49,0.62,0.5,0.95c0.02,0.6-0.14,1.2-0.26,1.99c-2.07-0.26-4.07-0.55-5.41-2.23
		C96.42,145.22,96.58,144.2,96.41,143.07z"/>
	<path style="clip-path:url(#SVGID_00000016068495461067521100000012816810316179821959_);fill:#0D1017;" d="M119.45,148.9
		c-0.01-2.35,1.28-3.85,3.33-3.88c2.06-0.03,3.49,1.58,3.49,3.94c0,2.35-1.42,3.96-3.48,3.95
		C120.73,152.9,119.45,151.37,119.45,148.9z M124.71,149.16c0-0.19,0-0.38,0-0.56c-0.6-0.32-1.16-0.83-1.79-0.92
		c-0.88-0.13-1.75,0.27-1.81,1.29c-0.06,1.1,1,1.25,1.69,1.19C123.46,150.1,124.08,149.51,124.71,149.16z"/>
	<path style="clip-path:url(#SVGID_00000016068495461067521100000012816810316179821959_);fill:#0D1017;" d="M124.71,149.16
		c-0.64,0.35-1.25,0.94-1.91,0.99c-0.69,0.06-1.76-0.09-1.69-1.19c0.06-1.02,0.93-1.42,1.81-1.29c0.63,0.09,1.2,0.6,1.79,0.92
		C124.71,148.78,124.71,148.97,124.71,149.16z"/>
	<path style="clip-path:url(#SVGID_00000016068495461067521100000012816810316179821959_);fill:#0D1017;" d="M102.41,91.1
		l-7.55,7.27l-0.75,16.6l8.3,6.71c0,0,19.18,6.16,18.36,6.25c-0.82,0.09,6.27-6.25,6.27-6.25l3.45-7.09c0,0,0.05-0.62,0.25-1.43
		c0.42-1.68,1.52-4.18,4.22-3.65c4.01,0.79,3.92-7.97,3.92-7.97l-9.61-7.55L102.41,91.1z"/>
	<path style="clip-path:url(#SVGID_00000016068495461067521100000012816810316179821959_);fill:#0D1017;" d="M131.25,116.75
		c0,0-0.89-2.96-0.49-4.43c0.4-1.47-3.01,1.68-3.01,1.68l1.31,3.24L131.25,116.75z"/>
</g>
</svg>
