<?xml version="1.0" encoding="utf-8"?>
<!-- Generator: Adobe Illustrator 27.9.0, SVG Export Plug-In . SVG Version: 6.00 Build 0)  -->
<svg version="1.1" id="Capa_1" xmlns="http://www.w3.org/2000/svg" xmlns:xlink="http://www.w3.org/1999/xlink" x="0px" y="0px"
	 viewBox="0 0 384 276" style="enable-background:new 0 0 384 276;" xml:space="preserve">
<style type="text/css">
	.st0{fill:#FFFFFF;}
	.st1{fill:#0F1218;}
	.st2{fill:#2495CE;}
	.st3{fill:none;stroke:#2495CE;stroke-width:12;stroke-miterlimit:10;}
</style>
<rect y="-0.34" class="st1" width="384" height="277.33"/>
<g>
	<path class="st0" d="M39.92,209.39h-8.38l-1.34,3.97h-5.73l8.13-22.46h6.34l8.13,22.46h-5.79L39.92,209.39z M38.51,205.17
		l-2.78-8.22l-2.75,8.22H38.51z"/>
	<path class="st0" d="M65.74,201.7c-0.6,1.08-1.52,1.95-2.75,2.61c-1.24,0.66-2.77,0.99-4.61,0.99h-3.39v8.06h-5.47V190.9h8.86
		c1.79,0,3.31,0.31,4.54,0.93c1.24,0.62,2.17,1.47,2.78,2.56c0.62,1.09,0.93,2.34,0.93,3.74C66.64,199.43,66.34,200.62,65.74,201.7z
		 M60.3,200.21c0.51-0.49,0.77-1.18,0.77-2.08c0-0.9-0.26-1.59-0.77-2.08c-0.51-0.49-1.29-0.74-2.34-0.74h-2.98v5.63h2.98
		C59.01,200.95,59.79,200.7,60.3,200.21z"/>
	<path class="st0" d="M74.96,209.14h7.17v4.22H69.48V190.9h5.47V209.14z"/>
	<path class="st0" d="M90.22,190.9v22.46h-5.47V190.9H90.22z"/>
	<path class="st0" d="M94.7,196.16c0.96-1.74,2.3-3.09,4.02-4.06c1.72-0.97,3.66-1.46,5.84-1.46c2.67,0,4.95,0.7,6.85,2.11
		c1.9,1.41,3.17,3.33,3.81,5.76h-6.02c-0.45-0.94-1.08-1.65-1.9-2.14c-0.82-0.49-1.75-0.74-2.8-0.74c-1.69,0-3.05,0.59-4.1,1.76
		c-1.05,1.17-1.57,2.74-1.57,4.7c0,1.96,0.52,3.53,1.57,4.7c1.04,1.17,2.41,1.76,4.1,1.76c1.04,0,1.98-0.25,2.8-0.74
		c0.82-0.49,1.46-1.21,1.9-2.14h6.02c-0.64,2.43-1.91,4.35-3.81,5.74c-1.9,1.4-4.18,2.1-6.85,2.1c-2.18,0-4.12-0.49-5.84-1.46
		c-1.72-0.97-3.06-2.32-4.02-4.05c-0.96-1.73-1.44-3.7-1.44-5.92C93.26,199.88,93.74,197.9,94.7,196.16z"/>
	<path class="st0" d="M132.55,209.39h-8.38l-1.34,3.97h-5.73l8.13-22.46h6.34l8.13,22.46h-5.79L132.55,209.39z M131.15,205.17
		l-2.78-8.22l-2.75,8.22H131.15z"/>
	<path class="st0" d="M142.67,196.16c0.96-1.74,2.3-3.09,4.02-4.06c1.72-0.97,3.66-1.46,5.84-1.46c2.67,0,4.95,0.7,6.85,2.11
		c1.9,1.41,3.17,3.33,3.81,5.76h-6.02c-0.45-0.94-1.08-1.65-1.9-2.14c-0.82-0.49-1.75-0.74-2.8-0.74c-1.69,0-3.05,0.59-4.1,1.76
		c-1.05,1.17-1.57,2.74-1.57,4.7c0,1.96,0.52,3.53,1.57,4.7c1.04,1.17,2.41,1.76,4.1,1.76c1.04,0,1.98-0.25,2.8-0.74
		c0.82-0.49,1.46-1.21,1.9-2.14h6.02c-0.64,2.43-1.91,4.35-3.81,5.74c-1.9,1.4-4.18,2.1-6.85,2.1c-2.18,0-4.12-0.49-5.84-1.46
		c-1.72-0.97-3.06-2.32-4.02-4.05c-0.96-1.73-1.44-3.7-1.44-5.92C141.23,199.88,141.71,197.9,142.67,196.16z"/>
	<path class="st0" d="M172.01,190.9v22.46h-5.47V190.9H172.01z"/>
	<path class="st0" d="M180.79,212.11c-1.76-0.98-3.16-2.35-4.19-4.11c-1.03-1.76-1.55-3.74-1.55-5.94s0.52-4.17,1.55-5.92
		c1.04-1.75,2.43-3.12,4.19-4.1c1.76-0.98,3.7-1.47,5.81-1.47c2.11,0,4.05,0.49,5.81,1.47c1.76,0.98,3.15,2.35,4.16,4.1
		c1.01,1.75,1.52,3.72,1.52,5.92s-0.51,4.18-1.54,5.94c-1.02,1.76-2.41,3.13-4.16,4.11c-1.75,0.98-3.68,1.47-5.79,1.47
		C184.49,213.59,182.55,213.1,180.79,212.11z M190.91,206.8c1.08-1.19,1.62-2.77,1.62-4.74c0-1.98-0.54-3.57-1.62-4.75
		c-1.08-1.18-2.51-1.78-4.3-1.78c-1.81,0-3.26,0.59-4.34,1.76c-1.08,1.17-1.62,2.76-1.62,4.77c0,1.98,0.54,3.57,1.62,4.75
		c1.08,1.18,2.52,1.78,4.34,1.78C188.39,208.59,189.83,208,190.91,206.8z M190.31,186.39l-7.71,3.23v-3.78l7.71-3.71V186.39z"/>
	<path class="st0" d="M39.92,247.79h-8.38l-1.34,3.97h-5.73l8.13-22.46h6.34l8.13,22.46h-5.79L39.92,247.79z M38.51,243.57
		l-2.78-8.22l-2.75,8.22H38.51z"/>
	<path class="st0" d="M65.74,240.1c-0.6,1.08-1.52,1.95-2.75,2.61c-1.24,0.66-2.77,0.99-4.61,0.99h-3.39v8.06h-5.47V229.3h8.86
		c1.79,0,3.31,0.31,4.54,0.93c1.24,0.62,2.17,1.47,2.78,2.56c0.62,1.09,0.93,2.34,0.93,3.74C66.64,237.83,66.34,239.02,65.74,240.1z
		 M60.3,238.61c0.51-0.49,0.77-1.18,0.77-2.08c0-0.9-0.26-1.59-0.77-2.08s-1.29-0.74-2.34-0.74h-2.98v5.63h2.98
		C59.01,239.35,59.79,239.1,60.3,238.61z"/>
	<path class="st0" d="M82.51,251.76l-7.55-9.92v9.92h-5.47V229.3h5.47v9.86l7.49-9.86h6.43l-8.7,11.01l9.02,11.46H82.51z"/>
</g>
<g>
	<g>
		<g>
			<path class="st2" d="M342.11,217.89l-81.19,5.69c-5.84-1.38-10.24-5.07-11.46-11.14L238.41,55.02
				c0.18-6.43,4.5-11.51,10.68-13.03l80.4-5.55c6.25,1.03,10.87,5.33,11.79,11.72l10.99,157.07
				C351.88,211.48,347.92,215.97,342.11,217.89z M270.29,48.76c-1.66,1.2-1.45,5.68,0.72,5.94l37.59-2.61
				c2.61-0.32,2.11-5.79-0.09-6.06L270.29,48.76z M332.02,58.63l-82.96,5.81l8.22,117.35l82.96-5.81L332.02,58.63z M308.55,198.65
				c-0.32-4.62-4.33-8.1-8.95-7.78c-4.62,0.32-8.1,4.33-7.78,8.95c0.32,4.62,4.33,8.1,8.95,7.78
				C305.39,207.27,308.88,203.27,308.55,198.65z"/>
		</g>
	</g>
</g>
</svg>
