<?xml version="1.0" encoding="utf-8"?>
<!-- Generator: Adobe Illustrator 27.9.0, SVG Export Plug-In . SVG Version: 6.00 Build 0)  -->
<svg version="1.1" id="Capa_1" xmlns="http://www.w3.org/2000/svg" xmlns:xlink="http://www.w3.org/1999/xlink" x="0px" y="0px"
	 viewBox="0 0 384 276" style="enable-background:new 0 0 384 276;" xml:space="preserve">
<style type="text/css">
	.st0{fill:#FFFFFF;}
	.st1{fill:#0F1218;}
	.st2{fill:#2495CE;}
	.st3{fill:none;stroke:#2495CE;stroke-width:12;stroke-miterlimit:10;}
</style>
<rect class="st0" width="384" height="276"/>
<rect y="-1.59" class="st1" width="384" height="277.59"/>
<g>
	<path class="st0" d="M52.5,186.17l-7.97,22.46h-6.85l-7.97-22.46h5.82l5.57,16.96l5.6-16.96H52.5z"/>
	<path class="st0" d="M60.24,186.17v22.46h-5.47v-22.46H60.24z"/>
	<path class="st0" d="M78.83,187.58c1.77,0.94,3.14,2.26,4.11,3.95c0.97,1.7,1.46,3.65,1.46,5.87c0,2.2-0.49,4.15-1.46,5.86
		c-0.97,1.71-2.35,3.03-4.13,3.97s-3.85,1.41-6.19,1.41h-8.42v-22.46h8.42C74.99,186.17,77.06,186.64,78.83,187.58z M77.1,202.2
		c1.15-1.13,1.73-2.73,1.73-4.8c0-2.07-0.58-3.68-1.73-4.83c-1.15-1.15-2.76-1.73-4.83-1.73h-2.59v13.06h2.59
		C74.34,203.9,75.95,203.33,77.1,202.2z"/>
	<path class="st0" d="M92.94,190.55v4.54h7.33v4.22h-7.33v4.93h8.29v4.38H87.47v-22.46h13.76v4.38H92.94z"/>
	<path class="st0" d="M109.6,207.39c-1.76-0.98-3.16-2.35-4.19-4.11s-1.55-3.74-1.55-5.94s0.52-4.17,1.55-5.92s2.43-3.12,4.19-4.1
		c1.76-0.98,3.7-1.47,5.81-1.47c2.11,0,4.05,0.49,5.81,1.47c1.76,0.98,3.15,2.35,4.16,4.1c1.01,1.75,1.52,3.72,1.52,5.92
		s-0.51,4.18-1.54,5.94s-2.41,3.13-4.16,4.11c-1.75,0.98-3.68,1.47-5.79,1.47C113.3,208.86,111.36,208.37,109.6,207.39z
		 M119.71,202.07c1.08-1.19,1.62-2.77,1.62-4.74c0-1.98-0.54-3.57-1.62-4.75c-1.08-1.18-2.51-1.78-4.3-1.78
		c-1.81,0-3.26,0.59-4.34,1.76c-1.08,1.17-1.62,2.76-1.62,4.77c0,1.98,0.54,3.57,1.62,4.75c1.08,1.18,2.52,1.78,4.34,1.78
		C117.2,203.87,118.63,203.27,119.71,202.07z"/>
	<path class="st0" d="M47.63,235.37c-0.6,1.08-1.52,1.95-2.75,2.61c-1.24,0.66-2.77,0.99-4.61,0.99h-3.39v8.06h-5.47v-22.46h8.86
		c1.79,0,3.31,0.31,4.54,0.93c1.24,0.62,2.17,1.47,2.78,2.56s0.93,2.34,0.93,3.74C48.53,233.1,48.23,234.29,47.63,235.37z
		 M42.19,233.88c0.51-0.49,0.77-1.18,0.77-2.08c0-0.9-0.26-1.59-0.77-2.08c-0.51-0.49-1.29-0.74-2.34-0.74h-2.98v5.63h2.98
		C40.9,234.62,41.68,234.37,42.19,233.88z"/>
	<path class="st0" d="M62.83,247.03l-4.67-8.48h-1.31v8.48h-5.47v-22.46h9.18c1.77,0,3.28,0.31,4.53,0.93
		c1.25,0.62,2.18,1.47,2.8,2.54c0.62,1.08,0.93,2.28,0.93,3.6c0,1.49-0.42,2.83-1.26,4c-0.84,1.17-2.09,2-3.73,2.5l5.18,8.9H62.83z
		 M56.85,234.68h3.39c1,0,1.75-0.25,2.26-0.74c0.5-0.49,0.75-1.18,0.75-2.08c0-0.85-0.25-1.52-0.75-2.02
		c-0.5-0.49-1.25-0.74-2.26-0.74h-3.39V234.68z"/>
	<path class="st0" d="M77.06,245.79c-1.76-0.98-3.16-2.35-4.19-4.11c-1.03-1.76-1.55-3.74-1.55-5.94s0.52-4.17,1.55-5.92
		c1.03-1.75,2.43-3.11,4.19-4.1c1.76-0.98,3.7-1.47,5.81-1.47c2.11,0,4.05,0.49,5.81,1.47c1.76,0.98,3.15,2.35,4.16,4.1
		c1.01,1.75,1.52,3.72,1.52,5.92s-0.51,4.18-1.54,5.94c-1.02,1.76-2.41,3.13-4.16,4.11c-1.75,0.98-3.68,1.47-5.79,1.47
		C80.75,247.26,78.82,246.77,77.06,245.79z M87.17,240.47c1.08-1.19,1.62-2.77,1.62-4.74c0-1.98-0.54-3.57-1.62-4.75
		c-1.08-1.18-2.51-1.78-4.3-1.78c-1.81,0-3.26,0.59-4.34,1.76c-1.08,1.17-1.62,2.76-1.62,4.77c0,1.98,0.54,3.57,1.62,4.75
		c1.08,1.18,2.52,1.78,4.34,1.78C84.66,242.27,86.09,241.67,87.17,240.47z"/>
	<path class="st0" d="M122.83,224.57v22.46h-5.47v-13.47l-5.02,13.47h-4.42l-5.06-13.5v13.5h-5.47v-22.46h6.46l6.3,15.55l6.24-15.55
		H122.83z"/>
	<path class="st0" d="M131.58,245.79c-1.76-0.98-3.16-2.35-4.19-4.11c-1.03-1.76-1.55-3.74-1.55-5.94s0.52-4.17,1.55-5.92
		c1.03-1.75,2.43-3.11,4.19-4.1c1.76-0.98,3.7-1.47,5.81-1.47c2.11,0,4.05,0.49,5.81,1.47c1.76,0.98,3.15,2.35,4.16,4.1
		c1.01,1.75,1.52,3.72,1.52,5.92s-0.51,4.18-1.54,5.94c-1.02,1.76-2.41,3.13-4.16,4.11c-1.75,0.98-3.68,1.47-5.79,1.47
		C135.28,247.26,133.34,246.77,131.58,245.79z M141.7,240.47c1.08-1.19,1.62-2.77,1.62-4.74c0-1.98-0.54-3.57-1.62-4.75
		c-1.08-1.18-2.51-1.78-4.3-1.78c-1.81,0-3.26,0.59-4.34,1.76c-1.08,1.17-1.62,2.76-1.62,4.77c0,1.98,0.54,3.57,1.62,4.75
		c1.08,1.18,2.52,1.78,4.34,1.78C139.18,242.27,140.62,241.67,141.7,240.47z"/>
	<path class="st0" d="M152.43,229.83c0.96-1.74,2.3-3.09,4.02-4.06c1.72-0.97,3.66-1.46,5.84-1.46c2.67,0,4.95,0.7,6.85,2.11
		c1.9,1.41,3.17,3.33,3.81,5.76h-6.02c-0.45-0.94-1.08-1.65-1.9-2.14c-0.82-0.49-1.75-0.74-2.8-0.74c-1.69,0-3.05,0.59-4.1,1.76
		c-1.05,1.17-1.57,2.74-1.57,4.7s0.52,3.53,1.57,4.7c1.04,1.17,2.41,1.76,4.1,1.76c1.04,0,1.98-0.25,2.8-0.74
		c0.82-0.49,1.46-1.21,1.9-2.14h6.02c-0.64,2.43-1.91,4.35-3.81,5.74c-1.9,1.4-4.18,2.1-6.85,2.1c-2.18,0-4.12-0.49-5.84-1.46
		c-1.72-0.97-3.06-2.32-4.02-4.05s-1.44-3.7-1.44-5.92S151.47,231.57,152.43,229.83z"/>
	<path class="st0" d="M181.78,224.57v22.46h-5.47v-22.46H181.78z"/>
	<path class="st0" d="M190.56,245.79c-1.76-0.98-3.16-2.35-4.19-4.11c-1.03-1.76-1.55-3.74-1.55-5.94s0.52-4.17,1.55-5.92
		c1.03-1.75,2.43-3.11,4.19-4.1c1.76-0.98,3.7-1.47,5.81-1.47c2.11,0,4.05,0.49,5.81,1.47s3.15,2.35,4.16,4.1
		c1.01,1.75,1.52,3.72,1.52,5.92s-0.51,4.18-1.54,5.94c-1.02,1.76-2.41,3.13-4.16,4.11c-1.75,0.98-3.68,1.47-5.79,1.47
		C194.25,247.26,192.32,246.77,190.56,245.79z M200.67,240.47c1.08-1.19,1.62-2.77,1.62-4.74c0-1.98-0.54-3.57-1.62-4.75
		c-1.08-1.18-2.51-1.78-4.3-1.78c-1.81,0-3.26,0.59-4.34,1.76c-1.08,1.17-1.62,2.76-1.62,4.77c0,1.98,0.54,3.57,1.62,4.75
		c1.08,1.18,2.52,1.78,4.34,1.78C198.16,242.27,199.59,241.67,200.67,240.47z"/>
	<path class="st0" d="M230.99,247.03h-5.47l-9.15-13.86v13.86h-5.47v-22.46h5.47l9.15,13.92v-13.92h5.47V247.03z"/>
	<path class="st0" d="M248.94,243.07h-8.38l-1.34,3.97h-5.73l8.13-22.46h6.34l8.13,22.46h-5.79L248.94,243.07z M247.54,238.84
		l-2.78-8.22l-2.75,8.22H247.54z"/>
	<path class="st0" d="M264.02,242.81h7.17v4.22h-12.64v-22.46h5.47V242.81z"/>
</g>
<g>
	<path class="st2" d="M174.88,56.83c4.78-33,52.82-38.48,64.56-6.4l2.19,8.88c0.08-31.07,34.85-49.86,60.91-32.23
		c24.12,16.32,22.17,52.21-2.98,66.25c4.36,4.5,7.36,10.39,7.03,16.8l34.08-20.6c5.52-0.26,10.22,4.6,10.88,9.91l-2.6,69.92
		c-0.74,5.05-6.6,10.15-11.82,8.96l-30.99-27.97l-1.03-0.56l-0.3,8.17c-0.33,8.91-12.43,19.12-21.39,18.55L190.28,173
		c-10.14-1.75-17.19-9.51-18.99-19.47l1.91-51.48c1.9-6.34,5.7-12.67,12.05-15.23c-5.83-6.07-9.41-13.28-10.68-21.64
		C174.88,62.51,174.5,59.44,174.88,56.83z M308.43,60.39c0.57-15.37-11.42-28.29-26.78-28.86s-28.27,11.42-28.84,26.79
		s11.42,28.29,26.78,28.86C294.95,87.76,307.86,75.76,308.43,60.39z M230.3,63.07c0.46-12.27-9.11-22.58-21.38-23.04
		c-12.26-0.46-22.57,9.12-23.03,21.39c-0.46,12.27,9.11,22.58,21.38,23.04S229.85,75.33,230.3,63.07z M252.12,86.17
		c-5.67-6.62-9.55-14.61-10.45-23.38c-0.42,6.27-2.03,12.03-5.41,17.32l-3.96,5.32L252.12,86.17z M194.96,95.29
		c-5.79,0.2-10.26,4.76-10.76,10.47c0.34,14.56-2.34,30.45-1.67,44.86c0.3,6.41,4.47,10.83,10.87,11.39l88.68,3.29
		c6.75-0.27,10.95-4.18,11.72-10.88c-0.3-14.42,2.18-29.91,1.64-44.2c-0.25-6.74-4.18-10.97-10.88-11.72L194.96,95.29z
		 M340.35,100.94l-34.01,20.68l-0.61,16.69l31.15,28.16l1.03,0.56L340.35,100.94z"/>
</g>
</svg>
