<?xml version="1.0" encoding="utf-8"?>
<!-- Generator: Adobe Illustrator 27.9.0, SVG Export Plug-In . SVG Version: 6.00 Build 0)  -->
<svg version="1.1" id="Capa_1" xmlns="http://www.w3.org/2000/svg" xmlns:xlink="http://www.w3.org/1999/xlink" x="0px" y="0px"
	 viewBox="0 0 384 276" style="enable-background:new 0 0 384 276;" xml:space="preserve">
<style type="text/css">
	.st0{fill:#FFFFFF;}
	.st1{fill:#0F1218;}
	.st2{fill:#2495CE;}
	.st3{fill:none;stroke:#2495CE;stroke-width:12;stroke-miterlimit:10;}
</style>
<rect class="st1" width="384" height="276.99"/>
<g>
	<path class="st0" d="M33.38,189.78v4.54h7.33v4.22h-7.33v4.93h8.29v4.38H27.91v-22.46h13.76v4.38H33.38z"/>
	<path class="st0" d="M48.93,207.28c-1.3-0.53-2.34-1.32-3.12-2.37c-0.78-1.04-1.19-2.3-1.23-3.78h5.82
		c0.08,0.83,0.37,1.47,0.86,1.9c0.49,0.44,1.13,0.66,1.92,0.66c0.81,0,1.45-0.19,1.92-0.56c0.47-0.37,0.7-0.89,0.7-1.55
		c0-0.55-0.19-1.01-0.56-1.38c-0.37-0.36-0.83-0.66-1.38-0.9c-0.54-0.23-1.32-0.5-2.32-0.8c-1.45-0.45-2.63-0.9-3.55-1.34
		c-0.92-0.45-1.71-1.11-2.37-1.98c-0.66-0.87-0.99-2.02-0.99-3.42c0-2.09,0.76-3.73,2.27-4.91c1.51-1.18,3.49-1.78,5.92-1.78
		c2.47,0,4.47,0.59,5.98,1.78s2.33,2.83,2.43,4.94h-5.92c-0.04-0.73-0.31-1.3-0.8-1.71c-0.49-0.42-1.12-0.62-1.89-0.62
		c-0.66,0-1.2,0.18-1.6,0.53c-0.41,0.35-0.61,0.86-0.61,1.52c0,0.73,0.34,1.29,1.02,1.7c0.68,0.41,1.75,0.84,3.2,1.31
		c1.45,0.49,2.63,0.96,3.54,1.41c0.91,0.45,1.69,1.1,2.35,1.95c0.66,0.85,0.99,1.95,0.99,3.3c0,1.28-0.33,2.44-0.98,3.49
		c-0.65,1.05-1.59,1.88-2.83,2.5c-1.24,0.62-2.7,0.93-4.38,0.93C51.7,208.08,50.23,207.81,48.93,207.28z"/>
	<path class="st0" d="M81.06,185.39v4.38h-5.95v18.08h-5.47v-18.08h-5.95v-4.38H81.06z"/>
	<path class="st0" d="M95.26,207.86l-4.67-8.48h-1.31v8.48h-5.47v-22.46h9.18c1.77,0,3.28,0.31,4.53,0.93
		c1.25,0.62,2.18,1.47,2.8,2.54c0.62,1.08,0.93,2.28,0.93,3.6c0,1.49-0.42,2.83-1.26,4c-0.84,1.17-2.09,2-3.73,2.5l5.18,8.9H95.26z
		 M89.28,195.5h3.39c1,0,1.75-0.25,2.26-0.74c0.5-0.49,0.75-1.18,0.75-2.08c0-0.85-0.25-1.52-0.75-2.02
		c-0.5-0.49-1.25-0.74-2.26-0.74h-3.39V195.5z"/>
	<path class="st0" d="M118.66,203.89h-8.38l-1.34,3.97h-5.73l8.13-22.46h6.34l8.13,22.46H120L118.66,203.89z M117.25,199.67
		l-2.78-8.22l-2.75,8.22H117.25z"/>
	<path class="st0" d="M144.42,185.39v4.38h-5.95v18.08h-5.47v-18.08h-5.95v-4.38H144.42z"/>
	<path class="st0" d="M152.64,189.78v4.54h7.33v4.22h-7.33v4.93h8.29v4.38h-13.76v-22.46h13.76v4.38H152.64z M157.63,180.34v3.78
		l-7.71-3.23v-4.26L157.63,180.34z"/>
	<path class="st0" d="M179.39,192.5c-0.41-0.75-0.99-1.32-1.74-1.71c-0.76-0.39-1.65-0.59-2.67-0.59c-1.77,0-3.19,0.58-4.26,1.74
		c-1.07,1.16-1.6,2.71-1.6,4.66c0,2.07,0.56,3.69,1.68,4.85c1.12,1.16,2.66,1.74,4.62,1.74c1.34,0,2.48-0.34,3.41-1.02
		s1.6-1.66,2.03-2.94h-6.94v-4.03h11.9v5.09c-0.41,1.37-1.09,2.63-2.06,3.81c-0.97,1.17-2.2,2.12-3.7,2.85
		c-1.49,0.73-3.18,1.09-5.06,1.09c-2.22,0-4.2-0.49-5.94-1.46c-1.74-0.97-3.09-2.32-4.06-4.05s-1.46-3.7-1.46-5.92
		s0.49-4.2,1.46-5.94c0.97-1.74,2.32-3.09,4.05-4.06c1.73-0.97,3.7-1.46,5.92-1.46c2.69,0,4.96,0.65,6.8,1.95
		c1.85,1.3,3.07,3.1,3.66,5.41H179.39z"/>
	<path class="st0" d="M194.33,185.39v22.46h-5.47v-22.46H194.33z"/>
	<path class="st0" d="M212.29,203.89h-8.38l-1.34,3.97h-5.73l8.13-22.46h6.34l8.13,22.46h-5.79L212.29,203.89z M210.88,199.67
		l-2.78-8.22l-2.75,8.22H210.88z"/>
	<path class="st0" d="M243.29,186.8c1.77,0.94,3.14,2.26,4.11,3.95c0.97,1.7,1.46,3.65,1.46,5.87c0,2.2-0.49,4.15-1.46,5.86
		c-0.97,1.71-2.35,3.03-4.13,3.97c-1.78,0.94-3.85,1.41-6.19,1.41h-8.42v-22.46h8.42C239.45,185.39,241.52,185.86,243.29,186.8z
		 M241.57,201.42c1.15-1.13,1.73-2.73,1.73-4.8s-0.58-3.68-1.73-4.83c-1.15-1.15-2.76-1.73-4.83-1.73h-2.59v13.06h2.59
		C238.8,203.12,240.41,202.56,241.57,201.42z"/>
	<path class="st0" d="M257.41,189.78v4.54h7.33v4.22h-7.33v4.93h8.29v4.38h-13.76v-22.46h13.76v4.38H257.41z"/>
	<path class="st0" d="M53.35,223.79v22.46h-5.47v-13.47l-5.02,13.47h-4.42l-5.06-13.5v13.5h-5.47v-22.46h6.46l6.3,15.55l6.24-15.55
		H53.35z"/>
	<path class="st0" d="M71.27,242.29h-8.38l-1.34,3.97h-5.73l8.13-22.46h6.34l8.13,22.46h-5.79L71.27,242.29z M70.82,218.74v3.78
		l-7.71-3.23v-4.26L70.82,218.74z M69.86,238.06l-2.78-8.22l-2.75,8.22H69.86z"/>
	<path class="st0" d="M92.32,246.26l-4.67-8.48h-1.31v8.48h-5.47v-22.46h9.18c1.77,0,3.28,0.31,4.53,0.93
		c1.25,0.62,2.18,1.47,2.8,2.54c0.62,1.08,0.93,2.28,0.93,3.6c0,1.49-0.42,2.83-1.26,4c-0.84,1.17-2.08,2.01-3.73,2.5l5.18,8.9
		H92.32z M86.34,233.9h3.39c1,0,1.75-0.25,2.26-0.74c0.5-0.49,0.75-1.18,0.75-2.08c0-0.85-0.25-1.53-0.75-2.02
		c-0.5-0.49-1.25-0.74-2.26-0.74h-3.39V233.9z"/>
	<path class="st0" d="M117.73,250.1l-2.88-3.87c-0.85,0.17-1.69,0.26-2.5,0.26c-2.11,0-4.05-0.49-5.81-1.47s-3.16-2.35-4.19-4.11
		c-1.03-1.76-1.55-3.74-1.55-5.94s0.52-4.17,1.55-5.92c1.04-1.75,2.43-3.12,4.19-4.1c1.76-0.98,3.7-1.47,5.81-1.47
		c2.11,0,4.05,0.49,5.81,1.47c1.76,0.98,3.15,2.35,4.16,4.1c1.01,1.75,1.52,3.72,1.52,5.92c0,1.92-0.39,3.67-1.17,5.26
		c-0.78,1.59-1.86,2.91-3.25,3.95l4.93,5.92H117.73z M108.02,239.71c1.08,1.18,2.52,1.78,4.34,1.78c1.79,0,3.23-0.6,4.3-1.79
		c1.08-1.19,1.62-2.77,1.62-4.74c0-1.98-0.54-3.57-1.62-4.75c-1.08-1.18-2.51-1.78-4.3-1.78c-1.81,0-3.26,0.59-4.34,1.76
		c-1.08,1.17-1.62,2.76-1.62,4.77C106.4,236.94,106.94,238.53,108.02,239.71z"/>
	<path class="st0" d="M132.32,223.79v13.44c0,1.34,0.33,2.38,0.99,3.1s1.63,1.09,2.91,1.09s2.26-0.36,2.94-1.09
		c0.68-0.73,1.02-1.76,1.02-3.1v-13.44h5.47v13.41c0,2.01-0.43,3.7-1.28,5.09c-0.85,1.39-2,2.43-3.44,3.14
		c-1.44,0.7-3.04,1.06-4.82,1.06c-1.77,0-3.36-0.35-4.75-1.04c-1.4-0.69-2.5-1.74-3.31-3.14s-1.22-3.1-1.22-5.1v-13.41H132.32z"/>
	<path class="st0" d="M154.98,228.18v4.54h7.33v4.22h-7.33v4.93h8.29v4.38H149.5v-22.46h13.76v4.38H154.98z"/>
	<path class="st0" d="M182.98,223.79v4.38h-5.95v18.08h-5.47v-18.08h-5.95v-4.38H182.98z"/>
	<path class="st0" d="M191.2,223.79v22.46h-5.47v-22.46H191.2z"/>
	<path class="st0" d="M215.26,246.26h-5.47l-9.15-13.86v13.86h-5.47v-22.46h5.47l9.15,13.92v-13.92h5.47V246.26z"/>
	<path class="st0" d="M234.14,230.9c-0.41-0.75-0.99-1.32-1.74-1.71c-0.76-0.39-1.65-0.59-2.67-0.59c-1.77,0-3.19,0.58-4.26,1.74
		s-1.6,2.71-1.6,4.66c0,2.07,0.56,3.69,1.68,4.85s2.66,1.74,4.62,1.74c1.34,0,2.48-0.34,3.41-1.02s1.61-1.66,2.03-2.94h-6.94v-4.03
		h11.9v5.09c-0.41,1.37-1.09,2.63-2.06,3.81c-0.97,1.17-2.2,2.12-3.7,2.85c-1.49,0.73-3.18,1.09-5.06,1.09
		c-2.22,0-4.2-0.49-5.94-1.46c-1.74-0.97-3.09-2.32-4.06-4.05c-0.97-1.73-1.46-3.7-1.46-5.92c0-2.22,0.49-4.2,1.46-5.94
		c0.97-1.74,2.32-3.09,4.05-4.06c1.73-0.97,3.7-1.46,5.92-1.46c2.69,0,4.95,0.65,6.8,1.95c1.84,1.3,3.07,3.1,3.66,5.41H234.14z"/>
</g>
<g>
	<path class="st2" d="M202.75,65.19c-0.03-6.69,3.85-11.74,10.57-12.72c6.76-0.98,8.47,3.59,14.68,3.14
		c14.54-1.04,39.13-10.24,52.21-17.01c19.85-10.28,41.38-32.69,61.13-6.69c9.62,12.66,18.16,28.43,7.84,43.49
		c-1.74,2.54-6.36,5.34-6.53,8.03l11.74,38.9l-0.45,2.48c-0.94,1.54-2.6,1.85-4.09,2.49c-3.16,1.36-14.87,5-18.08,5.4
		c-1.23,0.15-2.4,0.47-3.59-0.15c-1.17-0.63-1.57-1.82-2.11-2.91c-3.91-7.9-4.95-20.78-8.72-29.02c-0.27-0.59-0.13-1.9-1.04-1.49
		c-12.52,9.15-24.9,20.81-34.18,33.32c-1.3,1.75-4.4,5.42-4.99,7.08c-0.65,1.82,0.5,5.57-0.05,7.82
		c-2.22,9.02-12.82,12.96-20.25,7.29c-4.67-3.56-15.68-25.73-17.27-26.41c-14.43,9.11-33.97-2.21-30.61-19.52
		c1.41-7.26,4.96-9.73,9.91-14.62C214.9,86.81,202.78,73.12,202.75,65.19z M215.05,72.84c14.59,25.27,31.53,49.3,46.21,74.54
		c1.74,2.59,6.98,0.99,7.6-1.7c0.65-2.8-7.51-14.79-9.48-18.09c-11.62-19.38-25.58-44.67-38.65-62.43c-1.47-2-3.33-5.59-6.49-4.63
		C207.94,62.45,213.22,69.67,215.05,72.84z M313.13,90.99l-27.36-45.21c-17.96,7.9-36.33,15.49-55.96,17.85l42.28,68.2
		C283.71,116.32,297.14,102.02,313.13,90.99z M223.07,101.79c-0.89,1.38-2.57,1.89-3.52,3.21c-8.22,11.29,4.97,23.66,15.62,15.25
		L223.07,101.79z M320.48,85.19c1.05,0.15,1.86-0.41,2.73-0.85c5.27-2.68,17.68-10.62,20.27-15.58c2.33-4.46,2.58-10.93,0.77-15.63
		c-2-5.22-11.55-20.08-16.28-22.62c-3.99-2.14-10.48-2.72-14.78-1.36c-3.39,1.08-15.98,8.59-18.81,10.94
		c-0.66,0.55-1.28,0.98-1.47,1.88L320.48,85.19z M324.21,93.77l8.93,29.57l11.48-3.45l-10.75-32.87L324.21,93.77z"/>
	<path class="st2" d="M198.5,109.48c2.2-0.63,4.23-4.67,2.24-6.66c-1.98-1.99-18.85-7.31-20.88-6.22c-3.2,1.73-2.93,5.93,0.02,7.75
		C181.21,105.17,197.57,109.75,198.5,109.48z"/>
	<path class="st2" d="M220.52,141.05c-1.09,0.51-1.83,1.34-2.28,2.45c-0.97,2.42-3.83,18.29-2.65,19.93
		c1.91,2.67,6.2,2.39,7.57-0.42c0.63-1.29,2.95-15.21,2.95-17.07C226.12,142.2,224.17,141.07,220.52,141.05z"/>
	<path class="st2" d="M184.63,135.98c-1.71,2.09-1.71,3.54-0.57,5.92c1.08,1.6,3.4,1.42,5.03,0.86c1.21-0.41,14-8.15,14.67-8.89
		c3.28-3.58,0.21-8.92-4.59-7.24C198.18,126.98,185.18,135.31,184.63,135.98z"/>
</g>
</svg>
