<?xml version="1.0" encoding="utf-8"?>
<!-- Generator: Adobe Illustrator 27.9.0, SVG Export Plug-In . SVG Version: 6.00 Build 0)  -->
<svg version="1.1" id="Capa_1" xmlns="http://www.w3.org/2000/svg" xmlns:xlink="http://www.w3.org/1999/xlink" x="0px" y="0px"
	 viewBox="0 0 384 276" style="enable-background:new 0 0 384 276;" xml:space="preserve">
<style type="text/css">
	.st0{fill:#FFFFFF;}
	.st1{fill:#0F1218;}
	.st2{fill:#2495CE;}
	.st3{fill:none;stroke:#2495CE;stroke-width:12;stroke-miterlimit:10;}
</style>
<rect class="st1" width="384" height="276.99"/>
<g>
	<path class="st0" d="M54.35,190.8v22.46h-5.47v-13.47l-5.02,13.47h-4.42l-5.06-13.5v13.5h-5.47V190.8h6.46l6.3,15.55l6.24-15.55
		H54.35z"/>
	<path class="st0" d="M63.1,212.01c-1.76-0.98-3.16-2.35-4.19-4.11c-1.04-1.76-1.55-3.74-1.55-5.94s0.52-4.17,1.55-5.92
		c1.03-1.75,2.43-3.11,4.19-4.1c1.76-0.98,3.7-1.47,5.81-1.47s4.05,0.49,5.81,1.47s3.15,2.35,4.16,4.1
		c1.01,1.75,1.52,3.72,1.52,5.92s-0.51,4.18-1.54,5.94c-1.02,1.76-2.41,3.13-4.16,4.11c-1.75,0.98-3.68,1.47-5.79,1.47
		S64.86,212.99,63.1,212.01z M73.21,206.7c1.08-1.19,1.62-2.77,1.62-4.74c0-1.98-0.54-3.57-1.62-4.75c-1.08-1.18-2.51-1.78-4.3-1.78
		c-1.81,0-3.26,0.59-4.34,1.76c-1.08,1.17-1.62,2.76-1.62,4.77c0,1.98,0.54,3.57,1.62,4.75c1.08,1.18,2.52,1.78,4.34,1.78
		C70.7,208.49,72.13,207.9,73.21,206.7z"/>
	<path class="st0" d="M98.06,192.21c1.77,0.94,3.14,2.26,4.11,3.95c0.97,1.7,1.46,3.65,1.46,5.87c0,2.2-0.49,4.15-1.46,5.86
		c-0.97,1.71-2.35,3.03-4.13,3.97c-1.78,0.94-3.85,1.41-6.19,1.41h-8.42V190.8h8.42C94.22,190.8,96.29,191.27,98.06,192.21z
		 M96.33,206.83c1.15-1.13,1.73-2.73,1.73-4.8s-0.58-3.68-1.73-4.83c-1.15-1.15-2.76-1.73-4.83-1.73h-2.59v13.06h2.59
		C93.57,208.53,95.18,207.96,96.33,206.83z"/>
	<path class="st0" d="M112.17,195.18v4.54h7.33v4.22h-7.33v4.93h8.29v4.38H106.7V190.8h13.76v4.38H112.17z"/>
	<path class="st0" d="M129.48,209.04h7.17v4.22h-12.64V190.8h5.47V209.04z"/>
	<path class="st0" d="M160.68,192.21c1.77,0.94,3.14,2.26,4.11,3.95c0.97,1.7,1.46,3.65,1.46,5.87c0,2.2-0.49,4.15-1.46,5.86
		c-0.97,1.71-2.35,3.03-4.13,3.97c-1.78,0.94-3.84,1.41-6.19,1.41h-8.42V190.8h8.42C156.84,190.8,158.91,191.27,160.68,192.21z
		 M158.95,206.83c1.15-1.13,1.73-2.73,1.73-4.8s-0.58-3.68-1.73-4.83c-1.15-1.15-2.76-1.73-4.83-1.73h-2.59v13.06h2.59
		C156.19,208.53,157.8,207.96,158.95,206.83z"/>
	<path class="st0" d="M174.79,195.18v4.54h7.33v4.22h-7.33v4.93h8.29v4.38h-13.76V190.8h13.76v4.38H174.79z"/>
	<path class="st0" d="M49,251.66h-5.47l-9.15-13.86v13.86h-5.47V229.2h5.47l9.15,13.92V229.2H49V251.66z"/>
	<path class="st0" d="M58.44,233.58v4.54h7.33v4.22h-7.33v4.93h8.29v4.38H52.97V229.2h13.76v4.38H58.44z"/>
	<path class="st0" d="M85.19,236.3c-0.41-0.75-0.99-1.32-1.74-1.71c-0.76-0.39-1.65-0.59-2.67-0.59c-1.77,0-3.19,0.58-4.26,1.74
		s-1.6,2.71-1.6,4.66c0,2.07,0.56,3.69,1.68,4.85s2.66,1.74,4.62,1.74c1.34,0,2.48-0.34,3.41-1.02s1.6-1.66,2.03-2.94h-6.94v-4.03
		h11.9v5.09c-0.41,1.37-1.09,2.63-2.06,3.81c-0.97,1.17-2.2,2.12-3.7,2.85c-1.49,0.73-3.18,1.09-5.06,1.09
		c-2.22,0-4.2-0.49-5.94-1.46c-1.74-0.97-3.09-2.32-4.06-4.05c-0.97-1.73-1.46-3.7-1.46-5.92c0-2.22,0.49-4.2,1.46-5.94
		c0.97-1.74,2.32-3.09,4.05-4.06c1.73-0.97,3.7-1.46,5.92-1.46c2.69,0,4.96,0.65,6.8,1.95c1.85,1.3,3.07,3.1,3.66,5.41H85.19z"/>
	<path class="st0" d="M99.48,250.41c-1.76-0.98-3.16-2.35-4.19-4.11c-1.03-1.76-1.55-3.74-1.55-5.94s0.52-4.17,1.55-5.92
		c1.04-1.75,2.43-3.12,4.19-4.1c1.76-0.98,3.7-1.47,5.81-1.47c2.11,0,4.05,0.49,5.81,1.47c1.76,0.98,3.15,2.35,4.16,4.1
		c1.01,1.75,1.52,3.72,1.52,5.92s-0.51,4.18-1.54,5.94c-1.02,1.76-2.41,3.13-4.16,4.11s-3.68,1.47-5.79,1.47
		C103.18,251.88,101.24,251.39,99.48,250.41z M109.59,245.1c1.08-1.19,1.62-2.77,1.62-4.74c0-1.98-0.54-3.57-1.62-4.75
		c-1.08-1.18-2.51-1.78-4.3-1.78c-1.81,0-3.26,0.59-4.34,1.76c-1.08,1.17-1.62,2.76-1.62,4.77c0,1.98,0.54,3.57,1.62,4.75
		c1.08,1.18,2.52,1.78,4.34,1.78C107.08,246.89,108.52,246.3,109.59,245.1z"/>
	<path class="st0" d="M120.33,234.46c0.96-1.74,2.3-3.09,4.02-4.06c1.72-0.97,3.66-1.46,5.84-1.46c2.67,0,4.95,0.7,6.85,2.11
		c1.9,1.41,3.17,3.33,3.81,5.76h-6.02c-0.45-0.94-1.08-1.65-1.9-2.14c-0.82-0.49-1.75-0.74-2.8-0.74c-1.69,0-3.05,0.59-4.1,1.76
		c-1.05,1.17-1.57,2.74-1.57,4.7c0,1.96,0.52,3.53,1.57,4.7c1.04,1.17,2.41,1.76,4.1,1.76c1.04,0,1.98-0.25,2.8-0.74
		c0.82-0.49,1.46-1.21,1.9-2.14h6.02c-0.64,2.43-1.91,4.35-3.81,5.74c-1.9,1.4-4.18,2.1-6.85,2.1c-2.18,0-4.12-0.49-5.84-1.46
		c-1.72-0.97-3.06-2.32-4.02-4.05c-0.96-1.73-1.44-3.7-1.44-5.92C118.89,238.18,119.37,236.2,120.33,234.46z"/>
	<path class="st0" d="M149.67,229.2v22.46h-5.47V229.2H149.67z"/>
</g>
<g>
	<g>
		<path class="st2" d="M182.03,52.46c2.1-6.11,6.07-11.15,12.05-13.04c0.69-0.22,3.2-0.92,3.7-0.88l39.77,3.06l1.06-13.79
			c0.54-6.99,6.92-12.82,13.3-12.87c12.86-0.1,26.89,2.84,39.86,3.17c5.69,1.61,10.42,8.15,9.93,14.55l-1.06,13.79l39.77,3.06
			c6.37,0.49,13.82,10.54,13.34,17.43l-7.02,91.35c-1.96,9.16-9.75,15.39-18.52,14.99l-137.6-10.6
			c-8.62-1.31-14.05-7.41-15.79-16.35L182.03,52.46z M249.01,28.6c-0.89,4.03-0.31,9.59-1.06,13.79l42.28,3.25l1.06-13.79
			c0.08-1.04-1.12-2.9-2.3-2.9c-11.94,0.02-25.18-3.12-36.95-2.85C250.47,26.14,249.38,26.93,249.01,28.6z M341.95,84.21l1.36-17.73
			c0.13-1.64-2.43-5.19-4.11-5.56c-47.11-4.26-94.51-7.71-141.73-10.99c-1.81,0.08-5.03,3.18-5.17,4.94l-1.36,17.73L341.95,84.21z
			 M237.07,87.32l-46.98-3.61l-4.75,61.8c-0.2,2.63,4.27,6.34,6.77,6.12l136.27,10.48c2.52,0.73,7.75-2.23,7.96-4.99l4.75-61.8
			l-46.98-3.61l-0.51,6.63c-0.65,8.47-10.28,16.29-17.98,16.45c-5.41,0.11-21.55-0.97-26.3-2.55c-6.43-2.15-13.34-10.84-12.77-18.28
			L237.07,87.32z M283.72,90.91l-36.24-2.79l-0.45,5.91c-0.22,2.88,3.23,6.98,5.81,7.67c4.4,1.18,17.12,1.88,22,1.87
			c2.72-0.01,5.06-0.99,6.77-3.34c0.38-0.53,1.63-2.92,1.67-3.42L283.72,90.91z"/>
	</g>
</g>
</svg>
