<?xml version="1.0" encoding="utf-8"?>
<!-- Generator: Adobe Illustrator 27.9.0, SVG Export Plug-In . SVG Version: 6.00 Build 0)  -->
<svg version="1.1" id="Capa_1" xmlns="http://www.w3.org/2000/svg" xmlns:xlink="http://www.w3.org/1999/xlink" x="0px" y="0px"
	 viewBox="0 0 384 276" style="enable-background:new 0 0 384 276;" xml:space="preserve">
<style type="text/css">
	.st0{fill:#FFFFFF;}
	.st1{fill:#0F1218;}
	.st2{fill:#2495CE;}
	.st3{fill:none;stroke:#2495CE;stroke-width:12;stroke-miterlimit:10;}
</style>
<rect class="st1" width="384" height="276.99"/>
<g>
	<path class="st0" d="M39.1,187.25c1.77,0.94,3.14,2.26,4.11,3.95c0.97,1.7,1.46,3.65,1.46,5.87c0,2.2-0.49,4.15-1.46,5.86
		s-2.35,3.03-4.13,3.97s-3.85,1.41-6.19,1.41h-8.42v-22.46h8.42C35.26,185.84,37.33,186.31,39.1,187.25z M37.37,201.88
		c1.15-1.13,1.73-2.73,1.73-4.8c0-2.07-0.58-3.68-1.73-4.83c-1.15-1.15-2.76-1.73-4.83-1.73h-2.59v13.06h2.59
		C34.61,203.57,36.22,203.01,37.37,201.88z"/>
	<path class="st0" d="M52.55,207.06c-1.76-0.98-3.16-2.35-4.19-4.11c-1.03-1.76-1.55-3.74-1.55-5.94s0.52-4.17,1.55-5.92
		c1.04-1.75,2.43-3.12,4.19-4.1c1.76-0.98,3.7-1.47,5.81-1.47c2.11,0,4.05,0.49,5.81,1.47c1.76,0.98,3.15,2.35,4.16,4.1
		c1.01,1.75,1.52,3.72,1.52,5.92s-0.51,4.18-1.54,5.94c-1.02,1.76-2.41,3.13-4.16,4.11s-3.68,1.47-5.79,1.47
		C56.25,208.53,54.31,208.04,52.55,207.06z M62.67,201.75c1.08-1.19,1.62-2.77,1.62-4.74c0-1.98-0.54-3.57-1.62-4.75
		c-1.08-1.18-2.51-1.78-4.3-1.78c-1.81,0-3.26,0.59-4.34,1.76c-1.08,1.17-1.62,2.76-1.62,4.77c0,1.98,0.54,3.57,1.62,4.75
		c1.08,1.18,2.52,1.78,4.34,1.78C60.15,203.54,61.59,202.94,62.67,201.75z"/>
	<path class="st0" d="M73.4,191.11c0.96-1.74,2.3-3.09,4.02-4.06c1.72-0.97,3.66-1.46,5.84-1.46c2.67,0,4.95,0.7,6.85,2.11
		c1.9,1.41,3.17,3.33,3.81,5.76H87.9c-0.45-0.94-1.08-1.65-1.9-2.14c-0.82-0.49-1.75-0.74-2.8-0.74c-1.69,0-3.05,0.59-4.1,1.76
		c-1.05,1.17-1.57,2.74-1.57,4.7c0,1.96,0.52,3.53,1.57,4.7c1.04,1.17,2.41,1.76,4.1,1.76c1.04,0,1.98-0.25,2.8-0.74
		c0.82-0.49,1.46-1.21,1.9-2.14h6.02c-0.64,2.43-1.91,4.35-3.81,5.74c-1.9,1.4-4.18,2.1-6.85,2.1c-2.18,0-4.12-0.49-5.84-1.46
		c-1.72-0.97-3.06-2.32-4.02-4.05c-0.96-1.73-1.44-3.7-1.44-5.92C71.96,194.83,72.44,192.85,73.4,191.11z"/>
	<path class="st0" d="M102.65,185.84v13.44c0,1.34,0.33,2.38,0.99,3.1c0.66,0.73,1.63,1.09,2.91,1.09c1.28,0,2.26-0.36,2.94-1.09
		s1.02-1.76,1.02-3.1v-13.44h5.47v13.41c0,2.01-0.43,3.7-1.28,5.09s-2,2.43-3.44,3.14c-1.44,0.7-3.05,1.06-4.82,1.06
		s-3.35-0.35-4.75-1.04c-1.4-0.69-2.5-1.74-3.31-3.14c-0.81-1.4-1.22-3.1-1.22-5.1v-13.41H102.65z"/>
	<path class="st0" d="M145.27,185.84v22.46h-5.47v-13.47l-5.02,13.47h-4.42l-5.06-13.5v13.5h-5.47v-22.46h6.46l6.3,15.55l6.24-15.55
		H145.27z"/>
	<path class="st0" d="M154.68,190.23v4.54h7.33V199h-7.33v4.93h8.29v4.38h-13.76v-22.46h13.76v4.38H154.68z"/>
	<path class="st0" d="M186.62,208.31h-5.47l-9.15-13.86v13.86h-5.47v-22.46h5.47l9.15,13.92v-13.92h5.47V208.31z"/>
	<path class="st0" d="M206.75,185.84v4.38h-5.95v18.08h-5.47v-18.08h-5.95v-4.38H206.75z"/>
	<path class="st0" d="M40.63,224.24v4.38h-5.95v18.08h-5.47v-18.08h-5.95v-4.38H40.63z"/>
	<path class="st0" d="M48.86,228.63v4.54h7.33v4.22h-7.33v4.93h8.29v4.38H43.39v-22.46h13.76v4.38H48.86z M53.85,219.19v3.78
		l-7.71-3.23v-4.26L53.85,219.19z"/>
	<path class="st0" d="M61.21,229.51c0.96-1.74,2.3-3.09,4.02-4.06c1.72-0.97,3.66-1.46,5.84-1.46c2.67,0,4.95,0.7,6.85,2.11
		c1.9,1.41,3.17,3.33,3.81,5.76h-6.02c-0.45-0.94-1.08-1.65-1.9-2.14c-0.82-0.49-1.75-0.74-2.8-0.74c-1.69,0-3.05,0.59-4.1,1.76
		c-1.05,1.17-1.57,2.74-1.57,4.7s0.52,3.53,1.57,4.7c1.04,1.17,2.41,1.76,4.1,1.76c1.04,0,1.98-0.25,2.8-0.74
		c0.82-0.49,1.46-1.21,1.9-2.14h6.02c-0.64,2.43-1.91,4.35-3.81,5.74c-1.9,1.4-4.18,2.1-6.85,2.1c-2.18,0-4.12-0.49-5.84-1.46
		c-1.72-0.97-3.06-2.32-4.02-4.05s-1.44-3.7-1.44-5.92S60.25,231.25,61.21,229.51z"/>
	<path class="st0" d="M105.18,246.71h-5.47l-9.15-13.86v13.86h-5.47v-22.46h5.47l9.15,13.92v-13.92h5.47V246.71z"/>
	<path class="st0" d="M114.62,224.24v22.46h-5.47v-22.46H114.62z"/>
	<path class="st0" d="M119.1,229.51c0.96-1.74,2.3-3.09,4.02-4.06c1.72-0.97,3.66-1.46,5.84-1.46c2.67,0,4.95,0.7,6.85,2.11
		c1.9,1.41,3.17,3.33,3.81,5.76h-6.02c-0.45-0.94-1.08-1.65-1.9-2.14c-0.82-0.49-1.75-0.74-2.8-0.74c-1.69,0-3.05,0.59-4.1,1.76
		c-1.05,1.17-1.57,2.74-1.57,4.7s0.52,3.53,1.57,4.7c1.04,1.17,2.41,1.76,4.1,1.76c1.04,0,1.98-0.25,2.8-0.74
		c0.82-0.49,1.46-1.21,1.9-2.14h6.02c-0.64,2.43-1.91,4.35-3.81,5.74c-1.9,1.4-4.18,2.1-6.85,2.1c-2.18,0-4.12-0.49-5.84-1.46
		c-1.72-0.97-3.06-2.32-4.02-4.05s-1.44-3.7-1.44-5.92S118.14,231.25,119.1,229.51z"/>
</g>
<g>
	<g>
		<path class="st2" d="M337.31,40.3l21.37,21.52l0.65,1.25l0.02,125.55c-0.04,1.34-0.88,2.22-2.09,2.65l-108.81,0.1
			c-1.5-0.1-2.71-1.46-2.74-2.94l0-146.02c0.12-1.38,0.76-2.39,2.09-2.84c29.44-0.11,58.97-0.22,88.39,0.06L337.31,40.3z
			 M332.26,45.34h-80.67v140.14h101.88V66.55h-19.03c-0.72,0-2.18-1.5-2.18-2.18V45.34z M349.31,60.68L338.14,49.7v10.98H349.31z"/>
		<path class="st2" d="M237.2,30.19v143.64c0,0.08-0.39,0.88-0.48,1.03c-1.3,2-4.3,1.75-5.21-0.46c-0.37-49.3-0.17-98.7-0.1-148.02
			c0.36-1.19,1.38-2.04,2.66-2.08L321,24.32c2.4,0.26,3.45,2.94,1.99,4.83c-0.27,0.35-1.22,1.04-1.61,1.04H237.2z"/>
		<g>
			<path class="st2" d="M263.02,106.58c0.58-0.54,1.51-0.77,2.29-0.83l74.44,0c4.61,0.26,4.17,6.22-0.38,6.07l-73.68,0
				C262.83,112.08,260.86,108.59,263.02,106.58z"/>
			<path class="st2" d="M264.23,120.57l76.28-0.05c3.03,0.57,3.41,4.59,0.52,5.64c-25.24,0.55-50.61,0.07-75.9,0.24
				C261.69,126.24,261.01,121.72,264.23,120.57z"/>
			<path class="st2" d="M342.05,154.93c-0.26,0.23-0.6,0.37-0.92,0.51c-25.5,0.3-51.05,0.04-76.57,0.13
				c-3.67-0.84-2.93-5.82,0.76-5.88l74.44,0C342.59,149.54,344.16,153.03,342.05,154.93z"/>
			<path class="st2" d="M342.24,165.28c1.78,1.83,0.27,5.1-2.3,5.06l-74.82,0c-3.59-0.18-4.11-5.11-0.56-5.88l75.76-0.01
				C340.88,164.44,341.86,164.9,342.24,165.28z"/>
			<path class="st2" d="M264.42,135.15l75.72-0.05c3.83,0.36,3.74,5.6,0,5.89l-75.2,0C261.51,140.71,261.18,136.1,264.42,135.15z"/>
			<path class="st2" d="M280.7,86.48l43.32-0.04c3.52,0.2,4.11,5.12,0.57,5.87l-43.94,0C277.28,91.83,277.33,87.05,280.7,86.48z"/>
			<path class="st2" d="M326.14,72.68c1.71,1.71,0.63,4.76-1.73,5.05l-43.56,0c-3.63-0.5-3.57-5.36,0-5.87l43.19-0.01
				C324.69,71.87,325.68,72.22,326.14,72.68z"/>
		</g>
	</g>
</g>
</svg>
