<?xml version="1.0" encoding="UTF-8"?>
<svg id="Capa_1" xmlns="http://www.w3.org/2000/svg" version="1.1" viewBox="0 0 384 276">
  <!-- Generator: Adobe Illustrator 29.3.1, SVG Export Plug-In . SVG Version: 2.1.0 Build 151)  -->
  <defs>
    <style>
      .st0 {
        fill: #fff;
      }

      .st1 {
        fill: #2495ce;
      }

      .st2 {
        fill: #0f1218;
      }
    </style>
  </defs>
  <rect class="st2" x="-25.6" y="-12.8" width="429.6" height="301.5"/>
  <g>
    <path class="st0" d="M40.9,239.5c-.6,1.1-1.5,1.9-2.8,2.6-1.2.7-2.8,1-4.6,1h-3.4v8.1h-5.5v-22.5h8.9c1.8,0,3.3.3,4.5.9,1.2.6,2.2,1.5,2.8,2.6s.9,2.3.9,3.7-.3,2.5-.9,3.6h0ZM35.4,238c.5-.5.8-1.2.8-2.1s-.3-1.6-.8-2.1c-.5-.5-1.3-.7-2.3-.7h-3v5.6h3c1,0,1.8-.2,2.3-.7h0Z"/>
    <path class="st0" d="M56.1,251.2l-4.7-8.5h-1.3v8.5h-5.5v-22.5h9.2c1.8,0,3.3.3,4.5.9s2.2,1.5,2.8,2.5c.6,1.1.9,2.3.9,3.6s-.4,2.8-1.3,4-2.1,2-3.7,2.5l5.2,8.9h-6.2ZM50.1,238.8h3.4c1,0,1.8-.2,2.3-.7.5-.5.8-1.2.8-2.1s-.2-1.5-.8-2c-.5-.5-1.2-.7-2.3-.7h-3.4v5.6h0Z"/>
    <path class="st0" d="M70.3,249.9c-1.8-1-3.2-2.4-4.2-4.1s-1.6-3.7-1.6-5.9.5-4.2,1.6-5.9c1-1.8,2.4-3.1,4.2-4.1,1.8-1,3.7-1.5,5.8-1.5s4.1.5,5.8,1.5c1.8,1,3.2,2.4,4.2,4.1s1.5,3.7,1.5,5.9-.5,4.2-1.5,5.9-2.4,3.1-4.2,4.1-3.7,1.5-5.8,1.5-4.1-.5-5.8-1.5ZM80.4,244.6c1.1-1.2,1.6-2.8,1.6-4.7s-.5-3.6-1.6-4.8-2.5-1.8-4.3-1.8-3.3.6-4.3,1.8c-1.1,1.2-1.6,2.8-1.6,4.8s.5,3.6,1.6,4.8,2.5,1.8,4.3,1.8,3.2-.6,4.3-1.8Z"/>
    <path class="st0" d="M106.8,228.7v4.4h-5.9v18.1h-5.5v-18.1h-5.9v-4.4h17.4,0Z"/>
    <path class="st0" d="M114.4,249.9c-1.8-1-3.2-2.4-4.2-4.1s-1.6-3.7-1.6-5.9.5-4.2,1.6-5.9c1-1.8,2.4-3.1,4.2-4.1,1.8-1,3.7-1.5,5.8-1.5s4.1.5,5.8,1.5c1.8,1,3.1,2.4,4.2,4.1,1,1.8,1.5,3.7,1.5,5.9s-.5,4.2-1.5,5.9-2.4,3.1-4.2,4.1-3.7,1.5-5.8,1.5-4.1-.5-5.8-1.5ZM124.5,244.6c1.1-1.2,1.6-2.8,1.6-4.7s-.5-3.6-1.6-4.8-2.5-1.8-4.3-1.8-3.3.6-4.3,1.8-1.6,2.8-1.6,4.8.5,3.6,1.6,4.8,2.5,1.8,4.3,1.8,3.2-.6,4.3-1.8Z"/>
    <path class="st0" d="M150.9,228.7v4.4h-5.9v18.1h-5.5v-18.1h-5.9v-4.4h17.4,0Z"/>
    <path class="st0" d="M159.1,228.7v22.5h-5.5v-22.5h5.5Z"/>
    <path class="st0" d="M179.3,239.5c-.6,1.1-1.5,1.9-2.8,2.6-1.2.7-2.8,1-4.6,1h-3.4v8.1h-5.5v-22.5h8.9c1.8,0,3.3.3,4.5.9,1.2.6,2.2,1.5,2.8,2.6s.9,2.3.9,3.7-.3,2.5-.9,3.6h0ZM173.8,238c.5-.5.8-1.2.8-2.1s-.3-1.6-.8-2.1c-.5-.5-1.3-.7-2.3-.7h-3v5.6h3c1,0,1.8-.2,2.3-.7h0Z"/>
    <path class="st0" d="M203.6,251.2l-4.6-6.9-4,6.9h-6.2l7.2-11.4-7.4-11h6.4l4.5,6.8,4-6.8h6.2l-7.1,11.3,7.4,11.1h-6.4,0Z"/>
    <path class="st0" d="M227.3,230.1c1.8.9,3.1,2.3,4.1,3.9,1,1.7,1.5,3.6,1.5,5.9s-.5,4.1-1.5,5.9-2.4,3-4.1,4-3.9,1.4-6.2,1.4h-8.4v-22.5h8.4c2.4,0,4.4.5,6.2,1.4h0ZM225.6,244.8c1.1-1.1,1.7-2.7,1.7-4.8s-.6-3.7-1.7-4.8c-1.1-1.1-2.8-1.7-4.8-1.7h-2.6v13.1h2.6c2.1,0,3.7-.6,4.8-1.7Z"/>
  </g>
  <g>
    <path class="st1" d="M318.8,37.1c0-.3.9-1.6,1.2-1.8,1-.6,21.6-.5,24.4-.3.7,0,3.1.2,3.3,1l.6,139.7c-.5.7-5.5,2.5-6.8,3-43.4,15.4-93.2,1.9-89.1-52.3,2.6-33.7,34.7-52.3,66.3-49.1v-40.1h0ZM318.8,101.9c-21.5-3.5-38.7,9.6-36.7,32.2,1.9,20.9,17.3,28.1,36.7,24.5v-56.7h0Z"/>
    <path class="st1" d="M163,46.4l27.7,50.6,27.1-50.7h28.9c.6,0,1.3,1.7.6,2.4l-38.3,63.6,41,69.1h-34.1l-28-50c-7.6,16.6-17,32.3-25.4,48.4-.3.6-2.2,2.2-2.6,2.2h-29.5c-.2,0-1.1-1-.8-1.4l40.3-66.4-39.1-66.4c-.3-.5.7-1.4.8-1.4h31.4Z"/>
  </g>
</svg>