<?xml version="1.0" encoding="UTF-8"?>
<svg id="Capa_1" xmlns="http://www.w3.org/2000/svg" version="1.1" viewBox="0 0 384 276">
  <!-- Generator: Adobe Illustrator 29.4.0, SVG Export Plug-In . SVG Version: 2.1.0 Build 152)  -->
  <defs>
    <style>
      .st0 {
        fill: #fff;
      }

      .st1 {
        fill: #2495ce;
      }

      .st2 {
        fill: #0f1218;
      }
    </style>
  </defs>
  <rect class="st0" width="384" height="276"/>
  <rect class="st2" x="-28.11" y="-17.91" width="442.76" height="311.81"/>
  <g>
    <path class="st0" d="M52.5,186.17l-7.97,22.46h-6.85l-7.97-22.46h5.82l5.57,16.96,5.6-16.96h5.8Z"/>
    <path class="st0" d="M60.24,186.17v22.46h-5.47v-22.46h5.47Z"/>
    <path class="st0" d="M78.83,187.58c1.77.94,3.14,2.26,4.11,3.95.97,1.7,1.46,3.65,1.46,5.87s-.49,4.15-1.46,5.86-2.35,3.03-4.13,3.97-3.85,1.41-6.19,1.41h-8.42v-22.46h8.42c2.37,0,4.44.46,6.21,1.4ZM77.1,202.2c1.15-1.13,1.73-2.73,1.73-4.8s-.58-3.68-1.73-4.83c-1.15-1.15-2.76-1.73-4.83-1.73h-2.59v13.06h2.59c2.07,0,3.68-.57,4.83-1.7Z"/>
    <path class="st0" d="M92.94,190.55v4.54h7.33v4.22h-7.33v4.93h8.29v4.38h-13.76v-22.46h13.76v4.38h-8.29Z"/>
    <path class="st0" d="M109.6,207.39c-1.76-.98-3.16-2.35-4.19-4.11s-1.55-3.74-1.55-5.94.52-4.17,1.55-5.92,2.43-3.12,4.19-4.1c1.76-.98,3.7-1.47,5.81-1.47s4.05.49,5.81,1.47c1.76.98,3.15,2.35,4.16,4.1,1.01,1.75,1.52,3.72,1.52,5.92s-.51,4.18-1.54,5.94-2.41,3.13-4.16,4.11-3.68,1.47-5.79,1.47-4.05-.49-5.81-1.47ZM119.71,202.07c1.08-1.19,1.62-2.77,1.62-4.74s-.54-3.57-1.62-4.75-2.51-1.78-4.3-1.78-3.26.59-4.34,1.76-1.62,2.76-1.62,4.77.54,3.57,1.62,4.75,2.52,1.78,4.34,1.78c1.79,0,3.22-.59,4.3-1.79Z"/>
    <path class="st0" d="M47.63,235.37c-.6,1.08-1.52,1.95-2.75,2.61-1.24.66-2.77.99-4.61.99h-3.39v8.06h-5.47v-22.46h8.86c1.79,0,3.31.31,4.54.93,1.24.62,2.17,1.47,2.78,2.56s.93,2.34.93,3.74c0,1.3-.29,2.49-.89,3.57ZM42.19,233.88c.51-.49.77-1.18.77-2.08s-.26-1.59-.77-2.08c-.51-.49-1.29-.74-2.34-.74h-2.98v5.63h2.98c1.05,0,1.83-.24,2.34-.73Z"/>
    <path class="st0" d="M62.83,247.03l-4.67-8.48h-1.31v8.48h-5.47v-22.46h9.18c1.77,0,3.28.31,4.53.93,1.25.62,2.18,1.47,2.8,2.54.62,1.08.93,2.28.93,3.6,0,1.49-.42,2.83-1.26,4-.84,1.17-2.09,2-3.73,2.5l5.18,8.9h-6.18ZM56.85,234.68h3.39c1,0,1.75-.25,2.26-.74.5-.49.75-1.18.75-2.08,0-.85-.25-1.52-.75-2.02-.5-.49-1.25-.74-2.26-.74h-3.39v5.58Z"/>
    <path class="st0" d="M77.06,245.79c-1.76-.98-3.16-2.35-4.19-4.11s-1.55-3.74-1.55-5.94.52-4.17,1.55-5.92c1.03-1.75,2.43-3.11,4.19-4.1,1.76-.98,3.7-1.47,5.81-1.47s4.05.49,5.81,1.47c1.76.98,3.15,2.35,4.16,4.1s1.52,3.72,1.52,5.92-.51,4.18-1.54,5.94c-1.02,1.76-2.41,3.13-4.16,4.11s-3.68,1.47-5.79,1.47-4.05-.49-5.81-1.47ZM87.17,240.47c1.08-1.19,1.62-2.77,1.62-4.74s-.54-3.57-1.62-4.75-2.51-1.78-4.3-1.78-3.26.59-4.34,1.76c-1.08,1.17-1.62,2.76-1.62,4.77s.54,3.57,1.62,4.75,2.52,1.78,4.34,1.78c1.79.01,3.22-.59,4.3-1.79Z"/>
    <path class="st0" d="M122.83,224.57v22.46h-5.47v-13.47l-5.02,13.47h-4.42l-5.06-13.5v13.5h-5.47v-22.46h6.46l6.3,15.55,6.24-15.55h6.44Z"/>
    <path class="st0" d="M131.58,245.79c-1.76-.98-3.16-2.35-4.19-4.11s-1.55-3.74-1.55-5.94.52-4.17,1.55-5.92c1.03-1.75,2.43-3.11,4.19-4.1,1.76-.98,3.7-1.47,5.81-1.47s4.05.49,5.81,1.47,3.15,2.35,4.16,4.1c1.01,1.75,1.52,3.72,1.52,5.92s-.51,4.18-1.54,5.94c-1.02,1.76-2.41,3.13-4.16,4.11s-3.68,1.47-5.79,1.47-4.05-.49-5.81-1.47ZM141.7,240.47c1.08-1.19,1.62-2.77,1.62-4.74s-.54-3.57-1.62-4.75-2.51-1.78-4.3-1.78-3.26.59-4.34,1.76-1.62,2.76-1.62,4.77.54,3.57,1.62,4.75,2.52,1.78,4.34,1.78c1.78.01,3.22-.59,4.3-1.79Z"/>
    <path class="st0" d="M152.43,229.83c.96-1.74,2.3-3.09,4.02-4.06s3.66-1.46,5.84-1.46c2.67,0,4.95.7,6.85,2.11,1.9,1.41,3.17,3.33,3.81,5.76h-6.02c-.45-.94-1.08-1.65-1.9-2.14-.82-.49-1.75-.74-2.8-.74-1.69,0-3.05.59-4.1,1.76s-1.57,2.74-1.57,4.7.52,3.53,1.57,4.7c1.04,1.17,2.41,1.76,4.1,1.76,1.04,0,1.98-.25,2.8-.74s1.46-1.21,1.9-2.14h6.02c-.64,2.43-1.91,4.35-3.81,5.74-1.9,1.4-4.18,2.1-6.85,2.1-2.18,0-4.12-.49-5.84-1.46s-3.06-2.32-4.02-4.05-1.44-3.7-1.44-5.92.48-4.18,1.44-5.92Z"/>
    <path class="st0" d="M181.78,224.57v22.46h-5.47v-22.46h5.47Z"/>
    <path class="st0" d="M190.56,245.79c-1.76-.98-3.16-2.35-4.19-4.11s-1.55-3.74-1.55-5.94.52-4.17,1.55-5.92,2.43-3.11,4.19-4.1c1.76-.98,3.7-1.47,5.81-1.47s4.05.49,5.81,1.47,3.15,2.35,4.16,4.1c1.01,1.75,1.52,3.72,1.52,5.92s-.51,4.18-1.54,5.94c-1.02,1.76-2.41,3.13-4.16,4.11s-3.68,1.47-5.79,1.47-4.05-.49-5.81-1.47ZM200.67,240.47c1.08-1.19,1.62-2.77,1.62-4.74s-.54-3.57-1.62-4.75-2.51-1.78-4.3-1.78-3.26.59-4.34,1.76-1.62,2.76-1.62,4.77.54,3.57,1.62,4.75,2.52,1.78,4.34,1.78c1.79.01,3.22-.59,4.3-1.79Z"/>
    <path class="st0" d="M230.99,247.03h-5.47l-9.15-13.86v13.86h-5.47v-22.46h5.47l9.15,13.92v-13.92h5.47v22.46Z"/>
    <path class="st0" d="M248.94,243.07h-8.38l-1.34,3.97h-5.73l8.13-22.46h6.34l8.13,22.46h-5.79l-1.36-3.97ZM247.54,238.84l-2.78-8.22-2.75,8.22h5.53Z"/>
    <path class="st0" d="M264.02,242.81h7.17v4.22h-12.64v-22.46h5.47v18.24Z"/>
  </g>
  <path class="st1" d="M174.88,56.83c4.78-33,52.82-38.48,64.56-6.4l2.19,8.88c.08-31.07,34.85-49.86,60.91-32.23,24.12,16.32,22.17,52.21-2.98,66.25,4.36,4.5,7.36,10.39,7.03,16.8l34.08-20.6c5.52-.26,10.22,4.6,10.88,9.91l-2.6,69.92c-.74,5.05-6.6,10.15-11.82,8.96l-30.99-27.97-1.03-.56-.3,8.17c-.33,8.91-12.43,19.12-21.39,18.55l-93.14-3.51c-10.14-1.75-17.19-9.51-18.99-19.47l1.91-51.48c1.9-6.34,5.7-12.67,12.05-15.23-5.83-6.07-9.41-13.28-10.68-21.64.31-2.67-.07-5.74.31-8.35ZM308.43,60.39c.57-15.37-11.42-28.29-26.78-28.86s-28.27,11.42-28.84,26.79,11.42,28.29,26.78,28.86c15.36.58,28.27-11.42,28.84-26.79ZM230.3,63.07c.46-12.27-9.11-22.58-21.38-23.04-12.26-.46-22.57,9.12-23.03,21.39-.46,12.27,9.11,22.58,21.38,23.04s22.58-9.13,23.03-21.39ZM252.12,86.17c-5.67-6.62-9.55-14.61-10.45-23.38-.42,6.27-2.03,12.03-5.41,17.32l-3.96,5.32,19.82.74ZM194.96,95.29c-5.79.2-10.26,4.76-10.76,10.47.34,14.56-2.34,30.45-1.67,44.86.3,6.41,4.47,10.83,10.87,11.39l88.68,3.29c6.75-.27,10.95-4.18,11.72-10.88-.3-14.42,2.18-29.91,1.64-44.2-.25-6.74-4.18-10.97-10.88-11.72l-89.6-3.21ZM340.35,100.94l-34.01,20.68-.61,16.69,31.15,28.16,1.03.56,2.44-66.09Z"/>
</svg>