<?xml version="1.0" encoding="utf-8"?>
<!-- Generator: Adobe Illustrator 27.9.0, SVG Export Plug-In . SVG Version: 6.00 Build 0)  -->
<svg version="1.1" id="Capa_1" xmlns="http://www.w3.org/2000/svg" xmlns:xlink="http://www.w3.org/1999/xlink" x="0px" y="0px"
	 viewBox="0 0 384 276" style="enable-background:new 0 0 384 276;" xml:space="preserve">
<style type="text/css">
	.st0{fill:#FFFFFF;}
	.st1{fill:#0F1218;}
	.st2{fill:#2495CE;}
	.st3{fill:none;stroke:#2495CE;stroke-width:12;stroke-miterlimit:10;}
</style>
<rect class="st1" width="384" height="276"/>
<g>
	<path class="st0" d="M51.5,190.8l-7.97,22.46h-6.85l-7.97-22.46h5.82l5.57,16.96l5.6-16.96H51.5z"/>
	<path class="st0" d="M59.24,190.8v22.46h-5.47V190.8H59.24z"/>
	<path class="st0" d="M77.83,192.21c1.77,0.94,3.14,2.26,4.11,3.95c0.97,1.7,1.46,3.65,1.46,5.87c0,2.2-0.49,4.15-1.46,5.86
		c-0.97,1.71-2.35,3.03-4.13,3.97c-1.78,0.94-3.85,1.41-6.19,1.41h-8.42V190.8h8.42C73.99,190.8,76.06,191.27,77.83,192.21z
		 M76.1,206.83c1.15-1.13,1.73-2.73,1.73-4.8s-0.58-3.68-1.73-4.83c-1.15-1.15-2.76-1.73-4.83-1.73h-2.59v13.06h2.59
		C73.34,208.53,74.95,207.96,76.1,206.83z"/>
	<path class="st0" d="M91.94,195.18v4.54h7.33v4.22h-7.33v4.93h8.29v4.38H86.47V190.8h13.76v4.38H91.94z"/>
	<path class="st0" d="M108.6,212.01c-1.76-0.98-3.16-2.35-4.19-4.11c-1.03-1.76-1.55-3.74-1.55-5.94s0.52-4.17,1.55-5.92
		c1.03-1.75,2.43-3.11,4.19-4.1c1.76-0.98,3.7-1.47,5.81-1.47c2.11,0,4.05,0.49,5.81,1.47c1.76,0.98,3.15,2.35,4.16,4.1
		c1.01,1.75,1.52,3.72,1.52,5.92s-0.51,4.18-1.54,5.94c-1.02,1.76-2.41,3.13-4.16,4.11c-1.75,0.98-3.68,1.47-5.79,1.47
		C112.3,213.49,110.36,212.99,108.6,212.01z M118.71,206.7c1.08-1.19,1.62-2.77,1.62-4.74c0-1.98-0.54-3.57-1.62-4.75
		c-1.08-1.18-2.51-1.78-4.3-1.78c-1.81,0-3.26,0.59-4.34,1.76c-1.08,1.17-1.62,2.76-1.62,4.77c0,1.98,0.54,3.57,1.62,4.75
		c1.08,1.18,2.52,1.78,4.34,1.78C116.2,208.49,117.63,207.9,118.71,206.7z"/>
	<path class="st0" d="M35.88,233.58v4.54h7.33v4.22h-7.33v4.93h8.29v4.38H30.41V229.2h13.76v4.38H35.88z"/>
	<path class="st0" d="M61.48,251.66l-4.58-6.88l-4.03,6.88h-6.21l7.2-11.42L46.5,229.2h6.37l4.51,6.78l3.97-6.78h6.21l-7.14,11.33
		l7.42,11.14H61.48z"/>
	<path class="st0" d="M86.82,240c-0.6,1.08-1.52,1.95-2.75,2.61c-1.24,0.66-2.77,0.99-4.61,0.99h-3.39v8.06H70.6V229.2h8.86
		c1.79,0,3.31,0.31,4.54,0.93c1.24,0.62,2.17,1.47,2.78,2.56s0.93,2.34,0.93,3.74C87.72,237.73,87.42,238.92,86.82,240z
		 M81.38,238.51c0.51-0.49,0.77-1.18,0.77-2.08c0-0.9-0.26-1.59-0.77-2.08c-0.51-0.49-1.29-0.74-2.34-0.74h-2.98v5.63h2.98
		C80.09,239.25,80.87,239,81.38,238.51z"/>
	<path class="st0" d="M96.04,247.44h7.17v4.22H90.57V229.2h5.47V247.44z"/>
	<path class="st0" d="M111.3,229.2v22.46h-5.47V229.2H111.3z"/>
	<path class="st0" d="M115.78,234.46c0.96-1.74,2.3-3.09,4.02-4.06c1.72-0.97,3.66-1.46,5.84-1.46c2.67,0,4.95,0.7,6.85,2.11
		c1.9,1.41,3.17,3.33,3.81,5.76h-6.02c-0.45-0.94-1.08-1.65-1.9-2.14c-0.82-0.49-1.75-0.74-2.8-0.74c-1.69,0-3.05,0.59-4.1,1.76
		c-1.05,1.17-1.57,2.74-1.57,4.7c0,1.96,0.52,3.53,1.57,4.7c1.04,1.17,2.41,1.76,4.1,1.76c1.04,0,1.98-0.25,2.8-0.74
		c0.82-0.49,1.46-1.21,1.9-2.14h6.02c-0.64,2.43-1.91,4.35-3.81,5.74c-1.9,1.4-4.18,2.1-6.85,2.1c-2.18,0-4.12-0.49-5.84-1.46
		c-1.72-0.97-3.06-2.32-4.02-4.05c-0.96-1.73-1.44-3.7-1.44-5.92C114.34,238.18,114.82,236.2,115.78,234.46z"/>
	<path class="st0" d="M153.64,247.69h-8.38l-1.34,3.97h-5.73l8.13-22.46h6.34l8.13,22.46h-5.79L153.64,247.69z M152.23,243.47
		l-2.78-8.22l-2.75,8.22H152.23z"/>
	<path class="st0" d="M179.4,229.2v4.38h-5.95v18.08h-5.47v-18.08h-5.95v-4.38H179.4z"/>
	<path class="st0" d="M187.62,229.2v22.46h-5.47V229.2H187.62z"/>
	<path class="st0" d="M196.97,229.2v13.44c0,1.34,0.33,2.38,0.99,3.1c0.66,0.73,1.63,1.09,2.91,1.09s2.26-0.36,2.94-1.09
		c0.68-0.73,1.03-1.76,1.03-3.1V229.2h5.47v13.41c0,2.01-0.43,3.7-1.28,5.09s-2,2.43-3.44,3.14c-1.44,0.7-3.05,1.06-4.82,1.06
		c-1.77,0-3.36-0.35-4.75-1.04c-1.4-0.69-2.5-1.74-3.31-3.14c-0.81-1.4-1.22-3.1-1.22-5.1V229.2H196.97z"/>
</g>
<g id="Zpsg1w_00000118365677474918113620000008348769641346401937_">
	<g>
		<g>
			<path class="st3" d="M254.37,46.66c1.13-0.06,2.18,0.32,3.27,0.53c27.15,15.01,53.78,31.03,80.81,46.3
				c6.04,3.66,7.07,9.22,1.1,13.66l-78.68,45.52c-6.61,3.91-12.36,2.14-12.97-6.04l0.02-92.62
				C248.41,50.26,250.17,46.89,254.37,46.66z"/>
		</g>
	</g>
</g>
<g id="Zpsg1w_00000157994734264446473480000015276705270659051447_">
	<g>
		<g>
			<path class="st3" d="M158.72,46.66c1.13-0.06,2.18,0.32,3.27,0.53c27.15,15.01,53.78,31.03,80.81,46.3
				c6.04,3.66,7.07,9.22,1.1,13.66l-78.68,45.52c-6.61,3.91-12.36,2.14-12.97-6.04l0.02-92.62
				C152.77,50.26,154.52,46.89,158.72,46.66z"/>
		</g>
	</g>
</g>
</svg>
